<svg xmlns="http://www.w3.org/2000/svg" width="1280" height="288" viewBox="0 0 1280 288" version="1.1"><path d="M 109.983 18.108 C 109.974 18.323, 108.633 43.671, 107.002 74.436 C 105.372 105.201, 104.142 130.454, 104.269 130.553 C 104.396 130.653, 106.174 131.037, 108.221 131.407 C 112.870 132.247, 112.579 133.524, 113.859 106.657 C 114.405 95.194, 115.103 85.563, 115.411 85.256 C 115.718 84.949, 121.312 85.276, 127.841 85.983 C 146.934 88.051, 153.471 85.281, 158.067 73.174 C 160.981 65.499, 161.866 57.174, 160.842 47.054 C 159.034 29.169, 152.660 23.149, 132.697 20.475 C 117.152 18.392, 110.003 17.647, 109.983 18.108 M 174.995 28.705 C 174.992 30.242, 173.886 52.650, 172.536 78.500 C 171.187 104.350, 169.952 128.641, 169.791 132.479 L 169.500 139.458 173.250 140.072 C 176.266 140.565, 177.004 140.373, 177.021 139.093 C 177.032 138.217, 178.359 112.764, 179.969 82.531 C 181.578 52.298, 182.807 27.495, 182.698 27.414 C 182.589 27.332, 180.813 26.960, 178.750 26.587 C 175.150 25.937, 175 26.021, 174.995 28.705 M 118.123 32.183 C 117.641 33.457, 116.915 43.109, 116.512 53.631 L 115.778 72.762 124.639 74.047 C 142.425 76.626, 146.028 75.672, 150.117 67.302 C 152.011 63.426, 152.466 60.861, 152.481 54 C 152.498 46.467, 152.169 44.903, 149.593 40.254 C 146.258 34.234, 144.717 33.546, 131 31.942 C 126.325 31.395, 121.713 30.704, 120.751 30.407 C 119.552 30.036, 118.725 30.596, 118.123 32.183 M 358.029 53.750 C 358.045 55.263, 356.830 80.493, 355.329 109.817 C 352.382 167.399, 352.279 164.946, 357.633 164.985 C 359.560 164.999, 359.823 164.302, 360.366 157.750 C 360.697 153.762, 361.231 144.200, 361.552 136.500 C 362.622 110.854, 363.992 104.349, 369.595 98.304 C 371.724 96.006, 372.989 95.517, 376.598 95.596 C 381.923 95.712, 384.315 97.639, 386.619 103.672 C 388.386 108.299, 388.365 112.483, 386.370 154.615 L 385.701 168.729 389.101 169.246 C 390.970 169.530, 392.668 169.611, 392.874 169.424 C 393.079 169.238, 393.954 155.314, 394.816 138.481 C 396.613 103.426, 396.149 97.263, 391.253 91.117 C 384.675 82.859, 375.719 82.046, 368.697 89.067 C 366.032 91.732, 364.733 92.469, 364.370 91.521 C 364.084 90.776, 364.343 81.776, 364.946 71.521 C 365.549 61.267, 365.781 52.454, 365.462 51.938 C 365.143 51.422, 363.334 51, 361.441 51 C 358.347 51, 358.003 51.277, 358.029 53.750 M 205.500 63.947 C 200.026 66.419, 197.523 69.448, 195.129 76.500 C 193.248 82.038, 193.218 82.596, 194.737 83.750 C 197.890 86.146, 200.506 85.248, 202.314 81.149 C 205.009 75.041, 207.192 73.625, 213.655 73.795 C 220.521 73.976, 223.562 75.822, 226.062 81.328 C 228.015 85.630, 228.582 92.535, 227.164 94.768 C 225.966 96.656, 220.522 97.964, 211.017 98.649 C 202.209 99.283, 199.268 100.462, 195.262 104.964 C 188.319 112.768, 188.340 133.226, 195.299 140.776 C 202.312 148.384, 214.806 147.625, 222.405 139.130 C 225.134 136.079, 225.676 136.429, 226.261 141.624 C 226.824 146.614, 228.056 147.961, 232.083 147.985 C 234.651 148, 234.661 147.968, 233.887 142.263 C 233.459 139.108, 233.521 128.420, 234.026 118.513 C 234.530 108.606, 234.956 95.301, 234.972 88.946 C 234.997 78.576, 234.742 76.876, 232.485 72.346 C 230.663 68.690, 228.940 66.803, 226.235 65.502 C 224.181 64.514, 221.719 63.322, 220.764 62.853 C 217.889 61.441, 209.760 62.024, 205.500 63.947 M 468.578 73.195 C 467.728 83.507, 462.929 178.264, 463.242 178.566 C 463.384 178.703, 465.075 178.969, 467 179.157 L 470.500 179.500 471.184 168.500 C 471.742 159.532, 475.184 93.772, 476.234 72 L 476.500 66.500 472.840 66.195 L 469.181 65.890 468.578 73.195 M 266.398 69.873 C 261.910 70.781, 256.681 74.723, 253.742 79.417 C 243.482 95.801, 244.096 135.373, 254.797 147.353 C 261.340 154.678, 270.946 156.319, 277.939 151.306 C 282.486 148.047, 284.357 145.183, 287.050 137.354 C 289.654 129.786, 289.534 128.725, 285.891 127.112 C 283.248 125.942, 282.650 125.943, 281.906 127.118 C 281.425 127.878, 281.024 129.114, 281.015 129.865 C 281.007 130.615, 279.811 133.414, 278.358 136.084 C 276.409 139.664, 274.833 141.230, 272.354 142.048 C 261.700 145.564, 253.969 134.499, 254.020 115.807 C 254.075 95.531, 258.981 83.032, 267.513 81.432 C 274.284 80.161, 278.734 83.972, 281.509 93.416 C 282.600 97.128, 283.040 97.528, 286.354 97.810 C 290.518 98.165, 290.592 97.929, 288.892 89.799 C 286.013 76.036, 276.703 67.789, 266.398 69.873 M 523.631 79.750 C 523.317 83.463, 522.792 91.900, 522.464 98.500 C 521.649 114.943, 521.490 115.294, 517.681 109.100 C 513.801 102.790, 509.591 100.534, 503.420 101.460 C 492.584 103.085, 485.676 117.092, 484.327 140.179 C 482.765 166.894, 491.658 186, 505.654 186 C 508.224 186, 509.927 185.073, 513 182 C 515.200 179.800, 517 177.523, 517 176.941 C 517 176.359, 517.450 176.160, 518 176.500 C 518.550 176.840, 519 179.341, 519 182.059 L 519 187 522.500 187 C 525.473 187, 525.995 186.661, 525.968 184.750 C 525.950 183.512, 527.169 158.285, 528.678 128.689 C 531.642 70.512, 531.749 73.054, 526.351 73.015 C 524.420 73.002, 524.145 73.682, 523.631 79.750 M 314.784 77.078 C 303.328 79.781, 296.024 96.886, 296.028 121 C 296.031 137.654, 299.487 148.821, 306.765 155.685 C 311.060 159.735, 319.874 162.673, 322.891 161.058 C 323.979 160.476, 325.686 159.991, 326.684 159.981 C 328.756 159.959, 334.863 154.722, 337.156 151 C 339.492 147.210, 341.325 140.918, 340.358 140.013 C 339.886 139.572, 338.057 138.907, 336.293 138.535 C 333.355 137.917, 332.966 138.139, 331.672 141.180 C 329.223 146.929, 325.541 149.510, 319.907 149.427 C 315.901 149.367, 314.418 148.817, 311.987 146.487 C 307.374 142.068, 304.921 136.001, 304.271 127.403 L 303.692 119.747 310.096 120.284 C 313.618 120.579, 322.100 121.533, 328.945 122.404 C 338.805 123.658, 341.554 123.729, 342.180 122.744 C 344.438 119.187, 341.736 97.671, 338.044 89.818 C 335.264 83.902, 329.443 78.434, 324.500 77.095 C 319.989 75.873, 319.892 75.872, 314.784 77.078 M 312.315 90.750 C 307.383 95.204, 303.264 105.809, 305.846 107.405 C 306.410 107.753, 312.413 108.718, 319.186 109.548 C 325.959 110.379, 332.175 111.157, 333 111.279 C 335.361 111.627, 334.737 102.365, 332.043 97.085 C 328.592 90.320, 325.525 88, 320.034 88 C 316.340 88, 314.722 88.577, 312.315 90.750 M 423.115 92.639 C 418.404 94.694, 414.296 99.077, 411.801 104.713 C 408.922 111.214, 408.145 114.790, 407.042 126.631 C 405.280 145.548, 408.514 160.976, 415.878 168.786 C 429.424 183.152, 446.888 175.009, 451.939 151.971 C 454.891 138.509, 454.340 117.914, 450.775 108.500 C 449.411 104.897, 444.219 96.999, 442.053 95.233 C 436.935 91.060, 429.174 89.997, 423.115 92.639 M 663.590 94.250 C 662.915 97.635, 657.715 204.049, 658.201 204.534 C 658.675 205.008, 668.684 206.570, 680.219 207.969 C 688.545 208.979, 698.067 207.971, 700.842 205.785 C 706.631 201.226, 709.317 196.354, 711.063 187.245 C 713.590 174.062, 710.966 161.587, 703.997 153.649 L 700.705 149.900 703.733 146.700 C 709.236 140.885, 710.500 136.726, 710.500 124.429 C 710.500 114.089, 710.301 112.970, 707.488 107.470 C 702.474 97.664, 697.948 95.583, 676.026 92.999 C 664.444 91.634, 664.104 91.668, 663.590 94.250 M 424.916 104.278 C 414.506 111.293, 410.345 139.936, 417.617 154.525 C 420.900 161.112, 423.966 163.796, 429.172 164.640 C 432.403 165.165, 433.279 164.784, 437.241 161.132 C 443.254 155.590, 445.068 149.853, 445.741 134.253 C 446.215 123.276, 446.037 121.356, 444.022 115.753 C 441.451 108.603, 438.875 105.328, 434.282 103.371 C 429.938 101.520, 428.852 101.625, 424.916 104.278 M 671.700 105.339 C 671.266 106.471, 669.714 131.486, 669.521 140.459 C 669.492 141.781, 680.092 143.862, 688.226 144.131 C 696.009 144.389, 697.671 143.377, 701.099 136.295 C 702.902 132.570, 703.172 130.619, 702.776 124.178 C 702.281 116.134, 699.284 109, 696.401 109 C 695.631 109, 695 108.609, 695 108.131 C 695 107.653, 691.063 106.735, 686.250 106.090 C 681.438 105.446, 676.326 104.672, 674.891 104.370 C 673.103 103.994, 672.099 104.299, 671.700 105.339 M 222.500 107.929 C 221.400 108.370, 217.387 109.060, 213.583 109.463 C 202.563 110.629, 199.634 112.523, 198.475 119.228 C 196.939 128.123, 201.908 135, 209.869 135 C 218.205 135, 223.894 129.112, 226.025 118.278 C 227.184 112.385, 226.798 106.927, 225.231 107.063 C 224.829 107.098, 223.600 107.488, 222.500 107.929 M 557 109.655 C 556.175 109.995, 553.416 112.356, 550.868 114.900 C 544.021 121.739, 540.958 131.900, 540.288 150 C 539.431 173.148, 543.915 185.391, 555.508 191.555 C 565.667 196.957, 576.536 192.881, 581.896 181.659 C 585.209 174.723, 585.497 172.282, 583.085 171.594 C 581.938 171.267, 580.117 170.750, 579.037 170.444 C 577.512 170.013, 576.757 170.645, 575.657 173.279 C 573.141 179.300, 569.560 182, 564.089 182 C 557.987 182, 555.006 179.756, 551.449 172.485 C 549.367 168.229, 548.744 165.410, 548.637 159.759 L 548.500 152.500 552.500 152.713 C 554.700 152.831, 563.025 153.776, 571 154.814 C 578.975 155.852, 585.725 156.502, 586 156.258 C 587.165 155.224, 586.139 135.994, 584.600 130.033 C 582.686 122.620, 578.124 114.936, 573.814 111.868 C 570.807 109.726, 560.207 108.331, 557 109.655 M 500.792 115.020 C 498.455 116.947, 496.303 120.113, 494.845 123.770 C 492.817 128.857, 492.557 131.239, 492.530 145 C 492.502 159.458, 492.663 160.818, 494.920 165.235 C 496.251 167.840, 498.328 170.899, 499.535 172.033 C 502.193 174.530, 509.012 175.064, 511.532 172.973 C 517.356 168.140, 520.962 156.630, 520.985 142.799 C 521.013 126.345, 516.645 115.409, 509.148 113.163 C 504.240 111.692, 505.046 111.513, 500.792 115.020 M 834.574 120.290 C 833.721 129.483, 828.808 227.143, 829.181 227.505 C 829.356 227.675, 831.075 227.969, 833 228.157 L 836.500 228.500 837.270 213.056 C 838.018 198.061, 838.132 197.470, 841.168 192.739 C 843.711 188.776, 844.526 188.112, 845.533 189.183 C 846.215 189.907, 849.840 199.800, 853.590 211.167 L 860.408 231.834 864.796 232.492 C 867.209 232.854, 869.316 233.004, 869.478 232.825 C 869.753 232.523, 866.146 221.734, 856.081 192.747 C 853.836 186.284, 852 180.366, 852 179.597 C 852 178.440, 860.068 166.683, 862.017 165 C 862.336 164.725, 863.687 162.925, 865.021 161 C 866.355 159.075, 868.245 156.628, 869.223 155.561 C 871.803 152.747, 871.417 151.333, 867.875 150.625 C 862.708 149.592, 862.223 149.814, 858.864 154.750 C 857.086 157.363, 855.356 159.725, 855.018 160 C 854.680 160.275, 853.322 162.075, 852 164 C 850.678 165.925, 849.320 167.725, 848.982 168 C 848.644 168.275, 846.862 170.750, 845.022 173.500 C 843.182 176.250, 841.516 178.695, 841.321 178.933 C 841.126 179.172, 840.544 178.944, 840.027 178.427 C 839.442 177.842, 839.691 165.907, 840.691 146.724 C 841.572 129.804, 842.115 115.808, 841.897 115.624 C 841.678 115.439, 840.071 115.016, 838.325 114.684 L 835.151 114.080 834.574 120.290 M 600 117.003 C 600 118.233, 599.077 136.562, 597.949 157.735 C 596.821 178.908, 596.033 196.361, 596.199 196.520 C 596.365 196.679, 598.075 196.965, 600 197.155 L 603.500 197.500 604.678 174.500 C 606.348 141.890, 607.629 134.892, 612.961 129.242 C 614.586 127.521, 615.733 127.142, 617.796 127.646 C 619.283 128.010, 620.729 128.653, 621.009 129.074 C 622.601 131.466, 624.302 130.125, 625.503 125.531 C 626.720 120.878, 626.670 120.448, 624.717 118.754 C 619.859 114.541, 613.505 115.791, 610.391 121.572 C 607.912 126.176, 607 125.888, 607 120.500 C 607 117.574, 606.563 115.995, 605.750 115.986 C 605.063 115.979, 603.487 115.701, 602.250 115.370 C 600.408 114.876, 600 115.172, 600 117.003 M 556.870 122.956 C 552.827 126.288, 548.559 135.106, 549.389 138.412 C 549.879 140.365, 551.037 140.725, 560.717 141.932 C 566.648 142.671, 573.075 143.326, 575 143.388 L 578.500 143.500 578.334 138.705 C 578.001 129.077, 570.841 120, 563.580 120 C 561.594 120, 559.149 121.077, 556.870 122.956 M 739.896 133.810 C 732.748 135.704, 727.554 142.190, 725.529 151.750 C 724.932 154.571, 725.108 155, 726.862 155 C 727.973 155, 729.160 155.450, 729.500 156 C 730.846 158.179, 732.611 156.774, 734.220 152.242 C 735.342 149.085, 736.902 146.898, 738.859 145.742 C 742.244 143.743, 744.067 143.613, 749.105 145.013 C 755.849 146.886, 759.001 151.424, 759.163 159.494 C 759.328 167.717, 758.105 168.537, 744.145 169.559 C 734.529 170.263, 731.845 171.155, 728.108 174.892 C 719.439 183.561, 719.397 204.771, 728.034 212.817 C 731.426 215.977, 739.674 218.488, 742.352 217.177 C 743.533 216.599, 745.466 215.857, 746.647 215.528 C 747.828 215.200, 750.477 213.343, 752.534 211.403 C 754.592 209.463, 756.635 208.241, 757.074 208.687 C 757.514 209.134, 758.015 211.525, 758.187 214 C 758.495 218.426, 758.562 218.505, 762.307 218.814 L 766.114 219.128 765.415 212.952 C 765.031 209.556, 765.282 194.340, 765.973 179.139 C 767.166 152.919, 767.134 151.220, 765.365 146.048 C 762.798 138.545, 756.567 133.964, 748.248 133.465 C 745.087 133.275, 741.328 133.431, 739.896 133.810 M 794.750 141.638 C 793.788 141.918, 793 142.564, 793 143.073 C 793 143.583, 792.452 144, 791.782 144 C 788.356 144, 783.008 153.760, 780.275 165 C 777.974 174.465, 778.063 197.681, 780.429 205 C 783.629 214.899, 787.824 220.771, 793.673 223.538 C 799.686 226.383, 801.482 226.532, 806.167 224.575 C 812.856 221.780, 818.907 212.796, 820.459 203.353 C 821.182 198.957, 820.978 198.629, 816.925 197.663 C 814.535 197.094, 814.229 197.433, 812.668 202.383 C 809.104 213.692, 800.912 217.373, 793.600 210.953 C 788.084 206.111, 786.489 200.008, 786.557 184 C 786.626 167.691, 788.637 160.544, 794.645 155.250 C 803.039 147.854, 811.236 152.826, 814.429 167.250 C 814.873 169.253, 815.644 169.996, 817.269 169.985 C 821.821 169.953, 822.481 168.686, 821.287 162.269 C 819.837 154.468, 816.637 148.161, 812.294 144.539 C 809.316 142.056, 807.755 141.542, 802.621 141.354 C 799.255 141.231, 795.712 141.359, 794.750 141.638 M 668.572 159.157 C 668.245 162.096, 667.870 171.223, 667.738 179.441 L 667.500 194.382 671.029 195.130 C 672.971 195.541, 678.371 196.299, 683.029 196.814 C 694.146 198.044, 697.273 196.756, 700.617 189.576 C 703.770 182.805, 703.968 170.817, 701.023 165.044 C 697.448 158.038, 692.941 156.114, 676.334 154.507 L 669.167 153.814 668.572 159.157 M 891.385 156.214 C 884.932 161.167, 882.579 165.389, 879.522 177.500 C 877.046 187.311, 876.967 207.253, 879.371 215.940 C 882.569 227.497, 886.187 232.759, 892.872 235.578 C 898.993 238.159, 904.724 236.709, 908.779 231.554 C 909.854 230.187, 911.019 229.353, 911.367 229.701 C 913.152 231.486, 911.240 246.585, 908.496 252.368 C 905.658 258.348, 897.442 260.831, 891.190 257.598 C 888.401 256.156, 884 249.454, 884 246.649 C 884 244.817, 881.045 243, 878.066 243 C 875.701 243, 875.763 242.585, 876.926 250.621 C 877.900 257.352, 881.459 263.944, 885.576 266.642 C 891.952 270.820, 903.180 271.374, 907.628 267.731 C 915.109 261.603, 917.389 256.375, 919.020 241.615 C 919.967 233.049, 924.153 158.749, 923.706 158.433 C 923.593 158.353, 922.038 158.009, 920.250 157.669 C 917 157.050, 917 157.050, 916.985 161.275 C 916.964 167.038, 915.583 169.098, 914.255 165.346 C 913.071 162.001, 908.420 156.672, 905.316 155.103 C 901.553 153.203, 894.584 153.758, 891.385 156.214 M 937.988 161.250 C 937.982 161.938, 937.087 178.700, 936 198.500 C 933.416 245.576, 933.311 241.612, 937.160 242.382 C 938.898 242.730, 940.545 242.789, 940.820 242.513 C 941.095 242.238, 941.892 231.547, 942.590 218.756 C 944.098 191.132, 945.281 182.920, 948.559 177.316 C 951.678 171.986, 954.285 171.095, 958.233 174.014 C 961.702 176.579, 962.497 175.939, 963.545 169.736 C 964.277 165.400, 963.328 163.793, 958.967 161.986 C 954.920 160.310, 950.802 162.096, 948.391 166.572 C 945.630 171.700, 943.794 170.605, 944.741 164.395 C 945.140 161.781, 944.841 161.189, 942.857 160.658 C 939.309 159.709, 938.001 159.867, 937.988 161.250 M 1171.626 168.750 C 1171.303 173.563, 1170.756 182.563, 1170.410 188.750 C 1170.064 194.938, 1169.463 200, 1169.075 200 C 1168.686 200, 1167.362 198.209, 1166.131 196.020 C 1161.965 188.607, 1154.904 185.775, 1148.422 188.916 C 1137.735 194.096, 1132.728 207.751, 1132.624 232 C 1132.574 243.530, 1132.920 246.668, 1134.990 253.500 C 1137.043 260.274, 1138.192 262.280, 1142.483 266.590 C 1150.201 274.343, 1155.624 274.522, 1162.685 267.256 L 1167 262.816 1167 267.829 C 1167 272.611, 1167.141 272.872, 1170.072 273.516 C 1171.761 273.887, 1173.331 274.003, 1173.560 273.773 C 1173.790 273.543, 1175.088 251.788, 1176.444 225.428 C 1177.801 199.068, 1179.190 173.563, 1179.531 168.750 L 1180.150 160 1176.181 160 L 1172.212 160 1171.626 168.750 M 893.584 168.060 C 887.552 173.356, 885.701 180.061, 885.593 197 C 885.507 210.347, 885.686 211.858, 887.837 216 C 896.068 231.848, 909.360 227.683, 913.509 207.956 C 916.499 193.743, 914.975 179.452, 909.603 171.335 C 904.968 164.331, 899.179 163.148, 893.584 168.060 M 988 165.789 C 978.959 166.972, 971.875 174.860, 968.504 187.500 C 967.623 190.800, 966.654 199.125, 966.348 206 C 965.305 229.488, 970.714 243.599, 982.896 249.172 C 994.420 254.444, 1006.215 246.181, 1010.804 229.620 C 1013.299 220.617, 1013.228 191.587, 1010.694 184.322 C 1006.482 172.250, 997.111 164.597, 988 165.789 M 1026.557 174.277 C 1025.624 178.711, 1023.725 227.707, 1024.181 235.571 C 1024.817 246.557, 1027.400 251.811, 1033.902 255.350 C 1036.580 256.808, 1039.857 258, 1041.185 258 C 1044.639 258, 1051.583 253.190, 1053.637 249.375 C 1056.059 244.878, 1057.363 246.254, 1056.626 252.529 C 1056.126 256.783, 1056.309 257.905, 1057.585 258.394 C 1059.134 258.989, 1062.989 259.241, 1063.012 258.750 C 1063.018 258.613, 1063.913 242.300, 1065 222.500 C 1067.656 174.115, 1067.744 177.338, 1063.750 176.741 C 1061.963 176.474, 1060.246 176.651, 1059.936 177.135 C 1059.626 177.620, 1058.806 189.516, 1058.113 203.573 C 1056.715 231.939, 1055.735 237.018, 1050.606 242.456 C 1047.724 245.513, 1046.634 246, 1042.683 246 C 1038.626 246, 1037.797 245.601, 1035.444 242.515 C 1031.618 237.500, 1031.245 231.519, 1032.836 200.693 C 1033.598 185.950, 1034.058 173.752, 1033.860 173.587 C 1033.662 173.422, 1032.043 173.010, 1030.262 172.671 C 1027.477 172.141, 1026.959 172.366, 1026.557 174.277 M 985.309 178.427 C 978.243 181.586, 974.040 193.603, 974.015 210.712 C 973.991 226.866, 978.799 236.863, 987.500 238.753 C 996.469 240.702, 1002.740 232.467, 1005.093 215.653 C 1008.528 191.098, 998.628 172.472, 985.309 178.427 M 751 179.598 C 747.975 180.322, 743.993 180.934, 742.151 180.958 C 737.546 181.016, 732.505 183.596, 731.139 186.595 C 729.369 190.479, 729.774 197.118, 732.004 200.775 C 734.472 204.823, 738.139 206.323, 744 205.682 C 747.730 205.275, 749.139 204.471, 752.233 200.986 C 754.287 198.673, 756.422 195.142, 756.978 193.140 C 758.159 188.888, 758.339 179.307, 757.250 178.699 C 756.837 178.469, 754.025 178.873, 751 179.598 M 1081.988 183.687 C 1081.982 185.784, 1081.082 203.888, 1079.989 223.917 C 1078.896 243.947, 1078.194 260.527, 1078.429 260.762 C 1078.664 260.997, 1080.351 261.259, 1082.178 261.345 L 1085.500 261.500 1086.657 239.500 C 1088.176 210.622, 1088.623 206.640, 1090.935 201.414 C 1095.861 190.279, 1105.561 188.651, 1111.279 198 C 1113.920 202.319, 1114.100 207.741, 1112.541 236 C 1111.706 251.125, 1111.018 264.063, 1111.012 264.750 C 1111.004 265.536, 1112.432 266, 1114.859 266 L 1118.718 266 1119.399 253.250 C 1121.767 208.918, 1121.890 203.377, 1120.637 197.301 C 1118.371 186.304, 1111.217 180.161, 1102.104 181.388 C 1098.414 181.884, 1096.706 182.839, 1093.500 186.198 L 1089.500 190.389 1089 185.444 C 1088.522 180.718, 1088.357 180.486, 1085.250 180.187 C 1082.098 179.883, 1082 179.989, 1081.988 183.687 M 1151.082 199.686 C 1148.429 200.794, 1145.048 205.487, 1142.928 211 C 1140.279 217.890, 1139.147 236.795, 1140.895 244.948 C 1142.156 250.824, 1146.724 258.995, 1148.750 258.998 C 1149.438 258.999, 1150 259.450, 1150 260 C 1150 260.550, 1151.645 261, 1153.656 261 C 1159.174 261, 1163.249 257.337, 1166.106 249.809 C 1168.245 244.173, 1168.500 241.899, 1168.500 228.500 C 1168.500 213.822, 1168.438 213.388, 1165.603 208.272 C 1164.010 205.397, 1161.985 202.397, 1161.103 201.607 C 1159.274 199.967, 1153.198 198.802, 1151.082 199.686" stroke="none" fill="#fc0b0b" fill-rule="evenodd"/><path d="M 0 144.001 L 0 288.002 640.250 287.751 L 1280.500 287.500 1280.753 143.750 L 1281.007 -0 640.503 -0 L 0 0 0 144.001 M 0.487 144.500 C 0.487 223.700, 0.605 255.952, 0.750 216.172 C 0.895 176.391, 0.895 111.591, 0.750 72.172 C 0.605 32.752, 0.487 65.300, 0.487 144.500 M 109.983 18.108 C 109.974 18.323, 108.633 43.671, 107.002 74.436 C 105.372 105.201, 104.142 130.454, 104.269 130.553 C 104.396 130.653, 106.174 131.037, 108.221 131.407 C 112.870 132.247, 112.579 133.524, 113.859 106.657 C 114.405 95.194, 115.103 85.563, 115.411 85.256 C 115.718 84.949, 121.312 85.276, 127.841 85.983 C 146.934 88.051, 153.471 85.281, 158.067 73.174 C 160.981 65.499, 161.866 57.174, 160.842 47.054 C 159.034 29.169, 152.660 23.149, 132.697 20.475 C 117.152 18.392, 110.003 17.647, 109.983 18.108 M 174.995 28.705 C 174.992 30.242, 173.886 52.650, 172.536 78.500 C 171.187 104.350, 169.952 128.641, 169.791 132.479 L 169.500 139.458 173.250 140.072 C 176.266 140.565, 177.004 140.373, 177.021 139.093 C 177.032 138.217, 178.359 112.764, 179.969 82.531 C 181.578 52.298, 182.807 27.495, 182.698 27.414 C 182.589 27.332, 180.813 26.960, 178.750 26.587 C 175.150 25.937, 175 26.021, 174.995 28.705 M 118.123 32.183 C 117.641 33.457, 116.915 43.109, 116.512 53.631 L 115.778 72.762 124.639 74.047 C 142.425 76.626, 146.028 75.672, 150.117 67.302 C 152.011 63.426, 152.466 60.861, 152.481 54 C 152.498 46.467, 152.169 44.903, 149.593 40.254 C 146.258 34.234, 144.717 33.546, 131 31.942 C 126.325 31.395, 121.713 30.704, 120.751 30.407 C 119.552 30.036, 118.725 30.596, 118.123 32.183 M 358.029 53.750 C 358.045 55.263, 356.830 80.493, 355.329 109.817 C 352.382 167.399, 352.279 164.946, 357.633 164.985 C 359.560 164.999, 359.823 164.302, 360.366 157.750 C 360.697 153.762, 361.231 144.200, 361.552 136.500 C 362.622 110.854, 363.992 104.349, 369.595 98.304 C 371.724 96.006, 372.989 95.517, 376.598 95.596 C 381.923 95.712, 384.315 97.639, 386.619 103.672 C 388.386 108.299, 388.365 112.483, 386.370 154.615 L 385.701 168.729 389.101 169.246 C 390.970 169.530, 392.668 169.611, 392.874 169.424 C 393.079 169.238, 393.954 155.314, 394.816 138.481 C 396.613 103.426, 396.149 97.263, 391.253 91.117 C 384.675 82.859, 375.719 82.046, 368.697 89.067 C 366.032 91.732, 364.733 92.469, 364.370 91.521 C 364.084 90.776, 364.343 81.776, 364.946 71.521 C 365.549 61.267, 365.781 52.454, 365.462 51.938 C 365.143 51.422, 363.334 51, 361.441 51 C 358.347 51, 358.003 51.277, 358.029 53.750 M 205.500 63.947 C 200.026 66.419, 197.523 69.448, 195.129 76.500 C 193.248 82.038, 193.218 82.596, 194.737 83.750 C 197.890 86.146, 200.506 85.248, 202.314 81.149 C 205.009 75.041, 207.192 73.625, 213.655 73.795 C 220.521 73.976, 223.562 75.822, 226.062 81.328 C 228.015 85.630, 228.582 92.535, 227.164 94.768 C 225.966 96.656, 220.522 97.964, 211.017 98.649 C 202.209 99.283, 199.268 100.462, 195.262 104.964 C 188.319 112.768, 188.340 133.226, 195.299 140.776 C 202.312 148.384, 214.806 147.625, 222.405 139.130 C 225.134 136.079, 225.676 136.429, 226.261 141.624 C 226.824 146.614, 228.056 147.961, 232.083 147.985 C 234.651 148, 234.661 147.968, 233.887 142.263 C 233.459 139.108, 233.521 128.420, 234.026 118.513 C 234.530 108.606, 234.956 95.301, 234.972 88.946 C 234.997 78.576, 234.742 76.876, 232.485 72.346 C 230.663 68.690, 228.940 66.803, 226.235 65.502 C 224.181 64.514, 221.719 63.322, 220.764 62.853 C 217.889 61.441, 209.760 62.024, 205.500 63.947 M 468.578 73.195 C 467.728 83.507, 462.929 178.264, 463.242 178.566 C 463.384 178.703, 465.075 178.969, 467 179.157 L 470.500 179.500 471.184 168.500 C 471.742 159.532, 475.184 93.772, 476.234 72 L 476.500 66.500 472.840 66.195 L 469.181 65.890 468.578 73.195 M 266.398 69.873 C 261.910 70.781, 256.681 74.723, 253.742 79.417 C 243.482 95.801, 244.096 135.373, 254.797 147.353 C 261.340 154.678, 270.946 156.319, 277.939 151.306 C 282.486 148.047, 284.357 145.183, 287.050 137.354 C 289.654 129.786, 289.534 128.725, 285.891 127.112 C 283.248 125.942, 282.650 125.943, 281.906 127.118 C 281.425 127.878, 281.024 129.114, 281.015 129.865 C 281.007 130.615, 279.811 133.414, 278.358 136.084 C 276.409 139.664, 274.833 141.230, 272.354 142.048 C 261.700 145.564, 253.969 134.499, 254.020 115.807 C 254.075 95.531, 258.981 83.032, 267.513 81.432 C 274.284 80.161, 278.734 83.972, 281.509 93.416 C 282.600 97.128, 283.040 97.528, 286.354 97.810 C 290.518 98.165, 290.592 97.929, 288.892 89.799 C 286.013 76.036, 276.703 67.789, 266.398 69.873 M 523.631 79.750 C 523.317 83.463, 522.792 91.900, 522.464 98.500 C 521.649 114.943, 521.490 115.294, 517.681 109.100 C 513.801 102.790, 509.591 100.534, 503.420 101.460 C 492.584 103.085, 485.676 117.092, 484.327 140.179 C 482.765 166.894, 491.658 186, 505.654 186 C 508.224 186, 509.927 185.073, 513 182 C 515.200 179.800, 517 177.523, 517 176.941 C 517 176.359, 517.450 176.160, 518 176.500 C 518.550 176.840, 519 179.341, 519 182.059 L 519 187 522.500 187 C 525.473 187, 525.995 186.661, 525.968 184.750 C 525.950 183.512, 527.169 158.285, 528.678 128.689 C 531.642 70.512, 531.749 73.054, 526.351 73.015 C 524.420 73.002, 524.145 73.682, 523.631 79.750 M 314.784 77.078 C 303.328 79.781, 296.024 96.886, 296.028 121 C 296.031 137.654, 299.487 148.821, 306.765 155.685 C 311.060 159.735, 319.874 162.673, 322.891 161.058 C 323.979 160.476, 325.686 159.991, 326.684 159.981 C 328.756 159.959, 334.863 154.722, 337.156 151 C 339.492 147.210, 341.325 140.918, 340.358 140.013 C 339.886 139.572, 338.057 138.907, 336.293 138.535 C 333.355 137.917, 332.966 138.139, 331.672 141.180 C 329.223 146.929, 325.541 149.510, 319.907 149.427 C 315.901 149.367, 314.418 148.817, 311.987 146.487 C 307.374 142.068, 304.921 136.001, 304.271 127.403 L 303.692 119.747 310.096 120.284 C 313.618 120.579, 322.100 121.533, 328.945 122.404 C 338.805 123.658, 341.554 123.729, 342.180 122.744 C 344.438 119.187, 341.736 97.671, 338.044 89.818 C 335.264 83.902, 329.443 78.434, 324.500 77.095 C 319.989 75.873, 319.892 75.872, 314.784 77.078 M 312.315 90.750 C 307.383 95.204, 303.264 105.809, 305.846 107.405 C 306.410 107.753, 312.413 108.718, 319.186 109.548 C 325.959 110.379, 332.175 111.157, 333 111.279 C 335.361 111.627, 334.737 102.365, 332.043 97.085 C 328.592 90.320, 325.525 88, 320.034 88 C 316.340 88, 314.722 88.577, 312.315 90.750 M 423.115 92.639 C 418.404 94.694, 414.296 99.077, 411.801 104.713 C 408.922 111.214, 408.145 114.790, 407.042 126.631 C 405.280 145.548, 408.514 160.976, 415.878 168.786 C 429.424 183.152, 446.888 175.009, 451.939 151.971 C 454.891 138.509, 454.340 117.914, 450.775 108.500 C 449.411 104.897, 444.219 96.999, 442.053 95.233 C 436.935 91.060, 429.174 89.997, 423.115 92.639 M 663.590 94.250 C 662.915 97.635, 657.715 204.049, 658.201 204.534 C 658.675 205.008, 668.684 206.570, 680.219 207.969 C 688.545 208.979, 698.067 207.971, 700.842 205.785 C 706.631 201.226, 709.317 196.354, 711.063 187.245 C 713.590 174.062, 710.966 161.587, 703.997 153.649 L 700.705 149.900 703.733 146.700 C 709.236 140.885, 710.500 136.726, 710.500 124.429 C 710.500 114.089, 710.301 112.970, 707.488 107.470 C 702.474 97.664, 697.948 95.583, 676.026 92.999 C 664.444 91.634, 664.104 91.668, 663.590 94.250 M 424.916 104.278 C 414.506 111.293, 410.345 139.936, 417.617 154.525 C 420.900 161.112, 423.966 163.796, 429.172 164.640 C 432.403 165.165, 433.279 164.784, 437.241 161.132 C 443.254 155.590, 445.068 149.853, 445.741 134.253 C 446.215 123.276, 446.037 121.356, 444.022 115.753 C 441.451 108.603, 438.875 105.328, 434.282 103.371 C 429.938 101.520, 428.852 101.625, 424.916 104.278 M 671.700 105.339 C 671.266 106.471, 669.714 131.486, 669.521 140.459 C 669.492 141.781, 680.092 143.862, 688.226 144.131 C 696.009 144.389, 697.671 143.377, 701.099 136.295 C 702.902 132.570, 703.172 130.619, 702.776 124.178 C 702.281 116.134, 699.284 109, 696.401 109 C 695.631 109, 695 108.609, 695 108.131 C 695 107.653, 691.063 106.735, 686.250 106.090 C 681.438 105.446, 676.326 104.672, 674.891 104.370 C 673.103 103.994, 672.099 104.299, 671.700 105.339 M 222.500 107.929 C 221.400 108.370, 217.387 109.060, 213.583 109.463 C 202.563 110.629, 199.634 112.523, 198.475 119.228 C 196.939 128.123, 201.908 135, 209.869 135 C 218.205 135, 223.894 129.112, 226.025 118.278 C 227.184 112.385, 226.798 106.927, 225.231 107.063 C 224.829 107.098, 223.600 107.488, 222.500 107.929 M 557 109.655 C 556.175 109.995, 553.416 112.356, 550.868 114.900 C 544.021 121.739, 540.958 131.900, 540.288 150 C 539.431 173.148, 543.915 185.391, 555.508 191.555 C 565.667 196.957, 576.536 192.881, 581.896 181.659 C 585.209 174.723, 585.497 172.282, 583.085 171.594 C 581.938 171.267, 580.117 170.750, 579.037 170.444 C 577.512 170.013, 576.757 170.645, 575.657 173.279 C 573.141 179.300, 569.560 182, 564.089 182 C 557.987 182, 555.006 179.756, 551.449 172.485 C 549.367 168.229, 548.744 165.410, 548.637 159.759 L 548.500 152.500 552.500 152.713 C 554.700 152.831, 563.025 153.776, 571 154.814 C 578.975 155.852, 585.725 156.502, 586 156.258 C 587.165 155.224, 586.139 135.994, 584.600 130.033 C 582.686 122.620, 578.124 114.936, 573.814 111.868 C 570.807 109.726, 560.207 108.331, 557 109.655 M 500.792 115.020 C 498.455 116.947, 496.303 120.113, 494.845 123.770 C 492.817 128.857, 492.557 131.239, 492.530 145 C 492.502 159.458, 492.663 160.818, 494.920 165.235 C 496.251 167.840, 498.328 170.899, 499.535 172.033 C 502.193 174.530, 509.012 175.064, 511.532 172.973 C 517.356 168.140, 520.962 156.630, 520.985 142.799 C 521.013 126.345, 516.645 115.409, 509.148 113.163 C 504.240 111.692, 505.046 111.513, 500.792 115.020 M 834.574 120.290 C 833.721 129.483, 828.808 227.143, 829.181 227.505 C 829.356 227.675, 831.075 227.969, 833 228.157 L 836.500 228.500 837.270 213.056 C 838.018 198.061, 838.132 197.470, 841.168 192.739 C 843.711 188.776, 844.526 188.112, 845.533 189.183 C 846.215 189.907, 849.840 199.800, 853.590 211.167 L 860.408 231.834 864.796 232.492 C 867.209 232.854, 869.316 233.004, 869.478 232.825 C 869.753 232.523, 866.146 221.734, 856.081 192.747 C 853.836 186.284, 852 180.366, 852 179.597 C 852 178.440, 860.068 166.683, 862.017 165 C 862.336 164.725, 863.687 162.925, 865.021 161 C 866.355 159.075, 868.245 156.628, 869.223 155.561 C 871.803 152.747, 871.417 151.333, 867.875 150.625 C 862.708 149.592, 862.223 149.814, 858.864 154.750 C 857.086 157.363, 855.356 159.725, 855.018 160 C 854.680 160.275, 853.322 162.075, 852 164 C 850.678 165.925, 849.320 167.725, 848.982 168 C 848.644 168.275, 846.862 170.750, 845.022 173.500 C 843.182 176.250, 841.516 178.695, 841.321 178.933 C 841.126 179.172, 840.544 178.944, 840.027 178.427 C 839.442 177.842, 839.691 165.907, 840.691 146.724 C 841.572 129.804, 842.115 115.808, 841.897 115.624 C 841.678 115.439, 840.071 115.016, 838.325 114.684 L 835.151 114.080 834.574 120.290 M 600 117.003 C 600 118.233, 599.077 136.562, 597.949 157.735 C 596.821 178.908, 596.033 196.361, 596.199 196.520 C 596.365 196.679, 598.075 196.965, 600 197.155 L 603.500 197.500 604.678 174.500 C 606.348 141.890, 607.629 134.892, 612.961 129.242 C 614.586 127.521, 615.733 127.142, 617.796 127.646 C 619.283 128.010, 620.729 128.653, 621.009 129.074 C 622.601 131.466, 624.302 130.125, 625.503 125.531 C 626.720 120.878, 626.670 120.448, 624.717 118.754 C 619.859 114.541, 613.505 115.791, 610.391 121.572 C 607.912 126.176, 607 125.888, 607 120.500 C 607 117.574, 606.563 115.995, 605.750 115.986 C 605.063 115.979, 603.487 115.701, 602.250 115.370 C 600.408 114.876, 600 115.172, 600 117.003 M 556.870 122.956 C 552.827 126.288, 548.559 135.106, 549.389 138.412 C 549.879 140.365, 551.037 140.725, 560.717 141.932 C 566.648 142.671, 573.075 143.326, 575 143.388 L 578.500 143.500 578.334 138.705 C 578.001 129.077, 570.841 120, 563.580 120 C 561.594 120, 559.149 121.077, 556.870 122.956 M 739.896 133.810 C 732.748 135.704, 727.554 142.190, 725.529 151.750 C 724.932 154.571, 725.108 155, 726.862 155 C 727.973 155, 729.160 155.450, 729.500 156 C 730.846 158.179, 732.611 156.774, 734.220 152.242 C 735.342 149.085, 736.902 146.898, 738.859 145.742 C 742.244 143.743, 744.067 143.613, 749.105 145.013 C 755.849 146.886, 759.001 151.424, 759.163 159.494 C 759.328 167.717, 758.105 168.537, 744.145 169.559 C 734.529 170.263, 731.845 171.155, 728.108 174.892 C 719.439 183.561, 719.397 204.771, 728.034 212.817 C 731.426 215.977, 739.674 218.488, 742.352 217.177 C 743.533 216.599, 745.466 215.857, 746.647 215.528 C 747.828 215.200, 750.477 213.343, 752.534 211.403 C 754.592 209.463, 756.635 208.241, 757.074 208.687 C 757.514 209.134, 758.015 211.525, 758.187 214 C 758.495 218.426, 758.562 218.505, 762.307 218.814 L 766.114 219.128 765.415 212.952 C 765.031 209.556, 765.282 194.340, 765.973 179.139 C 767.166 152.919, 767.134 151.220, 765.365 146.048 C 762.798 138.545, 756.567 133.964, 748.248 133.465 C 745.087 133.275, 741.328 133.431, 739.896 133.810 M 794.750 141.638 C 793.788 141.918, 793 142.564, 793 143.073 C 793 143.583, 792.452 144, 791.782 144 C 788.356 144, 783.008 153.760, 780.275 165 C 777.974 174.465, 778.063 197.681, 780.429 205 C 783.629 214.899, 787.824 220.771, 793.673 223.538 C 799.686 226.383, 801.482 226.532, 806.167 224.575 C 812.856 221.780, 818.907 212.796, 820.459 203.353 C 821.182 198.957, 820.978 198.629, 816.925 197.663 C 814.535 197.094, 814.229 197.433, 812.668 202.383 C 809.104 213.692, 800.912 217.373, 793.600 210.953 C 788.084 206.111, 786.489 200.008, 786.557 184 C 786.626 167.691, 788.637 160.544, 794.645 155.250 C 803.039 147.854, 811.236 152.826, 814.429 167.250 C 814.873 169.253, 815.644 169.996, 817.269 169.985 C 821.821 169.953, 822.481 168.686, 821.287 162.269 C 819.837 154.468, 816.637 148.161, 812.294 144.539 C 809.316 142.056, 807.755 141.542, 802.621 141.354 C 799.255 141.231, 795.712 141.359, 794.750 141.638 M 668.572 159.157 C 668.245 162.096, 667.870 171.223, 667.738 179.441 L 667.500 194.382 671.029 195.130 C 672.971 195.541, 678.371 196.299, 683.029 196.814 C 694.146 198.044, 697.273 196.756, 700.617 189.576 C 703.770 182.805, 703.968 170.817, 701.023 165.044 C 697.448 158.038, 692.941 156.114, 676.334 154.507 L 669.167 153.814 668.572 159.157 M 891.385 156.214 C 884.932 161.167, 882.579 165.389, 879.522 177.500 C 877.046 187.311, 876.967 207.253, 879.371 215.940 C 882.569 227.497, 886.187 232.759, 892.872 235.578 C 898.993 238.159, 904.724 236.709, 908.779 231.554 C 909.854 230.187, 911.019 229.353, 911.367 229.701 C 913.152 231.486, 911.240 246.585, 908.496 252.368 C 905.658 258.348, 897.442 260.831, 891.190 257.598 C 888.401 256.156, 884 249.454, 884 246.649 C 884 244.817, 881.045 243, 878.066 243 C 875.701 243, 875.763 242.585, 876.926 250.621 C 877.900 257.352, 881.459 263.944, 885.576 266.642 C 891.952 270.820, 903.180 271.374, 907.628 267.731 C 915.109 261.603, 917.389 256.375, 919.020 241.615 C 919.967 233.049, 924.153 158.749, 923.706 158.433 C 923.593 158.353, 922.038 158.009, 920.250 157.669 C 917 157.050, 917 157.050, 916.985 161.275 C 916.964 167.038, 915.583 169.098, 914.255 165.346 C 913.071 162.001, 908.420 156.672, 905.316 155.103 C 901.553 153.203, 894.584 153.758, 891.385 156.214 M 937.988 161.250 C 937.982 161.938, 937.087 178.700, 936 198.500 C 933.416 245.576, 933.311 241.612, 937.160 242.382 C 938.898 242.730, 940.545 242.789, 940.820 242.513 C 941.095 242.238, 941.892 231.547, 942.590 218.756 C 944.098 191.132, 945.281 182.920, 948.559 177.316 C 951.678 171.986, 954.285 171.095, 958.233 174.014 C 961.702 176.579, 962.497 175.939, 963.545 169.736 C 964.277 165.400, 963.328 163.793, 958.967 161.986 C 954.920 160.310, 950.802 162.096, 948.391 166.572 C 945.630 171.700, 943.794 170.605, 944.741 164.395 C 945.140 161.781, 944.841 161.189, 942.857 160.658 C 939.309 159.709, 938.001 159.867, 937.988 161.250 M 1171.626 168.750 C 1171.303 173.563, 1170.756 182.563, 1170.410 188.750 C 1170.064 194.938, 1169.463 200, 1169.075 200 C 1168.686 200, 1167.362 198.209, 1166.131 196.020 C 1161.965 188.607, 1154.904 185.775, 1148.422 188.916 C 1137.735 194.096, 1132.728 207.751, 1132.624 232 C 1132.574 243.530, 1132.920 246.668, 1134.990 253.500 C 1137.043 260.274, 1138.192 262.280, 1142.483 266.590 C 1150.201 274.343, 1155.624 274.522, 1162.685 267.256 L 1167 262.816 1167 267.829 C 1167 272.611, 1167.141 272.872, 1170.072 273.516 C 1171.761 273.887, 1173.331 274.003, 1173.560 273.773 C 1173.790 273.543, 1175.088 251.788, 1176.444 225.428 C 1177.801 199.068, 1179.190 173.563, 1179.531 168.750 L 1180.150 160 1176.181 160 L 1172.212 160 1171.626 168.750 M 893.584 168.060 C 887.552 173.356, 885.701 180.061, 885.593 197 C 885.507 210.347, 885.686 211.858, 887.837 216 C 896.068 231.848, 909.360 227.683, 913.509 207.956 C 916.499 193.743, 914.975 179.452, 909.603 171.335 C 904.968 164.331, 899.179 163.148, 893.584 168.060 M 988 165.789 C 978.959 166.972, 971.875 174.860, 968.504 187.500 C 967.623 190.800, 966.654 199.125, 966.348 206 C 965.305 229.488, 970.714 243.599, 982.896 249.172 C 994.420 254.444, 1006.215 246.181, 1010.804 229.620 C 1013.299 220.617, 1013.228 191.587, 1010.694 184.322 C 1006.482 172.250, 997.111 164.597, 988 165.789 M 1026.557 174.277 C 1025.624 178.711, 1023.725 227.707, 1024.181 235.571 C 1024.817 246.557, 1027.400 251.811, 1033.902 255.350 C 1036.580 256.808, 1039.857 258, 1041.185 258 C 1044.639 258, 1051.583 253.190, 1053.637 249.375 C 1056.059 244.878, 1057.363 246.254, 1056.626 252.529 C 1056.126 256.783, 1056.309 257.905, 1057.585 258.394 C 1059.134 258.989, 1062.989 259.241, 1063.012 258.750 C 1063.018 258.613, 1063.913 242.300, 1065 222.500 C 1067.656 174.115, 1067.744 177.338, 1063.750 176.741 C 1061.963 176.474, 1060.246 176.651, 1059.936 177.135 C 1059.626 177.620, 1058.806 189.516, 1058.113 203.573 C 1056.715 231.939, 1055.735 237.018, 1050.606 242.456 C 1047.724 245.513, 1046.634 246, 1042.683 246 C 1038.626 246, 1037.797 245.601, 1035.444 242.515 C 1031.618 237.500, 1031.245 231.519, 1032.836 200.693 C 1033.598 185.950, 1034.058 173.752, 1033.860 173.587 C 1033.662 173.422, 1032.043 173.010, 1030.262 172.671 C 1027.477 172.141, 1026.959 172.366, 1026.557 174.277 M 985.309 178.427 C 978.243 181.586, 974.040 193.603, 974.015 210.712 C 973.991 226.866, 978.799 236.863, 987.500 238.753 C 996.469 240.702, 1002.740 232.467, 1005.093 215.653 C 1008.528 191.098, 998.628 172.472, 985.309 178.427 M 751 179.598 C 747.975 180.322, 743.993 180.934, 742.151 180.958 C 737.546 181.016, 732.505 183.596, 731.139 186.595 C 729.369 190.479, 729.774 197.118, 732.004 200.775 C 734.472 204.823, 738.139 206.323, 744 205.682 C 747.730 205.275, 749.139 204.471, 752.233 200.986 C 754.287 198.673, 756.422 195.142, 756.978 193.140 C 758.159 188.888, 758.339 179.307, 757.250 178.699 C 756.837 178.469, 754.025 178.873, 751 179.598 M 1081.988 183.687 C 1081.982 185.784, 1081.082 203.888, 1079.989 223.917 C 1078.896 243.947, 1078.194 260.527, 1078.429 260.762 C 1078.664 260.997, 1080.351 261.259, 1082.178 261.345 L 1085.500 261.500 1086.657 239.500 C 1088.176 210.622, 1088.623 206.640, 1090.935 201.414 C 1095.861 190.279, 1105.561 188.651, 1111.279 198 C 1113.920 202.319, 1114.100 207.741, 1112.541 236 C 1111.706 251.125, 1111.018 264.063, 1111.012 264.750 C 1111.004 265.536, 1112.432 266, 1114.859 266 L 1118.718 266 1119.399 253.250 C 1121.767 208.918, 1121.890 203.377, 1120.637 197.301 C 1118.371 186.304, 1111.217 180.161, 1102.104 181.388 C 1098.414 181.884, 1096.706 182.839, 1093.500 186.198 L 1089.500 190.389 1089 185.444 C 1088.522 180.718, 1088.357 180.486, 1085.250 180.187 C 1082.098 179.883, 1082 179.989, 1081.988 183.687 M 1151.082 199.686 C 1148.429 200.794, 1145.048 205.487, 1142.928 211 C 1140.279 217.890, 1139.147 236.795, 1140.895 244.948 C 1142.156 250.824, 1146.724 258.995, 1148.750 258.998 C 1149.438 258.999, 1150 259.450, 1150 260 C 1150 260.550, 1151.645 261, 1153.656 261 C 1159.174 261, 1163.249 257.337, 1166.106 249.809 C 1168.245 244.173, 1168.500 241.899, 1168.500 228.500 C 1168.500 213.822, 1168.438 213.388, 1165.603 208.272 C 1164.010 205.397, 1161.985 202.397, 1161.103 201.607 C 1159.274 199.967, 1153.198 198.802, 1151.082 199.686" stroke="none" fill="#f4eafa" fill-rule="evenodd"/></svg>