<svg xmlns="http://www.w3.org/2000/svg" width="205" height="128" viewBox="0 0 205 128" version="1.1"><path d="M 7.049 1.017 C 2.629 2.058, 1.263 4.006, 0.495 10.362 C 0.154 13.188, 0.015 39.350, 0.187 68.500 L 0.500 121.500 1.779 123.738 C 2.482 124.969, 4.282 126.319, 5.779 126.738 C 7.275 127.157, 51.250 127.500, 103.500 127.500 L 198.500 127.500 200.738 126.221 L 202.976 124.942 203.549 122.221 C 203.863 120.725, 204.544 118.719, 205.060 117.764 L 206 116.027 206 62.455 L 206 8.882 205 9.500 L 204 10.118 204 7.750 C 204 4.186, 201.889 1.993, 197.473 0.969 L 193.500 0.048 102 0.126 L 10.500 0.205 7.049 1.017 M 109.432 9.510 C 105.121 11.403, 104.015 13.077, 103.346 18.724 L 102.762 23.659 105.984 27.330 L 109.207 31 114.500 31 L 119.793 31 123.016 27.330 L 126.238 23.659 125.654 18.724 C 124.970 12.950, 123.893 11.400, 119.207 9.442 C 115.084 7.719, 113.485 7.731, 109.432 9.510 M 0.466 64 C 0.466 93.975, 0.594 106.237, 0.749 91.250 C 0.905 76.262, 0.905 51.737, 0.749 36.750 C 0.594 21.762, 0.466 34.025, 0.466 64 M 110.758 12.120 L 107.030 14.032 106.431 16.766 C 106.102 18.270, 105.660 20.063, 105.448 20.751 C 105.236 21.439, 106.445 23.576, 108.135 25.501 L 111.207 29 114.500 29 L 117.793 29 120.865 25.501 C 122.555 23.576, 123.764 21.439, 123.552 20.751 C 123.340 20.063, 122.897 18.268, 122.568 16.762 L 121.968 14.024 118.227 12.116 L 114.486 10.207 110.758 12.120 M 130 20.500 L 130 28 131.500 28 L 133 28 133.076 24.250 L 133.152 20.500 134.415 24 L 135.677 27.500 137.293 27.815 L 138.909 28.129 139.864 24.815 L 140.820 21.500 140.910 24.750 L 141 28 143 28 L 145 28 145 20.430 L 145 12.861 142.874 13.180 L 140.747 13.500 139.023 17.925 L 137.299 22.350 135.514 17.675 L 133.728 13 131.864 13 L 130 13 130 20.500 M 146 14 C 146 14.550, 146.900 15, 148 15 L 150 15 150 21.500 L 150 28 152 28 L 154 28 154 21.500 L 154 15 156.301 15 L 158.601 15 160.819 19.565 C 163.090 24.238, 162.986 26, 160.441 26 C 159.648 26, 159 26.480, 159 27.066 L 159 28.133 161.726 27.816 L 164.452 27.500 167.661 21 C 171.392 13.443, 171.494 13, 169.513 13 L 168.027 13 166.437 16.750 L 164.846 20.500 162.673 16.760 L 160.500 13.020 153.250 13.010 L 146 13 146 14 M 173 15 L 171 17 171 20.500 L 171 24 173 26 L 175 28 178 28 L 181 28 183.239 25.761 L 185.477 23.523 183.664 23.174 C 182.667 22.982, 181.050 23.550, 180.070 24.436 L 178.289 26.048 176.636 25.414 C 175.727 25.065, 174.705 23.671, 174.364 22.316 L 173.746 19.853 174.852 17.426 C 176.108 14.668, 178.172 14.297, 180 16.500 C 181.592 18.419, 184 18.440, 184 16.535 C 184 14.693, 180.919 13, 177.566 13 L 175 13 173 15 M 186 20.500 L 186 28 187.750 27.992 L 189.500 27.985 192 23.742 L 194.500 19.500 194.807 23.750 L 195.115 28 197.057 28 L 199 28 199 20.500 L 199 13 197.118 13 L 195.237 13 192.130 17.750 L 189.024 22.500 189.012 17.750 L 189 13 187.500 13 L 186 13 186 20.500 M 11 63 L 11 111 51.500 111 L 92 111 92 63 L 92 15 51.500 15 L 11 15 11 63 M 108 52 L 108 61 150.500 61 L 193 61 193 52 L 193 43 150.500 43 L 108 43 108 52 M 108 76 L 108 85 150.500 85 L 193 85 193 76 L 193 67 150.500 67 L 108 67 108 76 M 108 100 L 108 109 150.500 109 L 193 109 193 100 L 193 91 150.500 91 L 108 91 108 100" stroke="none" fill="#ffffff" fill-rule="evenodd"/><path d="" stroke="none" fill="#8c85b2" fill-rule="evenodd"/><path d="" stroke="none" fill="#d7d4e4" fill-rule="evenodd"/><path d="" stroke="none" fill="#564c8f" fill-rule="evenodd"/><path d="" stroke="none" fill="#d9d6e6" fill-rule="evenodd"/><path d="M 188.300 18 C 188.300 21.025, 188.487 22.263, 188.716 20.750 C 188.945 19.238, 188.945 16.763, 188.716 15.250 C 188.487 13.738, 188.300 14.975, 188.300 18 M 132.300 23 C 132.300 26.025, 132.487 27.263, 132.716 25.750 C 132.945 24.238, 132.945 21.763, 132.716 20.250 C 132.487 18.738, 132.300 19.975, 132.300 23 M 173.079 20.583 L 173.158 22.500 173.683 21.188 C 173.972 20.466, 173.936 19.603, 173.604 19.271 C 173.272 18.939, 173.036 19.529, 173.079 20.583" stroke="none" fill="#cbc8dc" fill-rule="evenodd"/><path d="" stroke="none" fill="#e6e5ee" fill-rule="evenodd"/><path d="" stroke="none" fill="#7c74a8" fill-rule="evenodd"/><path d="" stroke="none" fill="#5b5192" fill-rule="evenodd"/><path d="" stroke="none" fill="#7b73a7" fill-rule="evenodd"/><path d="" stroke="none" fill="#b6b2cf" fill-rule="evenodd"/><path d="M 198.343 20.500 C 198.346 24.900, 198.522 26.576, 198.733 24.224 C 198.945 21.872, 198.942 18.272, 198.727 16.224 C 198.512 14.176, 198.339 16.100, 198.343 20.500 M 153.328 21.500 L 153.336 28.500 153.730 24.728 C 153.946 22.653, 153.943 19.503, 153.722 17.728 C 153.501 15.952, 153.324 17.650, 153.328 21.500 M 141.286 23.500 L 141.300 28.500 141.718 25.736 C 141.947 24.216, 141.941 21.966, 141.704 20.736 C 141.467 19.506, 141.279 20.750, 141.286 23.500" stroke="none" fill="#f9f8fb" fill-rule="evenodd"/><path d="" stroke="none" fill="#bebad4" fill-rule="evenodd"/><path d="M 144.343 20.500 C 144.346 24.900, 144.522 26.576, 144.733 24.224 C 144.945 21.872, 144.942 18.272, 144.727 16.224 C 144.512 14.176, 144.339 16.100, 144.343 20.500 M 150.328 21.500 L 150.336 28.500 150.730 24.728 C 150.946 22.653, 150.943 19.503, 150.722 17.728 C 150.501 15.952, 150.324 17.650, 150.328 21.500 M 195.300 23 C 195.300 26.025, 195.487 27.263, 195.716 25.750 C 195.945 24.238, 195.945 21.763, 195.716 20.250 C 195.487 18.738, 195.300 19.975, 195.300 23" stroke="none" fill="#efeef4" fill-rule="evenodd"/><path d="" stroke="none" fill="#dddbe8" fill-rule="evenodd"/><path d="" stroke="none" fill="#342877" fill-rule="evenodd"/><path d="" stroke="none" fill="#9791ba" fill-rule="evenodd"/><path d="" stroke="none" fill="#b4b0cd" fill-rule="evenodd"/><path d="" stroke="none" fill="#d8d5e5" fill-rule="evenodd"/><path d="" stroke="none" fill="#e7e6ef" fill-rule="evenodd"/><path d="" stroke="none" fill="#d3d0e1" fill-rule="evenodd"/><path d="M 130.343 20.500 C 130.346 24.900, 130.522 26.576, 130.733 24.224 C 130.945 21.872, 130.942 18.272, 130.727 16.224 C 130.512 14.176, 130.339 16.100, 130.343 20.500 M 186.343 20.500 C 186.346 24.900, 186.522 26.576, 186.733 24.224 C 186.945 21.872, 186.942 18.272, 186.727 16.224 C 186.512 14.176, 186.339 16.100, 186.343 20.500 M 171.079 20.583 L 171.158 22.500 171.683 21.188 C 171.972 20.466, 171.936 19.603, 171.604 19.271 C 171.272 18.939, 171.036 19.529, 171.079 20.583" stroke="none" fill="#b2aecc" fill-rule="evenodd"/><path d="" stroke="none" fill="#b8b3cf" fill-rule="evenodd"/><path d="" stroke="none" fill="#d2cfe1" fill-rule="evenodd"/><path d="" stroke="none" fill="#a09ac0" fill-rule="evenodd"/><path d="" stroke="none" fill="#6f679f" fill-rule="evenodd"/><path d="" stroke="none" fill="#7168a0" fill-rule="evenodd"/><path d="" stroke="none" fill="#7168a0" fill-rule="evenodd"/><path d="" stroke="none" fill="#5e5494" fill-rule="evenodd"/><path d="" stroke="none" fill="#5e5494" fill-rule="evenodd"/><path d="" stroke="none" fill="#6c639d" fill-rule="evenodd"/><path d="" stroke="none" fill="#675e9a" fill-rule="evenodd"/><path d="" stroke="none" fill="#5e5494" fill-rule="evenodd"/><path d="" stroke="none" fill="#7168a0" fill-rule="evenodd"/><path d="" stroke="none" fill="#7168a0" fill-rule="evenodd"/><path d="" stroke="none" fill="#5e5494" fill-rule="evenodd"/><path d="" stroke="none" fill="#8880af" fill-rule="evenodd"/><path d="" stroke="none" fill="#4e4489" fill-rule="evenodd"/><path d="" stroke="none" fill="#342878" fill-rule="evenodd"/><path d="M 109.879 10.291 L 105.500 12.500 104.387 17 L 103.275 21.500 104.617 24.162 C 105.356 25.626, 107.155 27.763, 108.615 28.912 L 111.270 31 114.412 31 C 118.173 31, 121.524 28.831, 123.965 24.818 L 125.758 21.869 124.827 17.684 C 123.732 12.766, 122.739 11.609, 117.879 9.588 L 114.259 8.081 109.879 10.291 M 109.704 11.596 C 106.673 13.240, 104.982 16.576, 105.032 20.815 L 105.063 23.500 107.484 26.250 L 109.904 29 114.500 29 L 119.096 29 121.516 26.250 L 123.937 23.500 123.968 20.815 C 123.986 19.338, 123.569 16.997, 123.043 15.613 L 122.086 13.096 119.093 11.548 C 115.395 9.636, 113.300 9.647, 109.704 11.596 M 131 20.500 C 131 24.808, 131.190 28.143, 131.422 27.911 C 132.148 27.185, 132.369 14.035, 131.667 13.333 C 131.300 12.967, 131 16.192, 131 20.500 M 147 14 L 147 15 152 15 L 157 15 157 14 L 157 13 152 13 L 147 13 147 14 M 174.432 15.250 C 173.398 16.488, 173.194 16.938, 173.977 16.250 C 174.759 15.563, 176.638 15, 178.150 15 L 180.901 15 181.920 16.750 C 182.481 17.712, 182.953 18.007, 182.970 17.405 C 183.012 15.877, 179.653 13, 177.826 13 C 176.992 13, 175.465 14.012, 174.432 15.250 M 187.193 20.250 C 187.087 24.513, 187.173 28, 187.385 28 C 187.597 28, 188.575 26.762, 189.560 25.250 L 191.349 22.500 189.724 23.831 L 188.100 25.162 187.743 18.831 L 187.385 12.500 187.193 20.250 M 195.255 14.963 L 194.029 16.926 195.515 16.356 C 196.332 16.043, 197 15.159, 197 14.393 C 197 12.538, 196.711 12.633, 195.255 14.963 M 172.195 20.500 L 172.232 23.500 172.693 21.731 C 172.947 20.758, 172.930 19.408, 172.656 18.731 C 172.382 18.054, 172.175 18.850, 172.195 20.500 M 163.731 23.080 L 164.351 25.448 164.788 24.137 C 165.028 23.415, 164.750 22.350, 164.168 21.768 L 163.112 20.712 163.731 23.080 M 173.551 25.259 C 173.919 26.226, 175.337 27.297, 176.701 27.640 L 179.182 28.262 181.097 26.137 C 182.150 24.968, 182.469 24.459, 181.806 25.006 C 180.120 26.396, 175.648 26.246, 174.141 24.750 L 172.882 23.500 173.551 25.259 M 136.500 26 C 136.840 26.550, 137.316 27, 137.559 27 C 137.802 27, 138 26.550, 138 26 C 138 25.450, 137.523 25, 136.941 25 C 136.359 25, 136.160 25.450, 136.500 26 M 161 27 C 161 27.550, 161.450 28, 162 28 C 162.550 28, 163 27.550, 163 27 C 163 26.450, 162.550 26, 162 26 C 161.450 26, 161 26.450, 161 27" stroke="none" fill="#302475" fill-rule="evenodd"/><path d="" stroke="none" fill="#544b8e" fill-rule="evenodd"/><path d="" stroke="none" fill="#52488c" fill-rule="evenodd"/><path d="" stroke="none" fill="#766ea4" fill-rule="evenodd"/><path d="" stroke="none" fill="#50468b" fill-rule="evenodd"/><path d="" stroke="none" fill="#6f669f" fill-rule="evenodd"/><path d="" stroke="none" fill="#6f669f" fill-rule="evenodd"/><path d="" stroke="none" fill="#6f669f" fill-rule="evenodd"/><path d="" stroke="none" fill="#7c74a8" fill-rule="evenodd"/><path d="" stroke="none" fill="#362a79" fill-rule="evenodd"/><path d="" stroke="none" fill="#685f9b" fill-rule="evenodd"/><path d="" stroke="none" fill="#53498d" fill-rule="evenodd"/><path d="" stroke="none" fill="#766ea4" fill-rule="evenodd"/><path d="" stroke="none" fill="#8b84b1" fill-rule="evenodd"/><path d="" stroke="none" fill="#635a97" fill-rule="evenodd"/><path d="" stroke="none" fill="#827aac" fill-rule="evenodd"/><path d="" stroke="none" fill="#6d659e" fill-rule="evenodd"/><path d="M 141.405 14.155 L 140.691 15.309 141.801 14.623 L 142.911 13.937 143.257 21.218 L 143.603 28.500 143.801 20.750 L 144 13 143.059 13 C 142.541 13, 141.797 13.520, 141.405 14.155 M 151.328 21.500 L 151.336 28.500 151.730 24.728 C 151.946 22.653, 151.943 19.503, 151.722 17.728 C 151.501 15.952, 151.324 17.650, 151.328 21.500 M 196.310 22.500 L 196.320 28.500 196.725 25.232 C 196.947 23.435, 196.943 20.735, 196.715 19.232 C 196.486 17.729, 196.304 19.200, 196.310 22.500" stroke="none" fill="#5d5393" fill-rule="evenodd"/><path d="" stroke="none" fill="#857eae" fill-rule="evenodd"/><path d="" stroke="none" fill="#665e99" fill-rule="evenodd"/><path d="M 157 14.059 C 157 14.641, 157.450 14.840, 158 14.500 C 158.550 14.160, 159 13.684, 159 13.441 C 159 13.198, 158.550 13, 158 13 C 157.450 13, 157 13.477, 157 14.059" stroke="none" fill="#8e87b4" fill-rule="evenodd"/><path d="" stroke="none" fill="#4f458a" fill-rule="evenodd"/><path d="" stroke="none" fill="#332777" fill-rule="evenodd"/><path d="" stroke="none" fill="#332777" fill-rule="evenodd"/><path d="" stroke="none" fill="#392e7b" fill-rule="evenodd"/><path d="" stroke="none" fill="#615795" fill-rule="evenodd"/><path d="" stroke="none" fill="#6d649e" fill-rule="evenodd"/><path d="" stroke="none" fill="#392e7b" fill-rule="evenodd"/><path d="" stroke="none" fill="#776fa4" fill-rule="evenodd"/><path d="" stroke="none" fill="#7b73a7" fill-rule="evenodd"/><path d="" stroke="none" fill="#605795" fill-rule="evenodd"/><path d="" stroke="none" fill="#5c5493" fill-rule="evenodd"/><path d="" stroke="none" fill="#837cad" fill-rule="evenodd"/><path d="" stroke="none" fill="#8179ab" fill-rule="evenodd"/><path d="" stroke="none" fill="#6a619c" fill-rule="evenodd"/><path d="" stroke="none" fill="#8882b0" fill-rule="evenodd"/><path d="" stroke="none" fill="#736ba2" fill-rule="evenodd"/><path d="" stroke="none" fill="#69609b" fill-rule="evenodd"/><path d="" stroke="none" fill="#584e8f" fill-rule="evenodd"/><path d="" stroke="none" fill="#584e90" fill-rule="evenodd"/><path d="" stroke="none" fill="#584e90" fill-rule="evenodd"/><path d="M 159.031 13.500 C 159.031 14.050, 159.467 15.175, 160 16 C 160.533 16.825, 160.969 17.050, 160.969 16.500 C 160.969 15.950, 160.533 14.825, 160 14 C 159.467 13.175, 159.031 12.950, 159.031 13.500 M 166.954 18.086 C 166.340 19.233, 166.026 20.360, 166.257 20.590 C 166.487 20.820, 167.189 19.882, 167.816 18.504 C 169.194 15.480, 168.523 15.154, 166.954 18.086" stroke="none" fill="#483d85" fill-rule="evenodd"/><path d="" stroke="none" fill="#382c7a" fill-rule="evenodd"/><path d="" stroke="none" fill="#352978" fill-rule="evenodd"/><path d="" stroke="none" fill="#342878" fill-rule="evenodd"/><path d="" stroke="none" fill="#342878" fill-rule="evenodd"/><path d="" stroke="none" fill="#322676" fill-rule="evenodd"/><path d="M 109.879 10.291 L 105.500 12.500 104.387 17 L 103.275 21.500 104.617 24.162 C 105.356 25.626, 107.155 27.763, 108.615 28.912 L 111.270 31 114.412 31 C 118.173 31, 121.524 28.831, 123.965 24.818 L 125.758 21.869 124.827 17.684 C 123.732 12.766, 122.739 11.609, 117.879 9.588 L 114.259 8.081 109.879 10.291 M 109.704 11.596 C 106.673 13.240, 104.982 16.576, 105.032 20.815 L 105.063 23.500 107.484 26.250 L 109.904 29 114.500 29 L 119.096 29 121.516 26.250 L 123.937 23.500 123.968 20.815 C 123.986 19.338, 123.569 16.997, 123.043 15.613 L 122.086 13.096 119.093 11.548 C 115.395 9.636, 113.300 9.647, 109.704 11.596 M 131 20.500 C 131 24.808, 131.190 28.143, 131.422 27.911 C 132.148 27.185, 132.369 14.035, 131.667 13.333 C 131.300 12.967, 131 16.192, 131 20.500 M 147 14 L 147 15 152 15 L 157 15 157 14 L 157 13 152 13 L 147 13 147 14 M 174.432 15.250 C 173.398 16.488, 173.194 16.938, 173.977 16.250 C 174.759 15.563, 176.638 15, 178.150 15 L 180.901 15 181.920 16.750 C 182.481 17.712, 182.953 18.007, 182.970 17.405 C 183.012 15.877, 179.653 13, 177.826 13 C 176.992 13, 175.465 14.012, 174.432 15.250 M 187.193 20.250 C 187.087 24.513, 187.173 28, 187.385 28 C 187.597 28, 188.575 26.762, 189.560 25.250 L 191.349 22.500 189.724 23.831 L 188.100 25.162 187.743 18.831 L 187.385 12.500 187.193 20.250 M 195.255 14.963 L 194.029 16.926 195.515 16.356 C 196.332 16.043, 197 15.159, 197 14.393 C 197 12.538, 196.711 12.633, 195.255 14.963 M 172.195 20.500 L 172.232 23.500 172.693 21.731 C 172.947 20.758, 172.930 19.408, 172.656 18.731 C 172.382 18.054, 172.175 18.850, 172.195 20.500 M 163.731 23.080 L 164.351 25.448 164.788 24.137 C 165.028 23.415, 164.750 22.350, 164.168 21.768 L 163.112 20.712 163.731 23.080 M 173.551 25.259 C 173.919 26.226, 175.337 27.297, 176.701 27.640 L 179.182 28.262 181.097 26.137 C 182.150 24.968, 182.469 24.459, 181.806 25.006 C 180.120 26.396, 175.648 26.246, 174.141 24.750 L 172.882 23.500 173.551 25.259 M 136.500 26 C 136.840 26.550, 137.316 27, 137.559 27 C 137.802 27, 138 26.550, 138 26 C 138 25.450, 137.523 25, 136.941 25 C 136.359 25, 136.160 25.450, 136.500 26 M 161 27 C 161 27.550, 161.450 28, 162 28 C 162.550 28, 163 27.550, 163 27 C 163 26.450, 162.550 26, 162 26 C 161.450 26, 161 26.450, 161 27" stroke="none" fill="#302475" fill-rule="evenodd"/><path d="" stroke="none" fill="#6d649e" fill-rule="evenodd"/><path d="" stroke="none" fill="#6d649e" fill-rule="evenodd"/><path d="" stroke="none" fill="#423781" fill-rule="evenodd"/><path d="" stroke="none" fill="#574e8f" fill-rule="evenodd"/><path d="" stroke="none" fill="#423781" fill-rule="evenodd"/><path d="" stroke="none" fill="#4e4489" fill-rule="evenodd"/><path d="M 197.343 20.500 C 197.346 24.900, 197.522 26.576, 197.733 24.224 C 197.945 21.872, 197.942 18.272, 197.727 16.224 C 197.512 14.176, 197.339 16.100, 197.343 20.500 M 152.328 21.500 L 152.336 28.500 152.730 24.728 C 152.946 22.653, 152.943 19.503, 152.722 17.728 C 152.501 15.952, 152.324 17.650, 152.328 21.500 M 180.613 16.183 C 180.902 16.650, 181.557 16.774, 182.069 16.457 C 183.377 15.649, 183.230 15.333, 181.544 15.333 C 180.743 15.333, 180.324 15.716, 180.613 16.183 M 142.320 22 C 142.320 25.575, 142.502 27.038, 142.723 25.250 C 142.945 23.462, 142.945 20.538, 142.723 18.750 C 142.502 16.962, 142.320 18.425, 142.320 22" stroke="none" fill="#7871a5" fill-rule="evenodd"/><path d="" stroke="none" fill="#aca7c7" fill-rule="evenodd"/><path d="" stroke="none" fill="#8079ab" fill-rule="evenodd"/><path d="" stroke="none" fill="#a19cc1" fill-rule="evenodd"/><path d="" stroke="none" fill="#d8d5e5" fill-rule="evenodd"/><path d="" stroke="none" fill="#a29cc1" fill-rule="evenodd"/><path d="" stroke="none" fill="#8179ab" fill-rule="evenodd"/><path d="" stroke="none" fill="#766ea4" fill-rule="evenodd"/><path d="" stroke="none" fill="#423781" fill-rule="evenodd"/><path d="" stroke="none" fill="#312575" fill-rule="evenodd"/><path d="" stroke="none" fill="#8179ab" fill-rule="evenodd"/><path d="M 157 14.059 C 157 14.641, 157.450 14.840, 158 14.500 C 158.550 14.160, 159 13.684, 159 13.441 C 159 13.198, 158.550 13, 158 13 C 157.450 13, 157 13.477, 157 14.059" stroke="none" fill="#8e87b4" fill-rule="evenodd"/><path d="" stroke="none" fill="#a19bc0" fill-rule="evenodd"/><path d="" stroke="none" fill="#453a83" fill-rule="evenodd"/><path d="" stroke="none" fill="#7168a0" fill-rule="evenodd"/><path d="" stroke="none" fill="#827bac" fill-rule="evenodd"/><path d="" stroke="none" fill="#372b7a" fill-rule="evenodd"/><path d="" stroke="none" fill="#dddbe9" fill-rule="evenodd"/><path d="" stroke="none" fill="#8179ab" fill-rule="evenodd"/><path d="" stroke="none" fill="#7e77a9" fill-rule="evenodd"/><path d="" stroke="none" fill="#5a5191" fill-rule="evenodd"/><path d="" stroke="none" fill="#766ea4" fill-rule="evenodd"/><path d="M 108 52 L 108 61 150.500 61 L 193 61 193 52 L 193 43 150.500 43 L 108 43 108 52 M 108 76 L 108 85 150.500 85 L 193 85 193 76 L 193 67 150.500 67 L 108 67 108 76 M 108 100 L 108 109 150.500 109 L 193 109 193 100 L 193 91 150.500 91 L 108 91 108 100" stroke="none" fill="#a3a3a3" fill-rule="evenodd"/><path d="" stroke="none" fill="#44377e" fill-rule="evenodd"/><path d="" stroke="none" fill="#e4e4e5" fill-rule="evenodd"/></svg>