<svg xmlns="http://www.w3.org/2000/svg" width="512" height="432" viewBox="0 0 512 432" version="1.1"><path d="M 126.531 157.481 C 125.954 161.157, 124 180.506, 124 182.539 C 124 183.431, 124.974 184, 126.500 184 C 128.587 184, 129 183.525, 129 181.125 C 129 179.544, 129.258 176.956, 129.573 175.375 L 130.145 172.500 138.916 172.817 C 147.177 173.115, 147.871 172.979, 150.844 170.478 C 153.250 168.454, 154 167.011, 154 164.411 C 154 157.971, 148.928 155.441, 134.752 154.808 L 127.004 154.461 126.531 157.481 M 160.584 160.250 C 159.907 164.601, 158 182.434, 158 184.420 C 158 185.405, 158.872 186, 160.316 186 C 162.554 186, 162.672 185.571, 163.821 173.250 C 165.359 156.762, 165.370 157, 163.045 157 C 161.611 157, 160.956 157.864, 160.584 160.250 M 130.794 163.131 C 130.565 166.084, 130.421 168.590, 130.473 168.700 C 130.524 168.810, 133.575 169.208, 137.253 169.585 C 145.433 170.423, 149 168.731, 149 164.012 C 149 160.252, 147.251 159.343, 138.324 158.463 L 131.209 157.762 130.794 163.131 M 255.990 163.250 C 255.985 163.387, 255.318 169.350, 254.510 176.500 C 252.627 193.141, 252.624 193, 254.893 193 C 257.083 193, 257.998 191.138, 258.006 186.668 C 258.016 180.849, 259.938 175.974, 262.625 174.952 C 264.003 174.429, 265.776 174, 266.565 174 C 268.538 174, 272.043 177.669, 271.559 179.227 C 271.342 179.927, 270.886 183.571, 270.546 187.324 C 269.942 194.010, 269.976 194.142, 272.215 193.824 C 274.321 193.525, 274.570 192.800, 275.388 184.567 L 276.276 175.634 273.582 173.317 C 270.722 170.856, 266.773 170.375, 262.565 171.975 C 260.025 172.941, 260 172.903, 260 167.975 C 260 163.667, 259.732 163, 258 163 C 256.900 163, 255.996 163.113, 255.990 163.250 M 176.376 166.086 C 172.827 167.115, 170.517 169.409, 171.473 170.956 C 172.401 172.458, 174.555 172.241, 176 170.500 C 177.254 168.988, 183.427 168.459, 186.418 169.607 C 187.288 169.941, 188 171.027, 188 172.022 C 188 173.546, 186.796 173.942, 180.320 174.549 C 174.215 175.121, 172.165 175.744, 170.320 177.589 C 167.496 180.413, 167.462 181.047, 169.968 184.232 C 172.280 187.171, 178.059 188.417, 182.916 187.024 C 185.439 186.301, 186.759 186.451, 188.630 187.677 C 189.968 188.554, 191.212 189.097, 191.395 188.885 C 191.578 188.673, 192.023 184.436, 192.384 179.468 C 193.148 168.935, 192.457 167.356, 186.473 165.969 C 181.758 164.876, 180.501 164.890, 176.376 166.086 M 205 168.306 C 201.027 169.661, 198.004 174.546, 198.002 179.615 C 197.997 188.475, 210.652 192.995, 218.399 186.901 C 221.504 184.459, 221.669 183.408, 219.057 182.725 C 217.902 182.423, 216.419 182.984, 215.402 184.108 C 213.381 186.341, 207.285 186.660, 204.571 184.675 C 202.181 182.928, 202.196 175.546, 204.594 172.896 C 207.041 170.192, 214.520 170.259, 216.232 173 C 217.667 175.298, 221 175.698, 221 173.571 C 221 170.541, 215.294 166.937, 210.685 167.056 C 209.483 167.087, 206.925 167.650, 205 168.306 M 311.977 181.250 C 311.260 189.088, 310.729 195.725, 310.797 196 C 311.013 196.873, 314.999 197.175, 315.020 196.320 C 315.030 195.869, 315.701 189.650, 316.510 182.500 C 318.367 166.082, 318.418 167, 315.640 167 C 313.332 167, 313.252 167.311, 311.977 181.250 M 230.014 170.752 C 228.097 171.713, 225.966 173.625, 225.279 175 C 223.756 178.047, 223.635 183.449, 225.030 186.055 C 227.977 191.563, 240.426 193.118, 245.643 188.631 C 248.377 186.279, 248.381 186.256, 246.209 185.566 C 244.843 185.133, 243.182 185.460, 241.788 186.436 C 238.389 188.817, 233.328 188.419, 230.455 185.545 C 226.073 181.164, 227.029 180.636, 238.029 181.357 C 249.114 182.083, 250.036 181.626, 248.267 176.283 C 246.174 169.962, 237.082 167.206, 230.014 170.752 M 341.985 172.250 C 341.960 177.401, 340.921 178.306, 337.174 176.437 C 328.677 172.198, 319.463 180.851, 322.142 190.552 C 323.771 196.453, 331.719 199.827, 337.148 196.921 C 338.760 196.058, 339.434 196.208, 340.515 197.671 C 342.754 200.703, 343.790 198.209, 344.948 187 C 345.545 181.225, 346.290 174.813, 346.604 172.750 C 347.140 169.236, 347.013 169, 344.588 169 C 342.338 169, 341.998 169.425, 341.985 172.250 M 231.750 173.572 C 226.656 176.336, 229.234 177.962, 238.750 177.986 C 244.868 178.002, 245.887 176.027, 241.050 173.526 C 237.406 171.641, 235.289 171.652, 231.750 173.572 M 286.763 174.508 C 283.423 176.390, 281 180.822, 281 185.050 C 281 187.299, 281.973 189.173, 284.400 191.600 C 287.471 194.671, 288.351 195, 293.500 195 C 298.649 195, 299.529 194.671, 302.600 191.600 C 305.439 188.761, 306 187.472, 306 183.787 C 306 177.475, 302.063 173.803, 294.772 173.317 C 291.298 173.085, 288.566 173.491, 286.763 174.508 M 288.456 178.284 C 284.944 181.305, 284.712 187.538, 288.011 190.210 C 290.455 192.189, 295.103 192.550, 298.022 190.988 C 300.456 189.686, 302.176 183.593, 300.991 180.476 C 299.165 175.675, 292.786 174.560, 288.456 178.284 M 180.331 177.734 C 177.437 177.939, 174.633 178.737, 173.959 179.549 C 170.523 183.689, 181.979 186.021, 186 182 C 188.230 179.770, 188.677 176.900, 186.750 177.185 C 186.063 177.287, 183.174 177.534, 180.331 177.734 M 358.538 178.497 C 353.139 180.423, 351.049 183.425, 351.022 189.298 C 351.004 193.207, 351.486 194.546, 353.622 196.525 C 356.636 199.319, 361.542 200.498, 366.680 199.665 C 370.048 199.118, 374 196.574, 374 194.952 C 374 193.111, 370.627 193.216, 368.028 195.137 C 364.501 197.745, 358.854 197.057, 356.529 193.738 C 353.500 189.414, 354.283 189.040, 365 189.693 L 375 190.302 375 186.740 C 375 183.990, 374.299 182.588, 371.923 180.589 C 370.231 179.165, 368.018 178, 367.005 178 C 365.992 178, 364.564 177.794, 363.832 177.542 C 363.099 177.290, 360.717 177.719, 358.538 178.497 M 328.073 181.635 C 323.684 187.215, 326.739 194.400, 333.500 194.400 C 338.116 194.400, 341 191.320, 341 186.389 C 341 179.330, 332.380 176.159, 328.073 181.635 M 389.047 179.950 C 388.248 180.455, 386.395 180.629, 384.930 180.336 C 381.760 179.702, 381.474 180.492, 380.439 192.750 C 379.771 200.648, 379.830 201, 381.810 201 C 383.525 201, 383.981 200.190, 384.483 196.250 C 385.696 186.730, 386.080 185.179, 387.517 183.986 C 388.323 183.317, 390.319 182.967, 391.952 183.206 C 395.467 183.722, 396.884 181.544, 394.029 180.015 C 391.714 178.777, 390.918 178.766, 389.047 179.950 M 357.494 183.006 C 356.496 184.110, 355.864 185.191, 356.089 185.409 C 356.315 185.627, 359.650 185.944, 363.500 186.113 C 369.217 186.364, 370.444 186.152, 370.195 184.960 C 369.323 180.786, 360.704 179.460, 357.494 183.006 M 128.980 201.799 C 128.970 202.184, 128.299 208.350, 127.490 215.500 C 125.633 231.921, 125.581 231, 128.371 231 C 130.522 231, 130.804 230.453, 131.410 225.092 L 132.079 219.183 140.960 219.342 C 151.831 219.535, 155.296 217.719, 155.816 211.553 C 156.188 207.150, 154.265 204.532, 149.629 203.127 C 145.681 201.931, 129.007 200.858, 128.980 201.799 M 133 210.217 L 133 215.722 139.250 216.292 C 147.170 217.014, 150.386 215.655, 150.801 211.408 C 151.223 207.089, 149.310 205.945, 140.560 205.283 L 133 204.711 133 210.217 M 167.313 212.102 C 162.586 213.470, 160 217.340, 160 223.046 C 160 227.136, 160.436 228.189, 163.029 230.371 C 168.021 234.572, 175.210 234.993, 180.750 231.409 C 181.988 230.609, 183 229.562, 183 229.084 C 183 227.382, 179.684 226.976, 178.027 228.476 C 176.293 230.045, 169.355 230.540, 167.400 229.235 C 166.252 228.468, 164 224.634, 164 223.446 C 164 223.069, 168.725 223.083, 174.500 223.477 C 186.206 224.275, 186.355 224.179, 183.623 217.640 C 181.343 212.184, 174.759 209.948, 167.313 212.102 M 190.686 215.250 C 190.395 216.488, 189.843 221.438, 189.460 226.250 C 188.792 234.640, 188.848 235, 190.820 235 C 192.523 235, 192.982 234.181, 193.483 230.250 C 194.704 220.664, 195.084 219.175, 196.638 217.886 C 197.510 217.162, 199.597 216.554, 201.277 216.535 C 202.957 216.516, 204.506 215.978, 204.719 215.341 C 205.248 213.757, 199.558 212.631, 197.255 213.864 C 196.110 214.476, 194.835 214.508, 193.946 213.946 C 191.781 212.576, 191.268 212.781, 190.686 215.250 M 307.875 213.208 C 307.201 214.775, 304.573 242.236, 305.067 242.541 C 305.429 242.765, 310.477 243.072, 316.285 243.224 C 325.698 243.470, 327.152 243.272, 329.672 241.401 C 333.538 238.531, 333.991 233.849, 330.681 230.970 L 328.242 228.849 330.621 226.470 C 331.929 225.162, 333 223.271, 333 222.268 C 333 219.351, 330.256 216.233, 326.747 215.163 C 323.629 214.212, 308.133 212.607, 307.875 213.208 M 210.250 215.491 C 207.611 216.638, 207 217.472, 207 219.929 C 207 223.516, 209.356 225.335, 216.220 227.046 C 221.906 228.463, 223.704 230.171, 221.467 232.028 C 219.099 233.993, 213.026 233.373, 210.391 230.898 C 209.018 229.608, 207.448 228.998, 206.468 229.374 C 204.331 230.194, 204.974 231.891, 208.386 234.439 C 214.134 238.730, 227.022 236.158, 226.985 230.727 C 226.959 227.049, 225.578 225.900, 218.378 223.565 C 210.087 220.876, 209.178 218.650, 216.187 218.198 C 220.070 217.947, 221.062 218.248, 221.972 219.948 C 223.131 222.113, 225.469 222.669, 226.487 221.021 C 227.544 219.311, 225.155 216.250, 221.872 215.105 C 217.695 213.649, 214.222 213.764, 210.250 215.491 M 166.571 216.571 C 163.875 219.268, 164.803 220, 170.918 220 C 174.173 220, 177.548 220.273, 178.418 220.607 C 180.626 221.454, 180.456 218.722, 178.171 216.655 C 175.813 214.520, 168.674 214.469, 166.571 216.571 M 239.327 216.696 C 234.058 217.722, 229.890 225.970, 231.937 231.320 C 233.934 236.542, 240.900 239.488, 247.651 237.966 C 252.335 236.910, 254.922 234.278, 256.008 229.466 C 258.084 220.258, 250.571 214.505, 239.327 216.696 M 312 218.375 C 312 219.131, 311.731 221.093, 311.403 222.735 L 310.806 225.720 316.988 226.419 C 321.874 226.972, 323.689 226.778, 325.646 225.496 C 328.758 223.457, 328.451 220.029, 325 218.290 C 321.485 216.518, 312 216.580, 312 218.375 M 262.685 221.750 C 262.371 223.813, 261.801 228.802, 261.419 232.838 C 260.726 240.161, 260.729 240.175, 263.112 239.838 C 265.303 239.528, 265.561 238.890, 266.236 232.119 C 266.641 228.060, 267.447 224.167, 268.027 223.467 C 269.631 221.535, 273.546 220.877, 276.578 222.030 L 279.295 223.063 278.654 232.100 C 278.018 241.052, 278.033 241.135, 280.256 240.819 C 282.307 240.527, 282.575 239.745, 283.374 231.716 C 284.145 223.965, 284.041 222.703, 282.487 220.985 C 280.179 218.435, 274.871 217.501, 270.786 218.925 C 268.584 219.692, 267.409 219.727, 267.177 219.031 C 266.988 218.464, 266.028 218, 265.044 218 C 263.746 218, 263.099 219.027, 262.685 221.750 M 240.500 220.114 C 237.316 221.921, 236 224.137, 236 227.691 C 236 232.264, 238.967 235, 243.927 235 C 253.573 235, 254.981 221.116, 245.500 219.492 C 243.850 219.210, 241.600 219.489, 240.500 220.114 M 344.315 224.464 C 338.228 227.111, 336.078 237.113, 340.536 242.040 C 343.207 244.992, 348.489 246.374, 352.179 245.087 C 356.088 243.725, 356 243.717, 356 245.429 C 356 249.986, 346.018 251.887, 342.500 248 C 340.160 245.415, 338 245.442, 338 248.056 C 338 251.123, 345.856 254.369, 351.125 253.479 C 358.015 252.315, 359.784 249.810, 360.996 239.500 C 361.578 234.550, 362.259 229.249, 362.508 227.720 C 362.931 225.128, 362.743 224.954, 359.731 225.149 C 357.954 225.265, 355.517 224.828, 354.316 224.179 C 351.483 222.650, 348.276 222.741, 344.315 224.464 M 369.516 226.250 C 368.808 228.351, 367.257 245.450, 367.701 246.250 C 367.930 246.662, 368.956 247, 369.979 247 C 371.541 247, 371.954 245.914, 372.544 240.250 C 373.587 230.240, 375.361 227.554, 380.250 228.581 C 382.322 229.016, 383 228.774, 383 227.599 C 383 225.479, 378.710 224.549, 375.891 226.058 C 374.197 226.965, 373.496 226.987, 373.214 226.143 C 372.703 224.608, 370.043 224.685, 369.516 226.250 M 347.465 226.952 C 343.401 228.599, 341.464 233.460, 343.128 237.837 C 344.410 241.208, 345.683 241.966, 350.095 241.985 C 354.741 242.004, 357.005 239.520, 356.985 234.421 C 356.967 229.936, 356.373 228.759, 353.316 227.150 C 350.817 225.834, 350.267 225.816, 347.465 226.952 M 310.607 231.582 C 310.273 232.452, 310 234.702, 310 236.582 L 310 240 317.800 240 C 326.108 240, 328 239.139, 328 235.357 C 328 231.835, 324.364 230, 317.384 230 C 312.680 230, 311.070 230.376, 310.607 231.582" stroke="none" fill="#f41313" fill-rule="evenodd"/><path d="M 0 216.002 L 0 432.004 256.250 431.752 L 512.500 431.500 512.752 215.750 L 513.005 0 256.502 0 L 0 0 0 216.002 M 0.491 216.500 C 0.491 335.300, 0.608 383.752, 0.750 324.170 C 0.892 264.589, 0.892 167.389, 0.750 108.170 C 0.607 48.952, 0.491 97.700, 0.491 216.500 M 126.531 157.481 C 125.954 161.157, 124 180.506, 124 182.539 C 124 183.431, 124.974 184, 126.500 184 C 128.587 184, 129 183.525, 129 181.125 C 129 179.544, 129.258 176.956, 129.573 175.375 L 130.145 172.500 138.916 172.817 C 147.177 173.115, 147.871 172.979, 150.844 170.478 C 153.250 168.454, 154 167.011, 154 164.411 C 154 157.971, 148.928 155.441, 134.752 154.808 L 127.004 154.461 126.531 157.481 M 160.584 160.250 C 159.907 164.601, 158 182.434, 158 184.420 C 158 185.405, 158.872 186, 160.316 186 C 162.554 186, 162.672 185.571, 163.821 173.250 C 165.359 156.762, 165.370 157, 163.045 157 C 161.611 157, 160.956 157.864, 160.584 160.250 M 130.794 163.131 C 130.565 166.084, 130.421 168.590, 130.473 168.700 C 130.524 168.810, 133.575 169.208, 137.253 169.585 C 145.433 170.423, 149 168.731, 149 164.012 C 149 160.252, 147.251 159.343, 138.324 158.463 L 131.209 157.762 130.794 163.131 M 255.990 163.250 C 255.985 163.387, 255.318 169.350, 254.510 176.500 C 252.627 193.141, 252.624 193, 254.893 193 C 257.083 193, 257.998 191.138, 258.006 186.668 C 258.016 180.849, 259.938 175.974, 262.625 174.952 C 264.003 174.429, 265.776 174, 266.565 174 C 268.538 174, 272.043 177.669, 271.559 179.227 C 271.342 179.927, 270.886 183.571, 270.546 187.324 C 269.942 194.010, 269.976 194.142, 272.215 193.824 C 274.321 193.525, 274.570 192.800, 275.388 184.567 L 276.276 175.634 273.582 173.317 C 270.722 170.856, 266.773 170.375, 262.565 171.975 C 260.025 172.941, 260 172.903, 260 167.975 C 260 163.667, 259.732 163, 258 163 C 256.900 163, 255.996 163.113, 255.990 163.250 M 176.376 166.086 C 172.827 167.115, 170.517 169.409, 171.473 170.956 C 172.401 172.458, 174.555 172.241, 176 170.500 C 177.254 168.988, 183.427 168.459, 186.418 169.607 C 187.288 169.941, 188 171.027, 188 172.022 C 188 173.546, 186.796 173.942, 180.320 174.549 C 174.215 175.121, 172.165 175.744, 170.320 177.589 C 167.496 180.413, 167.462 181.047, 169.968 184.232 C 172.280 187.171, 178.059 188.417, 182.916 187.024 C 185.439 186.301, 186.759 186.451, 188.630 187.677 C 189.968 188.554, 191.212 189.097, 191.395 188.885 C 191.578 188.673, 192.023 184.436, 192.384 179.468 C 193.148 168.935, 192.457 167.356, 186.473 165.969 C 181.758 164.876, 180.501 164.890, 176.376 166.086 M 205 168.306 C 201.027 169.661, 198.004 174.546, 198.002 179.615 C 197.997 188.475, 210.652 192.995, 218.399 186.901 C 221.504 184.459, 221.669 183.408, 219.057 182.725 C 217.902 182.423, 216.419 182.984, 215.402 184.108 C 213.381 186.341, 207.285 186.660, 204.571 184.675 C 202.181 182.928, 202.196 175.546, 204.594 172.896 C 207.041 170.192, 214.520 170.259, 216.232 173 C 217.667 175.298, 221 175.698, 221 173.571 C 221 170.541, 215.294 166.937, 210.685 167.056 C 209.483 167.087, 206.925 167.650, 205 168.306 M 311.977 181.250 C 311.260 189.088, 310.729 195.725, 310.797 196 C 311.013 196.873, 314.999 197.175, 315.020 196.320 C 315.030 195.869, 315.701 189.650, 316.510 182.500 C 318.367 166.082, 318.418 167, 315.640 167 C 313.332 167, 313.252 167.311, 311.977 181.250 M 230.014 170.752 C 228.097 171.713, 225.966 173.625, 225.279 175 C 223.756 178.047, 223.635 183.449, 225.030 186.055 C 227.977 191.563, 240.426 193.118, 245.643 188.631 C 248.377 186.279, 248.381 186.256, 246.209 185.566 C 244.843 185.133, 243.182 185.460, 241.788 186.436 C 238.389 188.817, 233.328 188.419, 230.455 185.545 C 226.073 181.164, 227.029 180.636, 238.029 181.357 C 249.114 182.083, 250.036 181.626, 248.267 176.283 C 246.174 169.962, 237.082 167.206, 230.014 170.752 M 341.985 172.250 C 341.960 177.401, 340.921 178.306, 337.174 176.437 C 328.677 172.198, 319.463 180.851, 322.142 190.552 C 323.771 196.453, 331.719 199.827, 337.148 196.921 C 338.760 196.058, 339.434 196.208, 340.515 197.671 C 342.754 200.703, 343.790 198.209, 344.948 187 C 345.545 181.225, 346.290 174.813, 346.604 172.750 C 347.140 169.236, 347.013 169, 344.588 169 C 342.338 169, 341.998 169.425, 341.985 172.250 M 231.750 173.572 C 226.656 176.336, 229.234 177.962, 238.750 177.986 C 244.868 178.002, 245.887 176.027, 241.050 173.526 C 237.406 171.641, 235.289 171.652, 231.750 173.572 M 286.763 174.508 C 283.423 176.390, 281 180.822, 281 185.050 C 281 187.299, 281.973 189.173, 284.400 191.600 C 287.471 194.671, 288.351 195, 293.500 195 C 298.649 195, 299.529 194.671, 302.600 191.600 C 305.439 188.761, 306 187.472, 306 183.787 C 306 177.475, 302.063 173.803, 294.772 173.317 C 291.298 173.085, 288.566 173.491, 286.763 174.508 M 288.456 178.284 C 284.944 181.305, 284.712 187.538, 288.011 190.210 C 290.455 192.189, 295.103 192.550, 298.022 190.988 C 300.456 189.686, 302.176 183.593, 300.991 180.476 C 299.165 175.675, 292.786 174.560, 288.456 178.284 M 180.331 177.734 C 177.437 177.939, 174.633 178.737, 173.959 179.549 C 170.523 183.689, 181.979 186.021, 186 182 C 188.230 179.770, 188.677 176.900, 186.750 177.185 C 186.063 177.287, 183.174 177.534, 180.331 177.734 M 358.538 178.497 C 353.139 180.423, 351.049 183.425, 351.022 189.298 C 351.004 193.207, 351.486 194.546, 353.622 196.525 C 356.636 199.319, 361.542 200.498, 366.680 199.665 C 370.048 199.118, 374 196.574, 374 194.952 C 374 193.111, 370.627 193.216, 368.028 195.137 C 364.501 197.745, 358.854 197.057, 356.529 193.738 C 353.500 189.414, 354.283 189.040, 365 189.693 L 375 190.302 375 186.740 C 375 183.990, 374.299 182.588, 371.923 180.589 C 370.231 179.165, 368.018 178, 367.005 178 C 365.992 178, 364.564 177.794, 363.832 177.542 C 363.099 177.290, 360.717 177.719, 358.538 178.497 M 328.073 181.635 C 323.684 187.215, 326.739 194.400, 333.500 194.400 C 338.116 194.400, 341 191.320, 341 186.389 C 341 179.330, 332.380 176.159, 328.073 181.635 M 389.047 179.950 C 388.248 180.455, 386.395 180.629, 384.930 180.336 C 381.760 179.702, 381.474 180.492, 380.439 192.750 C 379.771 200.648, 379.830 201, 381.810 201 C 383.525 201, 383.981 200.190, 384.483 196.250 C 385.696 186.730, 386.080 185.179, 387.517 183.986 C 388.323 183.317, 390.319 182.967, 391.952 183.206 C 395.467 183.722, 396.884 181.544, 394.029 180.015 C 391.714 178.777, 390.918 178.766, 389.047 179.950 M 357.494 183.006 C 356.496 184.110, 355.864 185.191, 356.089 185.409 C 356.315 185.627, 359.650 185.944, 363.500 186.113 C 369.217 186.364, 370.444 186.152, 370.195 184.960 C 369.323 180.786, 360.704 179.460, 357.494 183.006 M 128.980 201.799 C 128.970 202.184, 128.299 208.350, 127.490 215.500 C 125.633 231.921, 125.581 231, 128.371 231 C 130.522 231, 130.804 230.453, 131.410 225.092 L 132.079 219.183 140.960 219.342 C 151.831 219.535, 155.296 217.719, 155.816 211.553 C 156.188 207.150, 154.265 204.532, 149.629 203.127 C 145.681 201.931, 129.007 200.858, 128.980 201.799 M 133 210.217 L 133 215.722 139.250 216.292 C 147.170 217.014, 150.386 215.655, 150.801 211.408 C 151.223 207.089, 149.310 205.945, 140.560 205.283 L 133 204.711 133 210.217 M 167.313 212.102 C 162.586 213.470, 160 217.340, 160 223.046 C 160 227.136, 160.436 228.189, 163.029 230.371 C 168.021 234.572, 175.210 234.993, 180.750 231.409 C 181.988 230.609, 183 229.562, 183 229.084 C 183 227.382, 179.684 226.976, 178.027 228.476 C 176.293 230.045, 169.355 230.540, 167.400 229.235 C 166.252 228.468, 164 224.634, 164 223.446 C 164 223.069, 168.725 223.083, 174.500 223.477 C 186.206 224.275, 186.355 224.179, 183.623 217.640 C 181.343 212.184, 174.759 209.948, 167.313 212.102 M 190.686 215.250 C 190.395 216.488, 189.843 221.438, 189.460 226.250 C 188.792 234.640, 188.848 235, 190.820 235 C 192.523 235, 192.982 234.181, 193.483 230.250 C 194.704 220.664, 195.084 219.175, 196.638 217.886 C 197.510 217.162, 199.597 216.554, 201.277 216.535 C 202.957 216.516, 204.506 215.978, 204.719 215.341 C 205.248 213.757, 199.558 212.631, 197.255 213.864 C 196.110 214.476, 194.835 214.508, 193.946 213.946 C 191.781 212.576, 191.268 212.781, 190.686 215.250 M 307.875 213.208 C 307.201 214.775, 304.573 242.236, 305.067 242.541 C 305.429 242.765, 310.477 243.072, 316.285 243.224 C 325.698 243.470, 327.152 243.272, 329.672 241.401 C 333.538 238.531, 333.991 233.849, 330.681 230.970 L 328.242 228.849 330.621 226.470 C 331.929 225.162, 333 223.271, 333 222.268 C 333 219.351, 330.256 216.233, 326.747 215.163 C 323.629 214.212, 308.133 212.607, 307.875 213.208 M 210.250 215.491 C 207.611 216.638, 207 217.472, 207 219.929 C 207 223.516, 209.356 225.335, 216.220 227.046 C 221.906 228.463, 223.704 230.171, 221.467 232.028 C 219.099 233.993, 213.026 233.373, 210.391 230.898 C 209.018 229.608, 207.448 228.998, 206.468 229.374 C 204.331 230.194, 204.974 231.891, 208.386 234.439 C 214.134 238.730, 227.022 236.158, 226.985 230.727 C 226.959 227.049, 225.578 225.900, 218.378 223.565 C 210.087 220.876, 209.178 218.650, 216.187 218.198 C 220.070 217.947, 221.062 218.248, 221.972 219.948 C 223.131 222.113, 225.469 222.669, 226.487 221.021 C 227.544 219.311, 225.155 216.250, 221.872 215.105 C 217.695 213.649, 214.222 213.764, 210.250 215.491 M 166.571 216.571 C 163.875 219.268, 164.803 220, 170.918 220 C 174.173 220, 177.548 220.273, 178.418 220.607 C 180.626 221.454, 180.456 218.722, 178.171 216.655 C 175.813 214.520, 168.674 214.469, 166.571 216.571 M 239.327 216.696 C 234.058 217.722, 229.890 225.970, 231.937 231.320 C 233.934 236.542, 240.900 239.488, 247.651 237.966 C 252.335 236.910, 254.922 234.278, 256.008 229.466 C 258.084 220.258, 250.571 214.505, 239.327 216.696 M 312 218.375 C 312 219.131, 311.731 221.093, 311.403 222.735 L 310.806 225.720 316.988 226.419 C 321.874 226.972, 323.689 226.778, 325.646 225.496 C 328.758 223.457, 328.451 220.029, 325 218.290 C 321.485 216.518, 312 216.580, 312 218.375 M 262.685 221.750 C 262.371 223.813, 261.801 228.802, 261.419 232.838 C 260.726 240.161, 260.729 240.175, 263.112 239.838 C 265.303 239.528, 265.561 238.890, 266.236 232.119 C 266.641 228.060, 267.447 224.167, 268.027 223.467 C 269.631 221.535, 273.546 220.877, 276.578 222.030 L 279.295 223.063 278.654 232.100 C 278.018 241.052, 278.033 241.135, 280.256 240.819 C 282.307 240.527, 282.575 239.745, 283.374 231.716 C 284.145 223.965, 284.041 222.703, 282.487 220.985 C 280.179 218.435, 274.871 217.501, 270.786 218.925 C 268.584 219.692, 267.409 219.727, 267.177 219.031 C 266.988 218.464, 266.028 218, 265.044 218 C 263.746 218, 263.099 219.027, 262.685 221.750 M 240.500 220.114 C 237.316 221.921, 236 224.137, 236 227.691 C 236 232.264, 238.967 235, 243.927 235 C 253.573 235, 254.981 221.116, 245.500 219.492 C 243.850 219.210, 241.600 219.489, 240.500 220.114 M 344.315 224.464 C 338.228 227.111, 336.078 237.113, 340.536 242.040 C 343.207 244.992, 348.489 246.374, 352.179 245.087 C 356.088 243.725, 356 243.717, 356 245.429 C 356 249.986, 346.018 251.887, 342.500 248 C 340.160 245.415, 338 245.442, 338 248.056 C 338 251.123, 345.856 254.369, 351.125 253.479 C 358.015 252.315, 359.784 249.810, 360.996 239.500 C 361.578 234.550, 362.259 229.249, 362.508 227.720 C 362.931 225.128, 362.743 224.954, 359.731 225.149 C 357.954 225.265, 355.517 224.828, 354.316 224.179 C 351.483 222.650, 348.276 222.741, 344.315 224.464 M 369.516 226.250 C 368.808 228.351, 367.257 245.450, 367.701 246.250 C 367.930 246.662, 368.956 247, 369.979 247 C 371.541 247, 371.954 245.914, 372.544 240.250 C 373.587 230.240, 375.361 227.554, 380.250 228.581 C 382.322 229.016, 383 228.774, 383 227.599 C 383 225.479, 378.710 224.549, 375.891 226.058 C 374.197 226.965, 373.496 226.987, 373.214 226.143 C 372.703 224.608, 370.043 224.685, 369.516 226.250 M 347.465 226.952 C 343.401 228.599, 341.464 233.460, 343.128 237.837 C 344.410 241.208, 345.683 241.966, 350.095 241.985 C 354.741 242.004, 357.005 239.520, 356.985 234.421 C 356.967 229.936, 356.373 228.759, 353.316 227.150 C 350.817 225.834, 350.267 225.816, 347.465 226.952 M 310.607 231.582 C 310.273 232.452, 310 234.702, 310 236.582 L 310 240 317.800 240 C 326.108 240, 328 239.139, 328 235.357 C 328 231.835, 324.364 230, 317.384 230 C 312.680 230, 311.070 230.376, 310.607 231.582" stroke="none" fill="#a4a3a3" fill-rule="evenodd"/></svg>