<svg version="1.1" id="Layer_1" xmlns="http://www.w3.org/2000/svg" xmlns:xlink="http://www.w3.org/1999/xlink" x="0px" y="0px"
	 width="100%" viewBox="0 0 512 432" enable-background="new 0 0 512 432" xml:space="preserve">
<path fill="#51505A" opacity="1.000000" stroke="none" 
	d="
M469.000000,1.000000 
	C483.637054,1.000000 498.274078,1.000000 513.000000,1.000000 
	C513.000000,58.354198 513.000000,115.708443 512.568481,173.525269 
	C508.834442,173.657440 505.534607,173.295654 502.228760,173.002243 
	C489.824463,171.901321 477.414612,170.861694 465.013641,169.725098 
	C451.956421,168.528351 438.912079,167.189606 425.852631,166.018723 
	C412.953278,164.862167 400.037537,163.888428 387.137238,162.741806 
	C373.745941,161.551498 360.367615,160.216660 346.977997,159.006897 
	C334.245361,157.856491 321.501678,156.827652 308.769714,155.670105 
	C292.073914,154.152161 275.387756,152.528564 258.691956,151.010925 
	C246.124710,149.868561 233.546402,148.848602 220.977463,147.724442 
	C207.421524,146.511993 193.868286,145.268005 180.318588,143.987778 
	C170.569839,143.066650 160.838379,141.944824 151.079163,141.162567 
	C147.753479,140.895996 146.752228,139.379669 146.991653,136.365417 
	C147.359756,131.731079 147.728409,127.094635 147.964005,122.452354 
	C148.991470,102.208122 150.051315,81.964996 150.943939,61.714622 
	C151.741882,43.611942 152.311691,25.499283 153.052719,7.393914 
	C153.140335,5.253273 153.673416,3.130863 154.000000,1.000001 
	C158.689255,1.000000 163.378510,1.000000 168.493896,1.445226 
	C168.920013,10.526483 168.920013,19.162516 168.920013,28.399780 
	C201.457443,29.453499 234.608139,30.527079 269.000000,31.640852 
	C269.000000,20.950577 269.000000,10.975288 269.000000,1.000000 
	C307.687561,1.000000 346.375122,1.000000 385.558502,1.445942 
	C385.799530,6.964345 385.544739,12.036805 385.272095,17.464577 
	C413.105774,19.144461 440.432281,20.793737 469.000000,22.517925 
	C469.000000,14.910263 469.000000,7.955132 469.000000,1.000000 
M275.773529,106.706024 
	C281.327972,106.993248 286.882416,107.280472 292.909790,107.592148 
	C292.909790,100.138779 292.909790,93.543045 292.909790,86.206146 
	C284.836456,86.206146 276.680328,86.206146 267.973267,86.206146 
	C267.973267,92.304108 267.912567,98.283218 268.067657,104.256729 
	C268.083099,104.850883 269.413818,105.410889 270.984833,106.012314 
	C272.404755,106.045898 273.824646,106.079475 275.773529,106.706024 
M245.360123,44.499702 
	C240.576874,44.370258 235.793625,44.240814 230.131912,43.993183 
	C221.855133,43.529617 213.578354,43.066051 204.707672,42.569225 
	C203.636292,63.368568 202.588470,83.710564 201.519363,104.465637 
	C219.557098,105.486671 236.612381,106.452095 254.806870,107.482010 
	C254.806870,101.377533 254.806870,95.776062 255.666473,90.101486 
	C258.804626,90.289429 260.214172,88.892471 260.022766,85.681412 
	C259.865570,83.044403 259.905579,80.386986 260.014832,77.745094 
	C260.132507,74.899460 258.715729,73.865570 256.113892,73.160812 
	C256.646393,64.113953 257.178864,55.067101 257.739227,45.547016 
	C253.553665,45.355904 249.782608,45.183720 245.360123,44.499702 
M365.910828,121.032372 
	C366.677795,110.468575 367.444733,99.904785 368.229126,89.101044 
	C358.534637,88.395088 349.509216,87.737862 340.276123,87.065514 
	C338.745361,108.093529 337.264740,128.432800 335.775604,148.888779 
	C345.507660,149.612366 354.417511,150.274841 363.614258,150.958633 
	C363.999817,146.358032 364.344482,142.245499 365.656769,138.071259 
	C377.991760,137.802338 377.991760,137.802338 378.000366,130.214294 
	C378.009583,122.087212 378.009552,122.090469 369.779633,121.999084 
	C368.456451,121.984390 367.133698,121.925758 365.910828,121.032372 
M316.002899,15.094707 
	C304.433319,15.094707 292.863770,15.094707 281.023712,15.094707 
	C280.358307,34.981251 279.677216,55.336193 278.987854,75.938812 
	C299.977417,76.641434 320.332367,77.322800 340.938416,78.012581 
	C341.641357,57.024551 342.323120,36.667801 343.019318,15.881415 
	C338.591248,15.881415 334.791595,15.881415 330.320557,15.410868 
	C325.856903,15.317802 321.393280,15.224738 316.002899,15.094707 
M402.616882,143.819870 
	C431.638672,145.469727 460.660431,147.119583 489.897888,148.781693 
	C491.932373,113.862564 493.932983,79.524727 495.945221,44.987446 
	C462.309418,43.030636 429.306549,41.110645 396.103455,39.179008 
	C394.066864,74.151459 392.067505,108.484589 390.065155,142.869247 
	C394.369507,143.202438 398.020264,143.485046 402.616882,143.819870 
M162.706009,126.873932 
	C170.829361,126.873932 178.952698,126.873932 188.089905,126.873932 
	C188.089905,118.047630 188.192123,108.957848 187.933273,99.878349 
	C187.907120,98.961136 185.718094,97.367783 184.503769,97.339615 
	C175.259964,97.125168 166.008942,97.222153 155.860474,97.222153 
	C155.860474,105.032890 156.138000,112.987015 155.756363,120.909393 
	C155.527466,125.661064 157.359299,127.294525 162.706009,126.873932 
z"/>
<path fill="#342F2A" opacity="1.000000" stroke="none" 
	d="
M513.000000,339.000000 
	C513.000000,353.354218 513.000000,367.708466 512.546997,382.636841 
	C507.079010,383.004974 502.064087,382.798981 496.608032,382.445740 
	C475.203644,380.801147 454.240448,379.303772 432.893127,377.618652 
	C423.745056,376.747070 414.985260,376.003815 406.216248,375.392487 
	C390.176727,374.274353 374.131744,373.234192 357.680389,372.056885 
	C349.113373,371.452850 340.955048,370.953491 332.378510,370.374329 
	C324.348969,369.549591 316.747986,368.670654 309.124542,368.082245 
	C270.969208,365.137268 232.810577,362.233826 194.647964,359.384918 
	C169.097427,357.477539 143.538269,355.685516 117.642700,353.616119 
	C106.219070,352.654877 95.135704,351.919373 84.040497,350.703857 
	C84.353119,336.829041 84.677582,323.434235 85.412903,310.110016 
	C88.123795,310.448334 90.417328,310.843201 92.725021,310.961212 
	C101.526428,311.411438 110.341995,311.624817 119.134636,312.197418 
	C137.370636,313.384979 155.594116,314.763458 173.825180,316.028381 
	C184.601486,316.776062 195.385025,317.420258 206.160751,318.175751 
	C224.059143,319.430695 241.951843,320.766724 259.850861,322.012329 
	C270.958984,322.785339 282.077240,323.412018 293.185699,324.180115 
	C311.251007,325.429199 329.310547,326.762421 347.375488,328.017029 
	C358.317780,328.776978 369.268250,329.419586 380.210571,330.179260 
	C398.275452,331.433472 416.335541,332.756470 434.399902,334.017853 
	C445.507416,334.793518 456.617004,335.542877 467.729523,336.242554 
	C482.817749,337.192474 497.909668,338.083618 513.000000,339.000000 
z"/>
<path fill="#DCD9D9" opacity="1.000000" stroke="none" 
	d="
M358.089050,372.161530 
	C374.131744,373.234192 390.176727,374.274353 406.216248,375.392487 
	C414.985260,376.003815 423.745056,376.747070 432.695801,377.922852 
	C428.536682,384.898895 424.190796,391.382904 419.582825,398.081482 
	C418.118958,400.176086 416.917145,402.056122 415.214966,404.718872 
	C421.885956,407.338257 427.921875,409.708282 434.263824,412.255066 
	C444.020996,416.161621 453.472107,419.891418 463.173798,423.819489 
	C470.282898,427.011841 477.141449,430.005920 484.000000,433.000000 
	C425.645782,433.000000 367.291534,433.000000 308.462677,432.642761 
	C298.334686,428.178864 288.681335,424.072235 278.722748,419.781006 
	C268.296326,415.609863 258.175140,411.623260 247.800751,407.425537 
	C244.363037,406.511139 241.549088,402.003113 237.910126,405.979889 
	C232.816177,411.546631 227.908981,417.284241 222.649750,423.138641 
	C219.918396,426.552338 217.459198,429.776154 215.000000,433.000000 
	C185.979111,433.000000 156.958206,433.000000 127.486603,432.654633 
	C131.348709,427.198547 135.661530,422.087830 140.258835,416.803650 
	C147.502106,408.765259 154.460907,400.900269 161.681183,392.874451 
	C166.341965,387.975922 170.741287,383.238190 175.854507,377.731689 
	C168.622513,375.096802 162.634918,372.915344 156.372894,370.481598 
	C145.746490,366.085693 135.394516,361.942047 124.785080,357.582367 
	C122.346069,356.191498 120.164520,355.016693 117.982971,353.841888 
	C143.538269,355.685516 169.097427,357.477539 194.647964,359.384918 
	C232.810577,362.233826 270.969208,365.137268 309.124542,368.082245 
	C316.747986,368.670654 324.348969,369.549591 332.511719,370.680420 
	C337.422638,372.975555 341.742004,374.983734 346.150513,376.772217 
	C353.830017,379.887665 353.853058,379.830841 358.089050,372.161530 
z"/>
<path fill="#404040" opacity="1.000000" stroke="none" 
	d="
M85.002045,310.039429 
	C84.677582,323.434235 84.353119,336.829041 84.038010,351.133423 
	C84.100449,354.346130 84.153542,356.649231 84.135849,359.419312 
	C84.292259,369.080566 84.555992,378.274292 84.696503,387.469910 
	C84.712555,388.519958 84.038582,389.580536 83.376968,390.774597 
	C78.463852,394.731537 73.858330,398.550079 69.175446,401.875427 
	C69.713211,376.776581 70.331970,352.171051 70.942108,327.565308 
	C71.305031,312.929108 71.651619,298.292480 72.010483,283.656158 
	C72.675125,256.548737 73.329369,229.441025 74.014244,202.334091 
	C74.648666,177.224106 75.368134,152.116180 75.954102,127.005104 
	C76.377335,108.867928 76.609474,90.726364 76.990974,72.588104 
	C77.249847,60.280155 77.656555,47.975334 77.922264,35.667496 
	C78.030373,30.659800 77.940125,25.647820 77.940125,19.231478 
	C73.676590,22.542631 70.819473,24.761524 67.653091,27.135792 
	C64.741264,29.138685 61.098225,29.886850 60.978508,34.189236 
	C60.775234,41.494652 60.162460,48.790699 60.041111,56.095993 
	C59.623722,81.223610 59.330952,106.353355 59.016548,131.482605 
	C58.664627,159.610428 58.358501,187.738815 57.999424,215.866531 
	C57.695637,239.662994 57.229588,263.457977 57.048519,287.255249 
	C56.882458,309.079895 56.954613,330.906982 57.082760,352.732025 
	C57.093086,354.490875 58.351059,356.242340 59.034851,358.466064 
	C59.014641,371.131622 59.042652,383.328979 58.905979,395.524475 
	C58.885075,397.389618 58.103413,399.246277 57.384445,400.959351 
	C52.093769,395.513611 47.092258,390.215393 41.967751,384.605255 
	C37.299561,379.497070 32.754372,374.700836 28.265306,369.963776 
	C29.217350,368.167847 30.053593,366.590332 31.234436,364.951172 
	C41.917969,357.357422 49.756634,349.057434 49.256706,334.489807 
	C48.550282,313.905029 49.652618,293.257965 49.988209,272.637665 
	C50.318378,252.350235 50.664913,232.063110 50.989029,211.775604 
	C51.331760,190.322723 51.648827,168.869431 51.991333,147.416550 
	C52.315235,127.129051 52.743706,106.842773 52.962585,86.554192 
	C53.117069,72.234406 53.014191,57.911633 52.980038,43.590302 
	C52.976078,41.929379 52.676712,40.269161 52.439140,37.840149 
	C47.632015,41.239117 43.828228,44.194302 39.756966,46.717979 
	C36.830963,48.531742 35.967346,50.807922 35.930534,54.138607 
	C35.765171,69.098862 35.284355,84.055275 35.029705,99.014984 
	C34.639023,121.965866 34.272984,144.917557 34.018562,167.870255 
	C33.622017,203.644043 33.348743,239.419205 32.922550,275.192596 
	C32.903137,276.822205 31.895927,278.440033 31.243374,280.032318 
	C31.137957,280.001282 30.924883,279.965485 30.941971,279.499725 
	C30.914429,271.391357 30.869802,263.748718 30.875114,255.633163 
	C30.925034,235.479279 30.925013,215.798355 30.948292,195.638184 
	C31.006660,182.526291 31.041731,169.893631 31.164003,156.824310 
	C31.342642,146.679672 31.434076,136.971710 31.626898,126.782402 
	C31.779799,118.581734 31.831312,110.862419 31.910126,102.666191 
	C31.937422,85.846336 31.937422,69.503387 31.937422,52.237022 
	C26.177452,56.286182 21.168392,59.501778 16.568491,63.223133 
	C15.146247,64.373741 14.163838,66.889145 14.130637,68.799675 
	C13.943060,79.593849 14.105515,90.394119 14.111620,101.640564 
	C14.079218,110.080284 14.083910,118.071732 14.034763,126.525215 
	C13.977881,136.681610 13.974838,146.375977 13.972472,156.522659 
	C13.664619,170.003342 13.356090,183.031723 13.049080,196.524963 
	C13.029704,215.990738 13.008808,234.991638 12.911339,254.423523 
	C12.631893,262.800323 12.429022,270.746124 12.177191,279.177643 
	C12.086509,288.121307 12.044786,296.579254 12.004370,305.503540 
	C11.984863,319.220551 11.964051,332.471222 11.871897,346.158264 
	C11.596024,368.359833 11.391492,390.125061 11.116173,412.360962 
	C11.030256,419.554413 11.015128,426.277222 11.000000,433.000000 
	C7.670362,433.000000 4.340723,433.000000 1.005542,433.000000 
	C1.000000,304.979095 1.000000,176.958206 1.366450,48.471375 
	C3.488518,47.121128 5.385169,46.438080 6.978174,45.321735 
	C25.054319,32.654316 43.108849,19.955534 61.097542,7.164424 
	C63.596142,5.387761 65.708717,3.068225 68.000000,1.000000 
	C74.687645,1.000000 81.375290,1.000000 88.536362,1.439334 
	C89.035614,12.955026 89.061447,24.031382 89.079567,35.558868 
	C89.101707,39.708046 89.131561,43.406094 89.109772,47.563675 
	C89.024223,57.714909 88.990311,67.406601 88.951958,77.517426 
	C88.676147,87.690407 88.404778,97.444252 88.103020,107.653412 
	C87.728462,122.063400 87.384293,136.018082 87.019745,150.443314 
	C86.995216,165.931961 86.991074,180.950058 86.906433,196.411453 
	C86.622932,206.529266 86.419922,216.203751 86.162384,226.351685 
	C85.785065,243.156693 85.462288,259.488281 85.101059,276.279785 
	C85.053253,279.162079 85.043900,281.584442 85.027054,284.474976 
	C85.013725,293.308563 85.007881,301.674011 85.002045,310.039429 
z"/>
<path fill="#57514B" opacity="1.000000" stroke="none" 
	d="
M85.412903,310.110016 
	C85.007881,301.674011 85.013725,293.308563 85.460739,284.473663 
	C91.245987,284.335846 96.590050,284.667511 102.257111,285.272827 
	C120.324684,286.689697 138.072281,287.788513 155.813004,288.988800 
	C173.402267,290.178802 190.981262,291.520477 208.570938,292.703857 
	C224.997253,293.808990 241.431686,294.793701 258.317719,295.874756 
	C270.198639,296.659943 281.626862,297.365997 293.049622,298.151672 
	C311.416901,299.415009 329.779755,300.743042 348.146149,302.019897 
	C358.904694,302.767853 369.668518,303.440765 380.426331,304.198669 
	C398.128998,305.445831 415.826630,306.765320 433.530518,307.994690 
	C444.786194,308.776306 456.048523,309.462860 467.309296,310.169098 
	C482.538818,311.124268 497.769714,312.057404 513.000000,313.000000 
	C513.000000,321.354218 513.000000,329.708466 513.000000,338.531311 
	C497.909668,338.083618 482.817749,337.192474 467.729523,336.242554 
	C456.617004,335.542877 445.507416,334.793518 434.399902,334.017853 
	C416.335541,332.756470 398.275452,331.433472 380.210571,330.179260 
	C369.268250,329.419586 358.317780,328.776978 347.375488,328.017029 
	C329.310547,326.762421 311.251007,325.429199 293.185699,324.180115 
	C282.077240,323.412018 270.958984,322.785339 259.850861,322.012329 
	C241.951843,320.766724 224.059143,319.430695 206.160751,318.175751 
	C195.385025,317.420258 184.601486,316.776062 173.825180,316.028381 
	C155.594116,314.763458 137.370636,313.384979 119.134636,312.197418 
	C110.341995,311.624817 101.526428,311.411438 92.725021,310.961212 
	C90.417328,310.843201 88.123795,310.448334 85.412903,310.110016 
z"/>
<path fill="#7F7163" opacity="1.000000" stroke="none" 
	d="
M513.000000,312.531342 
	C497.769714,312.057404 482.538818,311.124268 467.309296,310.169098 
	C456.048523,309.462860 444.786194,308.776306 433.530518,307.994690 
	C415.826630,306.765320 398.128998,305.445831 380.426331,304.198669 
	C369.668518,303.440765 358.904694,302.767853 348.146149,302.019897 
	C329.779755,300.743042 311.416901,299.415009 293.049622,298.151672 
	C281.626862,297.365997 270.198639,296.659943 258.354370,295.440674 
	C258.108673,293.215607 258.281433,291.467987 258.879944,289.773438 
	C278.048553,290.889709 296.798950,291.840393 315.528717,293.098206 
	C320.014801,293.399475 321.576569,291.406342 321.783264,287.512756 
	C322.197174,279.716095 322.536743,271.915527 323.351196,264.091370 
	C342.357483,265.446716 360.922607,266.787628 379.480316,268.224335 
	C388.920319,268.955170 398.340729,269.939972 407.781097,270.665100 
	C423.193176,271.848846 438.617554,272.872681 454.029358,274.059814 
	C457.689209,274.341705 458.923645,272.971863 459.100739,269.272217 
	C459.457825,261.813232 460.381714,254.381393 461.523773,246.945496 
	C464.625092,247.055420 467.277679,247.105057 469.923126,247.269821 
	C484.283051,248.164185 498.641235,249.086990 513.000000,250.000000 
	C513.000000,270.687561 513.000000,291.375122 513.000000,312.531342 
z"/>
<path fill="#574C41" opacity="1.000000" stroke="none" 
	d="
M513.000000,249.531342 
	C498.641235,249.086990 484.283051,248.164185 469.923126,247.269821 
	C467.277679,247.105057 464.625092,247.055420 461.396881,246.585022 
	C458.365509,245.488480 455.949921,244.299957 453.455078,244.099945 
	C418.694153,241.313309 383.920258,238.688660 349.154449,235.961990 
	C338.069061,235.092560 326.998108,234.039810 315.934113,232.606873 
	C316.350098,224.842545 316.752502,217.542297 317.574280,210.198303 
	C321.496735,210.605225 322.975403,209.347382 323.107056,205.541992 
	C323.323853,199.274673 324.209717,193.030487 325.294373,186.815918 
	C343.375610,188.002319 360.976013,189.149368 378.570862,190.660843 
	C378.487579,193.909454 376.510406,197.558441 381.985352,197.885834 
	C391.260101,198.440430 400.521301,199.234314 409.783234,199.988708 
	C428.471191,201.510910 447.150635,203.140747 465.843445,204.599854 
	C481.555023,205.826248 497.280609,206.873459 513.000000,208.000000 
	C513.000000,221.687561 513.000000,235.375122 513.000000,249.531342 
z"/>
<path fill="#64646A" opacity="1.000000" stroke="none" 
	d="
M153.541931,1.000001 
	C153.673416,3.130863 153.140335,5.253273 153.052719,7.393914 
	C152.311691,25.499283 151.741882,43.611942 150.943939,61.714622 
	C150.051315,81.964996 148.991470,102.208122 147.964005,122.452354 
	C147.728409,127.094635 147.359756,131.731079 146.991653,136.365417 
	C146.752228,139.379669 147.753479,140.895996 151.079163,141.162567 
	C160.838379,141.944824 170.569839,143.066650 180.318588,143.987778 
	C193.868286,145.268005 207.421524,146.511993 220.977463,147.724442 
	C233.546402,148.848602 246.124710,149.868561 258.691956,151.010925 
	C275.387756,152.528564 292.073914,154.152161 308.769714,155.670105 
	C321.501678,156.827652 334.245361,157.856491 346.977997,159.006897 
	C360.367615,160.216660 373.745941,161.551498 387.137238,162.741806 
	C400.037537,163.888428 412.953278,164.862167 425.852631,166.018723 
	C438.912079,167.189606 451.956421,168.528351 465.013641,169.725098 
	C477.414612,170.861694 489.824463,171.901321 502.228760,173.002243 
	C505.534607,173.295654 508.834442,173.657440 512.568481,173.993927 
	C513.000000,177.361282 513.000000,180.722580 512.576904,184.508362 
	C497.755615,183.608719 483.355652,182.303818 468.959747,180.955353 
	C452.578827,179.420929 436.207672,177.779510 419.820801,176.312531 
	C406.578674,175.127060 393.319519,174.131439 379.636444,173.027023 
	C368.133972,171.997528 357.062744,170.994995 345.992035,169.986862 
	C337.562378,169.219223 329.133942,168.438080 320.703918,167.674423 
	C307.155182,166.447037 293.605621,165.229156 279.633301,163.972412 
	C276.415466,163.624252 273.624786,163.268188 270.825348,163.004959 
	C257.640900,161.765198 244.459976,160.482559 231.266479,159.346344 
	C217.576218,158.167389 203.872971,157.138977 189.746582,156.006500 
	C175.207596,154.642700 161.114548,153.076721 146.981720,152.069092 
	C136.044998,151.289337 136.023361,151.600006 135.998260,140.966095 
	C135.995926,139.973297 135.981750,138.980545 135.988785,137.536102 
	C136.323456,127.401474 136.642426,117.718498 137.200012,107.692276 
	C137.939011,98.211716 138.439392,89.074402 138.949127,79.475647 
	C139.283096,69.382271 139.607727,59.750336 139.963409,49.683655 
	C140.323318,44.827877 140.652191,40.406841 140.987030,35.530102 
	C141.662003,23.716265 142.331009,12.358132 143.000000,1.000000 
	C146.361282,1.000000 149.722580,1.000000 153.541931,1.000001 
z"/>
<path fill="#888888" opacity="1.000000" stroke="none" 
	d="
M83.684570,390.636230 
	C84.038582,389.580536 84.712555,388.519958 84.696503,387.469910 
	C84.555992,378.274292 84.292259,369.080566 84.495880,359.451324 
	C91.686584,362.035858 98.445709,365.057098 105.206703,368.074066 
	C108.266716,369.439545 111.339745,370.881134 114.361183,368.008240 
	C117.930565,364.614349 121.482849,361.202454 125.042557,357.798401 
	C135.394516,361.942047 145.746490,366.085693 156.014862,370.655212 
	C151.251419,375.222260 146.571548,379.363403 140.813370,384.458740 
	C148.738861,387.757385 155.079285,390.396332 161.419708,393.035278 
	C154.460907,400.900269 147.502106,408.765259 139.943848,416.650757 
	C132.537979,413.582062 125.676895,410.605591 118.952797,407.346497 
	C116.360962,406.090271 114.787643,406.770966 112.839592,408.580536 
	C107.859840,413.206299 102.539909,417.466309 97.569565,422.101593 
	C93.873253,425.548767 90.511024,429.354156 87.000000,433.000000 
	C72.312439,433.000000 57.624878,433.000000 42.524139,432.660187 
	C47.071301,427.547485 51.900204,422.628052 57.021332,418.034393 
	C65.738953,410.214630 74.690674,402.655426 83.375298,394.800171 
	C84.122498,394.124329 83.611229,392.057098 83.684570,390.636230 
z"/>
<path fill="#A0958A" opacity="1.000000" stroke="none" 
	d="
M380.067932,173.051605 
	C393.319519,174.131439 406.578674,175.127060 419.820801,176.312531 
	C436.207672,177.779510 452.578827,179.420929 468.959747,180.955353 
	C483.355652,182.303818 497.755615,183.608719 512.576904,184.966431 
	C513.000000,192.354248 513.000000,199.708496 513.000000,207.531372 
	C497.280609,206.873459 481.555023,205.826248 465.843445,204.599854 
	C447.150635,203.140747 428.471191,201.510910 409.783234,199.988708 
	C400.521301,199.234314 391.260101,198.440430 381.985352,197.885834 
	C376.510406,197.558441 378.487579,193.909454 378.678925,190.183014 
	C379.217682,183.911026 379.642822,178.481323 380.067932,173.051605 
z"/>
<path fill="#888888" opacity="1.000000" stroke="none" 
	d="
M462.923248,423.621216 
	C453.472107,419.891418 444.020996,416.161621 434.332458,411.910492 
	C435.242706,409.636108 436.390289,407.882996 437.683258,405.907867 
	C431.538025,403.137817 425.691467,400.502380 419.844879,397.866943 
	C424.190796,391.382904 428.536682,384.898895 433.079895,378.110657 
	C454.240448,379.303772 475.203644,380.801147 496.510193,382.737854 
	C494.372803,386.412323 491.892090,389.647400 488.586853,393.957703 
	C497.175171,396.786896 505.087585,399.393463 513.000000,402.000000 
	C513.000000,412.333435 513.000000,422.666901 513.000000,433.000000 
	C510.250336,433.000000 507.616241,433.000000 504.385071,432.670715 
	C493.589874,428.085754 483.324829,423.981293 473.221436,419.511475 
	C468.067444,417.231293 465.062500,419.013092 462.923248,423.621216 
z"/>
<path fill="#574C41" opacity="1.000000" stroke="none" 
	d="
M142.531342,1.000000 
	C142.331009,12.358132 141.662003,23.716265 140.520813,35.535881 
	C123.061501,35.700825 106.074387,35.404282 89.087273,35.107738 
	C89.061447,24.031382 89.035614,12.955026 89.004890,1.439334 
	C106.687561,1.000000 124.375122,1.000000 142.531342,1.000000 
z"/>
<path fill="#FAFAFA" opacity="1.000000" stroke="none" 
	d="
M268.531342,1.000000 
	C269.000000,10.975288 269.000000,20.950577 269.000000,31.640852 
	C234.608139,30.527079 201.457443,29.453499 168.920013,28.399780 
	C168.920013,19.162516 168.920013,10.526483 168.960007,1.445226 
	C170.714355,1.000000 172.428711,1.000000 174.572174,1.468448 
	C175.001266,8.004015 175.001266,14.071134 175.001266,20.247356 
	C181.715271,20.247356 187.629135,20.247356 194.197388,20.247356 
	C194.197388,15.960705 194.197388,12.001472 194.572433,8.164346 
	C196.810745,8.566306 198.674011,8.846162 200.363068,9.516935 
	C200.188858,11.332553 200.188858,12.757252 200.188858,14.379335 
	C204.774353,14.379335 209.142731,14.379335 213.834747,14.379335 
	C213.907074,12.846446 213.974258,11.422545 214.476425,9.939547 
	C222.371597,9.845139 222.371628,9.845141 222.896988,2.471069 
	C222.931915,1.980755 222.965698,1.490358 223.000000,1.000000 
	C238.020889,1.000000 253.041794,1.000000 268.531342,1.000000 
M212.623398,18.919722 
	C208.847748,18.919722 205.072098,18.919722 201.014481,18.919722 
	C201.088699,20.492931 201.155106,21.900761 201.233337,23.559090 
	C219.947052,24.201237 238.320175,24.831697 257.016357,25.473244 
	C256.914032,23.499887 256.841003,22.091953 256.756226,20.457600 
	C242.140274,19.944105 227.866257,19.442623 212.623398,18.919722 
M248.981323,17.249628 
	C251.241516,17.249628 253.501709,17.249628 256.067810,17.249628 
	C255.927261,15.440539 255.819000,14.047120 255.669464,12.122629 
	C244.300690,12.122629 233.271622,12.122629 221.941360,12.122629 
	C222.071640,13.600868 222.193665,14.985456 222.390610,17.220333 
	C231.165237,17.220333 239.620117,17.220333 248.981323,17.249628 
z"/>
<path fill="#9B9B9B" opacity="1.000000" stroke="none" 
	d="
M83.376968,390.774597 
	C83.611229,392.057098 84.122498,394.124329 83.375298,394.800171 
	C74.690674,402.655426 65.738953,410.214630 57.021332,418.034393 
	C51.900204,422.628052 47.071301,427.547485 42.055481,432.660187 
	C31.979105,433.000000 21.958210,433.000000 11.468657,433.000000 
	C11.015128,426.277222 11.030256,419.554413 11.424286,412.266174 
	C21.899038,402.772827 31.994890,393.845001 42.090744,384.917175 
	C47.092258,390.215393 52.093769,395.513611 57.494255,401.246918 
	C58.453026,402.246185 59.012821,402.810394 59.707954,403.682800 
	C60.989990,405.327301 62.136688,406.663574 63.635643,408.410339 
	C65.477852,406.412018 66.916374,404.851562 68.541031,403.175110 
	C68.965988,402.877350 69.141205,402.647217 69.252815,402.368652 
	C73.858330,398.550079 78.463852,394.731537 83.376968,390.774597 
z"/>
<path fill="#898989" opacity="1.000000" stroke="none" 
	d="
M215.468658,433.000000 
	C217.459198,429.776154 219.918396,426.552338 223.031998,423.169891 
	C226.310471,423.285156 229.953781,424.794525 231.380722,423.617340 
	C237.302643,418.731903 242.555481,413.035431 248.053925,407.636658 
	C258.175140,411.623260 268.296326,415.609863 278.554260,420.072083 
	C274.794037,424.698456 270.897003,428.849213 267.000000,433.000000 
	C249.979111,433.000000 232.958206,433.000000 215.468658,433.000000 
z"/>
<path fill="#F8F7F7" opacity="1.000000" stroke="none" 
	d="
M468.531342,1.000000 
	C469.000000,7.955132 469.000000,14.910263 469.000000,22.517925 
	C440.432281,20.793737 413.105774,19.144461 385.272095,17.464577 
	C385.544739,12.036805 385.799530,6.964345 386.027161,1.445942 
	C387.714355,1.000000 389.428711,1.000000 391.439423,1.372505 
	C391.452576,3.217803 391.169373,4.690594 390.858978,6.304645 
	C394.897125,6.304645 398.290833,6.304645 402.368286,6.304645 
	C401.844238,4.272924 401.422119,2.636461 401.000000,0.999999 
	C403.041656,1.000000 405.083344,1.000000 407.431885,1.370802 
	C407.452728,3.205588 407.166656,4.669573 406.847931,6.300793 
	C409.901154,6.300793 412.298920,6.300793 415.373535,6.300793 
	C414.847015,4.268802 414.423523,2.634398 414.000000,0.999997 
	C432.020905,1.000000 450.041779,1.000000 468.531342,1.000000 
M428.016815,18.552675 
	C437.782440,18.552675 447.548096,18.552675 457.704285,18.552675 
	C457.704285,13.876266 457.704285,8.853834 457.704285,3.240010 
	C447.146667,3.240010 436.910797,3.240010 425.679443,3.240010 
	C426.147980,8.265179 426.621216,13.340693 428.016815,18.552675 
M402.747070,9.846472 
	C399.970245,9.846472 397.193451,9.846472 394.217651,9.846472 
	C394.217651,11.413174 394.217651,12.827326 394.217651,14.831923 
	C403.821777,14.831923 413.204803,14.831923 422.770233,14.831923 
	C422.770233,13.570364 422.770233,12.159805 422.770233,9.868925 
	C416.253479,9.868925 409.971100,9.868925 402.747070,9.846472 
z"/>
<path fill="#9B9B9B" opacity="1.000000" stroke="none" 
	d="
M87.468658,433.000000 
	C90.511024,429.354156 93.873253,425.548767 97.569565,422.101593 
	C102.539909,417.466309 107.859840,413.206299 112.839592,408.580536 
	C114.787643,406.770966 116.360962,406.090271 118.952797,407.346497 
	C125.676895,410.605591 132.537979,413.582062 139.659393,416.824219 
	C135.661530,422.087830 131.348709,427.198547 127.017944,432.654633 
	C113.979103,433.000000 100.958214,433.000000 87.468658,433.000000 
z"/>
<path fill="#252525" opacity="1.000000" stroke="none" 
	d="
M67.533142,1.000000 
	C65.708717,3.068225 63.596142,5.387761 61.097542,7.164424 
	C43.108849,19.955534 25.054319,32.654316 6.978174,45.321735 
	C5.385169,46.438080 3.488518,47.121128 1.366450,48.002716 
	C1.000000,44.638714 1.000000,41.277424 1.340088,37.390335 
	C13.851319,28.353615 26.051565,19.883865 38.178940,11.311031 
	C42.870953,7.994251 47.397869,4.443926 52.000000,1.000000 
	C57.022091,1.000000 62.044186,1.000000 67.533142,1.000000 
z"/>
<path fill="#333333" opacity="1.000000" stroke="none" 
	d="
M51.531349,1.000000 
	C47.397869,4.443926 42.870953,7.994251 38.178940,11.311031 
	C26.051565,19.883865 13.851319,28.353615 1.340088,36.932266 
	C1.000000,31.311960 1.000000,25.623919 1.342837,19.401894 
	C8.755533,14.268482 15.864169,9.726799 22.865492,5.025307 
	C24.436335,3.970462 25.631750,2.356540 27.000000,1.000000 
	C35.020901,1.000000 43.041798,1.000000 51.531349,1.000000 
z"/>
<path fill="#9A9A9A" opacity="1.000000" stroke="none" 
	d="
M513.000000,401.531738 
	C505.087585,399.393463 497.175171,396.786896 488.586853,393.957703 
	C491.892090,389.647400 494.372803,386.412323 496.951355,382.885132 
	C502.064087,382.798981 507.079010,383.004974 512.546997,383.105469 
	C513.000000,389.021149 513.000000,395.042297 513.000000,401.531738 
z"/>
<path fill="#A79D76" opacity="1.000000" stroke="none" 
	d="
M194.197388,8.042240 
	C194.197388,12.001472 194.197388,15.960705 194.197388,20.247356 
	C187.629135,20.247356 181.715271,20.247356 175.001266,20.247356 
	C175.001266,14.071134 175.001266,8.004015 175.000641,1.468448 
	C177.700012,1.000000 180.400024,1.000000 183.536438,1.440411 
	C183.216309,6.470140 184.901260,8.710393 189.781998,8.079563 
	C191.231186,7.892256 192.724365,8.045203 194.197388,8.042240 
z"/>
<path fill="#C6CBA6" opacity="1.000000" stroke="none" 
	d="
M194.572433,8.164346 
	C192.724365,8.045203 191.231186,7.892256 189.781998,8.079563 
	C184.901260,8.710393 183.216309,6.470140 183.986420,1.440411 
	C196.687561,1.000000 209.375122,1.000000 222.531342,1.000000 
	C222.965698,1.490358 222.931915,1.980755 222.896988,2.471069 
	C222.371628,9.845141 222.371597,9.845139 214.107132,9.775099 
	C209.047668,9.488506 204.792465,9.307261 200.537277,9.126017 
	C198.674011,8.846162 196.810745,8.566306 194.572433,8.164346 
z"/>
<path fill="#9C9C9C" opacity="1.000000" stroke="none" 
	d="
M267.468628,433.000000 
	C270.897003,428.849213 274.794037,424.698456 278.859497,420.256653 
	C288.681335,424.072235 298.334686,428.178864 307.994019,432.642761 
	C294.645782,433.000000 281.291534,433.000000 267.468628,433.000000 
z"/>
<path fill="#9B9B9B" opacity="1.000000" stroke="none" 
	d="
M463.173798,423.819489 
	C465.062500,419.013092 468.067444,417.231293 473.221436,419.511475 
	C483.324829,423.981293 493.589874,428.085754 503.894012,432.670715 
	C497.645599,433.000000 491.291199,433.000000 484.468384,433.000000 
	C477.141449,430.005920 470.282898,427.011841 463.173798,423.819489 
z"/>
<path fill="#404040" opacity="1.000000" stroke="none" 
	d="
M26.536816,1.000000 
	C25.631750,2.356540 24.436335,3.970462 22.865492,5.025307 
	C15.864169,9.726799 8.755533,14.268482 1.342837,18.933956 
	C1.000000,15.969407 1.000000,12.938813 1.350139,9.394251 
	C5.800186,6.253521 9.900093,3.626761 14.000000,1.000000 
	C18.024544,1.000000 22.049089,1.000000 26.536816,1.000000 
z"/>
<path fill="#474747" opacity="1.000000" stroke="none" 
	d="
M400.550018,0.999999 
	C401.422119,2.636461 401.844238,4.272924 402.368286,6.304645 
	C398.290833,6.304645 394.897125,6.304645 390.858978,6.304645 
	C391.169373,4.690594 391.452576,3.217803 391.867889,1.372505 
	C394.700012,1.000000 397.400024,1.000000 400.550018,0.999999 
z"/>
<path fill="#574C41" opacity="1.000000" stroke="none" 
	d="
M13.523338,1.000000 
	C9.900093,3.626761 5.800186,6.253521 1.350139,8.940141 
	C1.000000,6.392302 1.000000,3.784604 1.000000,1.000000 
	C5.014524,1.000000 9.030601,1.000000 13.523338,1.000000 
z"/>
<path fill="#474747" opacity="1.000000" stroke="none" 
	d="
M413.571533,0.999997 
	C414.423523,2.634398 414.847015,4.268802 415.373535,6.300793 
	C412.298920,6.300793 409.901154,6.300793 406.847931,6.300793 
	C407.166656,4.669573 407.452728,3.205588 407.869385,1.370802 
	C409.714355,1.000000 411.428711,1.000000 413.571533,0.999997 
z"/>
<path fill="#FBFBFB" opacity="1.000000" stroke="none" 
	d="
M402.143951,143.793762 
	C398.020264,143.485046 394.369507,143.202438 390.065155,142.869247 
	C392.067505,108.484589 394.066864,74.151459 396.103455,39.179008 
	C429.306549,41.110645 462.309418,43.030636 495.945221,44.987446 
	C493.932983,79.524727 491.932373,113.862564 489.897888,148.781693 
	C460.660431,147.119583 431.638672,145.469727 402.143951,143.793762 
M442.290710,109.999214 
	C442.290710,118.711189 442.290710,127.423164 442.290710,136.732574 
	C448.870911,136.732574 455.899231,136.732574 463.245300,136.732574 
	C463.732269,126.470879 464.217865,116.238106 464.725464,105.541969 
	C459.633789,105.303093 454.856049,105.078941 450.011200,103.952522 
	C450.011200,100.641136 450.011200,97.329750 450.011200,93.315704 
	C436.368652,93.315704 422.985901,93.315704 409.258026,93.315704 
	C409.258026,98.039085 409.258026,102.978218 409.258026,109.109886 
	C420.145416,109.109886 431.079803,109.109886 442.290710,109.999214 
M404.991516,79.635826 
	C404.844788,82.874260 404.698029,86.112701 404.534180,89.728844 
	C409.228577,90.174583 413.616699,90.757339 418.022919,90.977203 
	C429.397766,91.544792 429.400970,91.480759 430.981140,79.897987 
	C442.219971,80.398872 453.458832,80.899765 464.956879,81.412201 
	C465.344513,76.965477 465.687836,73.026878 466.965759,69.091827 
	C471.086731,69.091827 475.207703,69.091827 479.662415,69.091827 
	C479.662415,63.955730 479.662415,58.921597 479.662415,53.645416 
	C475.132843,53.358765 470.852356,53.087875 466.640167,51.933765 
	C465.242401,51.047756 463.893402,49.491959 462.438873,49.386101 
	C453.969543,48.769756 445.478851,48.294308 436.988953,48.151505 
	C425.404724,47.956654 413.814728,48.102882 401.749481,48.102882 
	C401.305664,57.418919 400.817413,67.666870 400.314911,78.214607 
	C402.042023,78.403168 403.495483,78.561859 404.991516,79.635826 
M470.276093,90.059174 
	C473.053986,90.059174 475.831879,90.059174 478.749390,90.059174 
	C478.749390,88.551903 478.749390,87.136833 478.749390,85.440468 
	C466.469116,84.796944 454.426514,84.165878 442.252014,83.527893 
	C442.252014,85.479027 442.252014,86.888359 442.252014,88.524323 
	C451.446167,89.032593 460.394989,89.527313 470.276093,90.059174 
M413.616516,114.899117 
	C409.509186,114.899117 405.401855,114.899117 401.263367,114.899117 
	C401.263367,116.448776 401.263367,117.859619 401.263367,119.854561 
	C412.257843,119.854561 422.979736,119.854561 433.981720,119.854561 
	C433.921783,118.535088 433.857635,117.122589 433.757507,114.918488 
	C427.163971,114.918488 420.875122,114.918488 413.616516,114.899117 
M406.929840,126.623489 
	C406.547638,128.085739 406.165466,129.548004 405.580688,131.785355 
	C414.731567,131.785355 423.131409,131.785355 431.782104,131.785355 
	C431.782104,130.627319 431.782104,129.205078 431.782104,126.572746 
	C423.677277,126.572746 415.721832,126.572746 406.929840,126.623489 
M456.177429,99.538971 
	C463.273712,99.538971 470.369965,99.538971 477.740417,99.538971 
	C477.740417,98.680099 477.740417,97.266678 477.740417,95.215240 
	C470.255707,95.215240 462.864868,95.215240 455.021027,95.215240 
	C455.124481,96.399590 455.247620,97.808792 456.177429,99.538971 
z"/>
<path fill="#FDFDFD" opacity="1.000000" stroke="none" 
	d="
M330.991974,15.881415 
	C334.791595,15.881415 338.591248,15.881415 343.019318,15.881415 
	C342.323120,36.667801 341.641357,57.024551 340.938416,78.012581 
	C320.332367,77.322800 299.977417,76.641434 278.987854,75.938812 
	C279.677216,55.336193 280.358307,34.981251 281.023712,15.094707 
	C292.863770,15.094707 304.433319,15.094707 316.446716,15.344175 
	C316.726288,15.890120 316.720856,16.189495 316.412781,16.501472 
	C309.815308,16.511171 303.679352,16.511171 297.034821,16.511171 
	C297.034821,21.512875 296.965576,26.140480 297.121246,30.760500 
	C297.141022,31.347570 298.337402,31.894991 298.990051,32.859039 
	C298.984253,34.857082 298.977142,36.456875 298.509888,38.034714 
	C294.789307,38.012760 291.528870,38.012760 288.297882,38.012760 
	C288.297882,48.966011 288.297882,59.337730 288.297882,69.692276 
	C295.974030,69.692276 303.352783,69.692276 310.958099,69.692276 
	C310.958099,62.604214 310.958099,55.817268 311.420135,49.026821 
	C313.357697,49.048363 314.860107,48.902798 316.303711,49.130306 
	C320.708099,49.824425 322.175415,47.900448 321.941193,43.655956 
	C321.734070,39.902042 322.056091,36.118931 322.579193,32.391052 
	C325.592804,32.433395 328.171753,32.433395 330.887299,32.433395 
	C330.887299,26.939014 330.887299,22.020239 330.930603,16.797920 
	C330.979919,16.290060 330.985931,16.085737 330.991974,15.881415 
M335.071198,56.441494 
	C334.380310,55.414955 333.731323,53.535137 332.991821,53.498810 
	C327.752411,53.241436 322.494415,53.361877 317.164398,53.361877 
	C317.164398,55.363136 317.164398,56.791729 317.164398,58.657242 
	C320.515961,58.657242 323.649811,58.829540 326.755127,58.605904 
	C329.530273,58.406044 332.273987,57.769253 335.071198,56.441494 
z"/>
<path fill="#FBFBFA" opacity="1.000000" stroke="none" 
	d="
M254.806870,90.174583 
	C254.806870,95.776062 254.806870,101.377533 254.806870,107.482010 
	C236.612381,106.452095 219.557098,105.486671 201.519363,104.465637 
	C202.588470,83.710564 203.636292,63.368568 204.707672,42.569225 
	C213.578354,43.066051 221.855133,43.529617 230.591095,44.469978 
	C231.033340,46.342979 231.016388,47.739178 230.530930,49.136086 
	C223.113876,49.136795 216.165359,49.136795 207.751099,49.136795 
	C207.751099,58.938351 207.660461,68.546547 207.909027,78.145950 
	C207.930847,78.988701 210.130157,80.387398 211.395355,80.480774 
	C217.202835,80.909378 223.037796,80.965622 228.907959,81.593460 
	C228.953049,84.425194 228.953049,86.818985 228.953049,90.174583 
	C237.994385,90.174583 246.400635,90.174583 254.806870,90.174583 
M238.978729,100.628044 
	C239.838577,99.182167 240.698441,97.736298 241.975601,95.588699 
	C230.782227,95.588699 221.053238,95.588699 211.130127,95.588699 
	C211.130127,97.269913 211.130127,98.715454 211.130127,100.643379 
	C220.221207,100.643379 229.145554,100.643379 238.978729,100.628044 
M224.913040,86.455841 
	C220.352249,86.455841 215.791458,86.455841 211.200012,86.455841 
	C211.200012,88.413948 211.200012,89.828735 211.200012,91.411026 
	C216.202988,91.411026 220.939758,91.411026 226.121277,91.411026 
	C225.967743,89.710304 225.838715,88.280968 224.913040,86.455841 
z"/>
<path fill="#F7F7F6" opacity="1.000000" stroke="none" 
	d="
M364.689117,138.132965 
	C364.344482,142.245499 363.999817,146.358032 363.614258,150.958633 
	C354.417511,150.274841 345.507660,149.612366 335.775604,148.888779 
	C337.264740,128.432800 338.745361,108.093529 340.276123,87.065514 
	C349.509216,87.737862 358.534637,88.395088 368.229126,89.101044 
	C367.444733,99.904785 366.677795,110.468575 365.575195,121.466812 
	C364.860413,121.891647 364.481293,121.882034 364.037720,121.417358 
	C364.180847,115.668007 364.376312,110.373199 364.602234,105.079704 
	C364.685699,103.124504 364.860138,101.155174 361.688354,101.956345 
	C361.529572,101.908173 361.198669,101.882439 360.834045,101.664551 
	C355.091949,101.206863 349.714478,100.967072 343.936829,100.709442 
	C343.572784,107.598007 343.204285,113.685669 342.945862,119.777992 
	C342.778900,123.714630 341.179932,129.225357 343.111511,131.188919 
	C345.361450,133.476105 350.763336,132.662659 354.827209,133.620300 
	C354.533508,136.372192 355.174316,137.743607 357.894043,137.687073 
	C360.154999,137.640076 362.423798,137.970001 364.689117,138.132965 
M361.600403,93.743599 
	C356.214020,93.318321 350.827637,92.893044 345.221527,92.450417 
	C345.221527,94.462990 345.221527,95.873703 345.221527,97.596779 
	C350.844910,97.875694 356.234314,98.142998 361.787689,98.418442 
	C361.878845,96.768280 361.941742,95.629631 361.600403,93.743599 
M348.790344,140.922348 
	C346.688477,140.827789 344.586639,140.733215 342.240021,140.627625 
	C342.240021,142.413208 342.240021,143.829102 342.240021,145.556763 
	C347.461456,145.851837 352.507416,146.136978 357.787781,146.435394 
	C357.787781,144.543884 357.787781,143.135315 357.787781,141.491821 
	C354.939667,141.306335 352.311798,141.135208 348.790344,140.922348 
z"/>
<path fill="#A19770" opacity="1.000000" stroke="none" 
	d="
M162.233826,126.865616 
	C157.359299,127.294525 155.527466,125.661064 155.756363,120.909393 
	C156.138000,112.987015 155.860474,105.032890 155.860474,97.222153 
	C166.008942,97.222153 175.259964,97.125168 184.503769,97.339615 
	C185.718094,97.367783 187.907120,98.961136 187.933273,99.878349 
	C188.192123,108.957848 188.089905,118.047630 188.089905,126.873932 
	C178.952698,126.873932 170.829361,126.873932 162.233826,126.865616 
M165.619965,120.008957 
	C168.600906,120.007462 171.588303,119.882919 174.561020,120.038483 
	C177.638123,120.199501 179.191788,119.217644 179.046677,115.848679 
	C178.861572,111.550827 178.887985,107.235077 179.037918,102.934532 
	C179.146072,99.832520 177.719116,98.870987 174.841873,98.968597 
	C171.037338,99.097664 167.214767,99.170410 163.418991,98.945770 
	C159.815582,98.732513 158.785004,100.361839 158.951736,103.669487 
	C159.134903,107.303604 159.268188,110.980499 158.922775,114.590881 
	C158.484985,119.166840 160.491486,120.601608 165.619965,120.008957 
z"/>
<path fill="#704D44" opacity="1.000000" stroke="none" 
	d="
M255.236664,90.138031 
	C246.400635,90.174583 237.994385,90.174583 228.953049,90.174583 
	C228.953049,86.818985 228.953049,84.425194 228.946564,81.151474 
	C229.071838,78.076828 229.203613,75.882126 229.326569,73.834099 
	C233.020279,73.834099 236.080093,73.834099 239.597961,73.866524 
	C245.397964,73.940529 250.739944,73.982117 256.081909,74.023697 
	C258.715729,73.865570 260.132507,74.899460 260.014832,77.745094 
	C259.905579,80.386986 259.865570,83.044403 260.022766,85.681412 
	C260.214172,88.892471 258.804626,90.289429 255.236664,90.138031 
z"/>
<path fill="#FCFBFB" opacity="1.000000" stroke="none" 
	d="
M256.097900,73.592255 
	C250.739944,73.982117 245.397964,73.940529 239.523590,73.433754 
	C239.027679,70.319092 239.064209,67.669624 239.536285,65.081558 
	C244.757797,66.044044 246.423477,64.063995 246.058029,59.278278 
	C245.696884,54.549091 245.999878,49.769188 246.011536,45.011532 
	C249.782608,45.183720 253.553665,45.355904 257.739227,45.547016 
	C257.178864,55.067101 256.646393,64.113953 256.097900,73.592255 
z"/>
<path fill="#6F4D43" opacity="1.000000" stroke="none" 
	d="
M364.102142,121.872421 
	C364.481293,121.882034 364.860413,121.891647 365.525146,121.894341 
	C367.133698,121.925758 368.456451,121.984390 369.779633,121.999084 
	C378.009552,122.090469 378.009583,122.087212 378.000366,130.214294 
	C377.991760,137.802338 377.991760,137.802338 365.172943,138.102112 
	C362.423798,137.970001 360.154999,137.640076 357.894043,137.687073 
	C355.174316,137.743607 354.533508,136.372192 354.870514,133.150162 
	C355.231659,121.867661 355.231659,121.867661 364.102142,121.872421 
z"/>
<path fill="#C6CBA5" opacity="1.000000" stroke="none" 
	d="
M245.685822,44.755615 
	C245.999878,49.769188 245.696884,54.549091 246.058029,59.278278 
	C246.423477,64.063995 244.757797,66.044044 239.082367,65.116760 
	C231.011566,65.146942 231.010300,65.146942 231.001160,58.130894 
	C230.997269,55.132393 230.999832,52.133884 230.999451,49.135380 
	C231.016388,47.739178 231.033340,46.342979 231.030334,44.529072 
	C235.793625,44.240814 240.576874,44.370258 245.685822,44.755615 
z"/>
<path fill="#BEC29E" opacity="1.000000" stroke="none" 
	d="
M270.134094,105.986740 
	C269.413818,105.410889 268.083099,104.850883 268.067657,104.256729 
	C267.912567,98.283218 267.973267,92.304108 267.973267,86.206146 
	C276.680328,86.206146 284.836456,86.206146 292.909790,86.206146 
	C292.909790,93.543045 292.909790,100.138779 292.909790,107.592148 
	C286.882416,107.280472 281.327972,106.993248 275.861176,106.216713 
	C279.169128,105.362038 282.389435,104.996674 285.597565,104.632690 
	C285.961151,102.713783 286.317535,100.832977 286.792328,98.524368 
	C286.628632,91.366661 281.564362,95.397125 278.802856,94.762413 
	C275.415527,93.983856 275.928070,96.787308 276.135376,99.335670 
	C274.055939,100.116425 272.166473,100.512123 270.134094,100.937752 
	C270.134094,102.719643 270.134094,104.353188 270.134094,105.986740 
M275.872192,92.773117 
	C279.679443,92.930130 283.498627,92.950638 287.290527,93.282677 
	C291.052155,93.612053 291.489532,91.861992 290.410095,88.304588 
	C284.447174,88.304588 278.433990,88.304588 272.420776,88.304588 
	C272.087250,88.671509 271.753693,89.038437 271.420166,89.405357 
	C272.601685,90.508698 273.783203,91.612038 275.872192,92.773117 
z"/>
<path fill="#494A45" opacity="1.000000" stroke="none" 
	d="
M270.559448,105.999527 
	C270.134094,104.353188 270.134094,102.719643 270.134094,100.937752 
	C272.166473,100.512123 274.055939,100.116425 276.565369,99.313843 
	C280.348175,98.922028 283.511017,98.937103 286.673889,98.952171 
	C286.317535,100.832977 285.961151,102.713783 285.597565,104.632690 
	C282.389435,104.996674 279.169128,105.362038 275.596680,105.920227 
	C273.824646,106.079475 272.404755,106.045898 270.559448,105.999527 
z"/>
<path fill="#B9ACAA" opacity="1.000000" stroke="none" 
	d="
M330.656250,15.646141 
	C330.985931,16.085737 330.979919,16.290060 330.473969,16.749016 
	C325.607422,16.833025 321.240845,16.662399 316.874268,16.491772 
	C316.720856,16.189495 316.726288,15.890120 316.910095,15.362659 
	C321.393280,15.224738 325.856903,15.317802 330.656250,15.646141 
z"/>
<path fill="#9A9A9A" opacity="1.000000" stroke="none" 
	d="
M124.785088,357.582336 
	C121.482849,361.202454 117.930565,364.614349 114.361183,368.008240 
	C111.339745,370.881134 108.266716,369.439545 105.206703,368.074066 
	C98.445709,365.057098 91.686584,362.035858 84.566666,358.984375 
	C84.153542,356.649231 84.100449,354.346130 84.049843,351.613464 
	C95.135704,351.919373 106.219070,352.654877 117.642708,353.616119 
	C120.164520,355.016693 122.346069,356.191498 124.785088,357.582336 
z"/>
<path fill="#9A9A9A" opacity="1.000000" stroke="none" 
	d="
M357.680389,372.056885 
	C353.853058,379.830841 353.830017,379.887665 346.150513,376.772217 
	C341.742004,374.983734 337.422638,372.975555 332.929901,370.760193 
	C340.955048,370.953491 349.113373,371.452850 357.680389,372.056885 
z"/>
<path fill="#9C9C9C" opacity="1.000000" stroke="none" 
	d="
M161.681183,392.874451 
	C155.079285,390.396332 148.738861,387.757385 140.813370,384.458740 
	C146.571548,379.363403 151.251419,375.222260 156.289307,370.907471 
	C162.634918,372.915344 168.622513,375.096802 175.854507,377.731689 
	C170.741287,383.238190 166.341965,387.975922 161.681183,392.874451 
z"/>
<path fill="#9C9C9C" opacity="1.000000" stroke="none" 
	d="
M247.800751,407.425537 
	C242.555481,413.035431 237.302643,418.731903 231.380722,423.617340 
	C229.953781,424.794525 226.310471,423.285156 223.304153,422.980042 
	C227.908981,417.284241 232.816177,411.546631 237.910126,405.979889 
	C241.549088,402.003113 244.363037,406.511139 247.800751,407.425537 
z"/>
<path fill="#9C9C9C" opacity="1.000000" stroke="none" 
	d="
M419.582825,398.081482 
	C425.691467,400.502380 431.538025,403.137817 437.683258,405.907867 
	C436.390289,407.882996 435.242706,409.636108 434.026428,411.733765 
	C427.921875,409.708282 421.885956,407.338257 415.214966,404.718872 
	C416.917145,402.056122 418.118958,400.176086 419.582825,398.081482 
z"/>
<path fill="#7F7163" opacity="1.000000" stroke="none" 
	d="
M135.973068,137.987762 
	C135.981750,138.980545 135.995926,139.973297 135.998260,140.966095 
	C136.023361,151.600006 136.044998,151.289337 146.981720,152.069092 
	C161.114548,153.076721 175.207596,154.642700 189.718597,156.466705 
	C189.523209,165.890854 189.013824,174.823776 188.277817,183.737961 
	C188.057465,186.406586 188.557892,187.846863 191.528305,187.953583 
	C197.984161,188.185532 204.434158,188.580154 210.907959,189.347824 
	C210.659149,192.258469 210.416885,194.733032 210.111542,197.199768 
	C209.747040,200.144287 210.450760,201.791626 213.959396,202.020309 
	C226.373611,202.829453 238.768356,203.937622 251.170319,204.934677 
	C273.165253,206.702957 295.160065,208.472839 317.154938,210.242065 
	C316.752502,217.542297 316.350098,224.842545 315.479614,232.604263 
	C304.713928,232.874619 304.713928,232.874619 303.166138,242.144836 
	C284.503906,241.047073 266.276184,240.006485 248.051834,238.909851 
	C237.284637,238.261948 226.521530,237.544083 215.758789,236.824432 
	C196.887100,235.562515 178.023895,234.158920 159.143005,233.056976 
	C151.854477,232.631607 151.466705,233.382431 151.025864,240.780716 
	C150.404160,251.214600 149.629517,261.639374 148.472366,272.058594 
	C133.310791,270.895874 118.597115,269.742584 103.410095,268.552155 
	C103.163681,271.964050 102.939651,275.066162 102.311218,278.113525 
	C96.317719,277.312500 90.728615,276.566162 85.139503,275.819855 
	C85.462288,259.488281 85.785065,243.156693 86.576004,226.387695 
	C97.266579,226.938217 107.482002,228.007233 117.713463,228.890305 
	C127.122177,229.702362 136.552872,230.257751 145.964111,231.043121 
	C149.539062,231.341461 150.968536,230.124054 151.098129,226.352341 
	C151.308197,220.238953 151.998520,214.129547 152.748016,208.050751 
	C153.502472,201.931458 153.221771,201.427185 146.872101,200.340424 
	C147.188309,194.077454 147.502350,188.269775 147.792709,182.460907 
	C148.207718,174.158981 148.581757,165.854950 149.023926,157.554520 
	C149.168777,154.835358 148.528198,153.180099 145.292679,153.023773 
	C125.871368,152.085205 106.456886,151.005295 87.040123,149.972748 
	C87.384293,136.018082 87.728462,122.063400 88.500206,107.688705 
	C101.306534,108.202904 113.685287,109.137123 126.060295,110.518173 
	C125.687279,116.255608 125.304298,121.545311 124.951561,126.837029 
	C124.197014,138.156815 124.203423,138.157242 135.973068,137.987762 
z"/>
<path fill="#333333" opacity="1.000000" stroke="none" 
	d="
M31.348789,280.063354 
	C31.895927,278.440033 32.903137,276.822205 32.922550,275.192596 
	C33.348743,239.419205 33.622017,203.644043 34.018562,167.870255 
	C34.272984,144.917557 34.639023,121.965866 35.029705,99.014984 
	C35.284355,84.055275 35.765171,69.098862 35.930534,54.138607 
	C35.967346,50.807922 36.830963,48.531742 39.756966,46.717979 
	C43.828228,44.194302 47.632015,41.239117 52.439140,37.840149 
	C52.676712,40.269161 52.976078,41.929379 52.980038,43.590302 
	C53.014191,57.911633 53.117069,72.234406 52.962585,86.554192 
	C52.743706,106.842773 52.315235,127.129051 51.991333,147.416550 
	C51.648827,168.869431 51.331760,190.322723 50.989029,211.775604 
	C50.664913,232.063110 50.318378,252.350235 49.988209,272.637665 
	C49.652618,293.257965 48.550282,313.905029 49.256706,334.489807 
	C49.756634,349.057434 41.917969,357.357422 31.138058,364.491150 
	C30.373461,358.326080 30.049839,352.559387 29.784569,346.327240 
	C30.226419,342.581696 30.609917,339.301605 31.226349,335.676880 
	C31.638582,329.914093 31.995308,324.494110 31.938883,319.078491 
	C31.896656,315.025665 31.321951,310.978394 30.989918,306.746368 
	C30.995497,306.564087 31.019417,306.200134 31.028019,305.711487 
	C31.140675,296.836334 31.244732,288.449829 31.348789,280.063354 
z"/>
<path fill="#252525" opacity="1.000000" stroke="none" 
	d="
M59.572617,403.374573 
	C59.012821,402.810394 58.453026,402.246185 57.783424,401.394409 
	C58.103413,399.246277 58.885075,397.389618 58.905979,395.524475 
	C59.042652,383.328979 59.014641,371.131622 59.260937,358.121643 
	C59.645878,356.500153 59.936337,355.695007 59.956539,354.883118 
	C60.651104,326.975525 61.312794,299.067108 61.996071,271.159241 
	C62.305122,258.536285 62.670204,245.914719 62.974213,233.291656 
	C63.658363,204.884399 64.313148,176.476440 64.994423,148.069107 
	C65.305130,135.113342 65.693878,122.159340 65.969215,109.202888 
	C66.350639,91.254578 66.611710,73.303642 67.016968,55.355927 
	C67.230591,45.895130 67.640877,36.438774 67.962364,26.980415 
	C70.819473,24.761524 73.676590,22.542631 77.940125,19.231478 
	C77.940125,25.647820 78.030373,30.659800 77.922264,35.667496 
	C77.656555,47.975334 77.249847,60.280155 76.990974,72.588104 
	C76.609474,90.726364 76.377335,108.867928 75.954102,127.005104 
	C75.368134,152.116180 74.648666,177.224106 74.014244,202.334091 
	C73.329369,229.441025 72.675125,256.548737 72.010483,283.656158 
	C71.651619,298.292480 71.305031,312.929108 70.942108,327.565308 
	C70.331970,352.171051 69.713211,376.776581 69.175446,401.875427 
	C69.141205,402.647217 68.965988,402.877350 68.055771,403.113281 
	C64.780449,403.236511 62.176533,403.305542 59.572617,403.374573 
z"/>
<path fill="#574C41" opacity="1.000000" stroke="none" 
	d="
M87.019745,150.443314 
	C106.456886,151.005295 125.871368,152.085205 145.292679,153.023773 
	C148.528198,153.180099 149.168777,154.835358 149.023926,157.554520 
	C148.581757,165.854950 148.207718,174.158981 147.792709,182.460907 
	C147.502350,188.269775 147.188309,194.077454 146.448975,200.383148 
	C126.337738,199.243134 106.662331,197.605637 86.986931,195.968140 
	C86.991074,180.950058 86.995216,165.931961 87.019745,150.443314 
z"/>
<path fill="#A0958A" opacity="1.000000" stroke="none" 
	d="
M86.906433,196.411453 
	C106.662331,197.605637 126.337738,199.243134 146.436249,200.837921 
	C153.221771,201.427185 153.502472,201.931458 152.748016,208.050751 
	C151.998520,214.129547 151.308197,220.238953 151.098129,226.352341 
	C150.968536,230.124054 149.539062,231.341461 145.964111,231.043121 
	C136.552872,230.257751 127.122177,229.702362 117.713463,228.890305 
	C107.482002,228.007233 97.266579,226.938217 86.630539,225.914276 
	C86.419922,216.203751 86.622932,206.529266 86.906433,196.411453 
z"/>
<path fill="#333333" opacity="1.000000" stroke="none" 
	d="
M67.653091,27.135790 
	C67.640877,36.438774 67.230591,45.895130 67.016968,55.355927 
	C66.611710,73.303642 66.350639,91.254578 65.969215,109.202888 
	C65.693878,122.159340 65.305130,135.113342 64.994423,148.069107 
	C64.313148,176.476440 63.658363,204.884399 62.974213,233.291656 
	C62.670204,245.914719 62.305122,258.536285 61.996071,271.159241 
	C61.312794,299.067108 60.651104,326.975525 59.956539,354.883118 
	C59.936337,355.695007 59.645878,356.500153 59.255341,357.652832 
	C58.351059,356.242340 57.093086,354.490875 57.082760,352.732025 
	C56.954613,330.906982 56.882458,309.079895 57.048519,287.255249 
	C57.229588,263.457977 57.695637,239.662994 57.999424,215.866531 
	C58.358501,187.738815 58.664627,159.610428 59.016548,131.482605 
	C59.330952,106.353355 59.623722,81.223610 60.041111,56.095993 
	C60.162460,48.790699 60.775234,41.494652 60.978508,34.189236 
	C61.098225,29.886850 64.741264,29.138685 67.653091,27.135790 
z"/>
<path fill="#A0958A" opacity="1.000000" stroke="none" 
	d="
M139.932343,50.118401 
	C139.607727,59.750336 139.283096,69.382271 138.504578,79.510178 
	C135.345093,80.028572 132.639511,80.051010 129.510559,80.015808 
	C115.710266,79.004883 102.333336,78.051590 88.956398,77.098297 
	C88.990311,67.406601 89.024223,57.714909 89.540298,47.544819 
	C106.659096,48.083752 123.295715,49.101078 139.932343,50.118401 
z"/>
<path fill="#D9D6D6" opacity="1.000000" stroke="none" 
	d="
M29.726215,346.792725 
	C30.049839,352.559387 30.373461,358.326080 30.793461,364.552795 
	C30.053593,366.590332 29.217350,368.167847 28.265306,369.963776 
	C32.754372,374.700836 37.299561,379.497070 41.967747,384.605255 
	C31.994890,393.845001 21.899038,402.772827 11.495073,411.795471 
	C11.391492,390.125061 11.596024,368.359833 12.343794,346.163086 
	C18.500093,346.085266 24.113155,346.438995 29.726215,346.792725 
z"/>
<path fill="#574D42" opacity="1.000000" stroke="none" 
	d="
M88.951958,77.517426 
	C102.333336,78.051590 115.710266,79.004883 129.529266,80.457520 
	C129.219162,89.833839 128.466995,98.710808 127.474533,107.773880 
	C126.844170,108.663773 126.454109,109.367554 126.064041,110.071342 
	C113.685287,109.137123 101.306534,108.202904 88.530594,107.233391 
	C88.404778,97.444252 88.676147,87.690407 88.951958,77.517426 
z"/>
<path fill="#7F7163" opacity="1.000000" stroke="none" 
	d="
M12.987912,253.992523 
	C13.008808,234.991638 13.029704,215.990738 13.510958,196.485321 
	C19.622541,196.026321 25.273766,196.071869 30.924992,196.117416 
	C30.925013,215.798355 30.925034,235.479279 30.453197,255.609787 
	C24.316864,255.370407 18.652388,254.681473 12.987912,253.992523 
z"/>
<path fill="#574C41" opacity="1.000000" stroke="none" 
	d="
M14.148714,101.192307 
	C14.105515,90.394119 13.943060,79.593849 14.130637,68.799675 
	C14.163838,66.889145 15.146247,64.373741 16.568491,63.223133 
	C21.168392,59.501778 26.177452,56.286182 31.937422,52.237022 
	C31.937422,69.503387 31.937422,85.846336 31.507792,102.587860 
	C25.435013,102.388390 19.791862,101.790344 14.148714,101.192307 
z"/>
<path fill="#332E29" opacity="1.000000" stroke="none" 
	d="
M29.784569,346.327240 
	C24.113155,346.438995 18.500093,346.085266 12.415135,345.726746 
	C11.964051,332.471222 11.984863,319.220551 12.435726,305.502502 
	C18.916992,305.423492 24.968204,305.811798 31.019417,306.200134 
	C31.019417,306.200134 30.995497,306.564087 30.993435,307.223450 
	C30.992054,317.262390 30.992735,326.641968 30.993414,336.021545 
	C30.609917,339.301605 30.226419,342.581696 29.784569,346.327240 
z"/>
<path fill="#574C41" opacity="1.000000" stroke="none" 
	d="
M30.948292,195.638184 
	C25.273766,196.071869 19.622541,196.026321 13.509438,196.020432 
	C13.356090,183.031723 13.664619,170.003342 14.410444,156.525696 
	C20.257425,156.471268 25.667112,156.866119 31.076801,157.260986 
	C31.041731,169.893631 31.006660,182.526291 30.948292,195.638184 
z"/>
<path fill="#7F7163" opacity="1.000000" stroke="none" 
	d="
M139.963409,49.683655 
	C123.295715,49.101078 106.659096,48.083752 89.591934,47.085281 
	C89.131561,43.406094 89.101707,39.708046 89.079567,35.558868 
	C106.074387,35.404282 123.061501,35.700825 140.514832,35.991585 
	C140.652191,40.406841 140.323318,44.827877 139.963409,49.683655 
z"/>
<path fill="#A1968B" opacity="1.000000" stroke="none" 
	d="
M31.164001,156.824310 
	C25.667112,156.866119 20.257425,156.471268 14.409765,156.073380 
	C13.974838,146.375977 13.977881,136.681610 14.470438,126.508926 
	C20.481804,126.441666 26.003658,126.852707 31.525513,127.263756 
	C31.434076,136.971710 31.342642,146.679672 31.164001,156.824310 
z"/>
<path fill="#57514B" opacity="1.000000" stroke="none" 
	d="
M31.028019,305.711456 
	C24.968204,305.811798 18.916992,305.423492 12.434422,305.036194 
	C12.044786,296.579254 12.086509,288.121307 12.587212,279.275330 
	C19.005756,279.246704 24.965319,279.606110 30.924881,279.965515 
	C30.924883,279.965485 31.137957,280.001282 31.243372,280.032318 
	C31.244732,288.449829 31.140675,296.836334 31.028019,305.711456 
z"/>
<path fill="#9F9489" opacity="1.000000" stroke="none" 
	d="
M30.941969,279.499756 
	C24.965319,279.606110 19.005756,279.246704 12.636171,278.789612 
	C12.429022,270.746124 12.631893,262.800323 12.911339,254.423523 
	C18.652388,254.681473 24.316864,255.370407 30.403259,256.082733 
	C30.869802,263.748718 30.914429,271.391357 30.941969,279.499756 
z"/>
<path fill="#7D7063" opacity="1.000000" stroke="none" 
	d="
M31.626898,126.782402 
	C26.003658,126.852707 20.481804,126.441666 14.524277,126.046906 
	C14.083910,118.071732 14.079218,110.080284 14.111620,101.640564 
	C19.791862,101.790344 25.435013,102.388390 31.480495,103.064774 
	C31.831312,110.862419 31.779799,118.581734 31.626898,126.782402 
z"/>
<path fill="#574D42" opacity="1.000000" stroke="none" 
	d="
M85.101059,276.279785 
	C90.728615,276.566162 96.317719,277.312500 102.302841,278.484985 
	C102.443939,280.940491 102.189018,282.969818 101.934113,284.999207 
	C96.590050,284.667511 91.245987,284.335846 85.468231,284.005493 
	C85.043900,281.584442 85.053253,279.162079 85.101059,276.279785 
z"/>
<path fill="#A0958A" opacity="1.000000" stroke="none" 
	d="
M102.257103,285.272827 
	C102.189018,282.969818 102.443939,280.940491 102.707230,278.539703 
	C102.939651,275.066162 103.163681,271.964050 103.410095,268.552155 
	C118.597115,269.742584 133.310791,270.895874 148.799957,272.322876 
	C153.544937,272.821411 157.522751,272.948914 161.482590,273.286743 
	C191.097092,275.813507 220.703369,278.437927 250.323044,280.901672 
	C258.791626,281.606110 258.807953,281.409973 258.454193,289.720398 
	C258.281433,291.467987 258.108673,293.215607 257.899231,295.397278 
	C241.431686,294.793701 224.997253,293.808990 208.570938,292.703857 
	C190.981262,291.520477 173.402267,290.178802 155.813004,288.988800 
	C138.072281,287.788513 120.324684,286.689697 102.257103,285.272827 
z"/>
<path fill="#574C41" opacity="1.000000" stroke="none" 
	d="
M258.879944,289.773438 
	C258.807953,281.409973 258.791626,281.606110 250.323044,280.901672 
	C220.703369,278.437927 191.097092,275.813507 161.482590,273.286743 
	C157.522751,272.948914 153.544937,272.821411 149.247864,272.332275 
	C149.629517,261.639374 150.404160,251.214600 151.025864,240.780716 
	C151.466705,233.382431 151.854477,232.631607 159.143005,233.056976 
	C178.023895,234.158920 196.887100,235.562515 215.758789,236.824432 
	C226.521530,237.544083 237.284637,238.261948 248.051834,238.909851 
	C266.276184,240.006485 284.503906,241.047073 303.164764,242.541809 
	C303.148560,248.217758 302.789337,253.473206 302.212677,258.704712 
	C301.865967,261.850342 303.379944,262.720520 306.168182,262.876099 
	C311.753448,263.187744 317.328033,263.691864 322.907013,264.116547 
	C322.536743,271.915527 322.197174,279.716095 321.783264,287.512756 
	C321.576569,291.406342 320.014801,293.399475 315.528717,293.098206 
	C296.798950,291.840393 278.048553,290.889709 258.879944,289.773438 
z"/>
<path fill="#A0958A" opacity="1.000000" stroke="none" 
	d="
M323.351196,264.091370 
	C317.328033,263.691864 311.753448,263.187744 306.168182,262.876099 
	C303.379944,262.720520 301.865967,261.850342 302.212677,258.704712 
	C302.789337,253.473206 303.148560,248.217758 303.600708,242.575409 
	C304.713928,232.874619 304.713928,232.874619 315.466034,233.068359 
	C326.998108,234.039810 338.069061,235.092560 349.154449,235.961990 
	C383.920258,238.688660 418.694153,241.313309 453.455078,244.099945 
	C455.949921,244.299957 458.365509,245.488480 460.944855,246.577866 
	C460.381714,254.381393 459.457825,261.813232 459.100739,269.272217 
	C458.923645,272.971863 457.689209,274.341705 454.029358,274.059814 
	C438.617554,272.872681 423.193176,271.848846 407.781097,270.665100 
	C398.340729,269.939972 388.920319,268.955170 379.480316,268.224335 
	C360.922607,266.787628 342.357483,265.446716 323.351196,264.091370 
z"/>
<path fill="#A0958A" opacity="1.000000" stroke="none" 
	d="
M317.574280,210.198303 
	C295.160065,208.472839 273.165253,206.702957 251.170319,204.934677 
	C238.768356,203.937622 226.373611,202.829453 213.959396,202.020309 
	C210.450760,201.791626 209.747040,200.144287 210.111542,197.199768 
	C210.416885,194.733032 210.659149,192.258469 210.960693,188.921417 
	C211.333130,184.084854 211.918213,180.115784 211.943558,176.143143 
	C211.966827,172.497406 213.593185,171.616608 216.890076,171.906723 
	C227.641068,172.852814 238.405136,173.650726 249.164749,174.498123 
	C259.069000,175.278183 268.974030,176.048538 279.332214,176.872345 
	C292.698151,177.948807 305.602234,179.104004 318.526550,179.949722 
	C325.057617,180.377075 325.074188,180.123840 324.813538,186.776550 
	C324.209717,193.030487 323.323853,199.274673 323.107056,205.541992 
	C322.975403,209.347382 321.496735,210.605225 317.574280,210.198303 
z"/>
<path fill="#7F7163" opacity="1.000000" stroke="none" 
	d="
M325.294373,186.815918 
	C325.074188,180.123840 325.057617,180.377075 318.526550,179.949722 
	C305.602234,179.104004 292.698151,177.948807 279.451935,176.489136 
	C279.430908,172.040237 279.743652,168.023743 280.056396,164.007263 
	C293.605621,165.229156 307.155182,166.447037 320.703918,167.674423 
	C329.133942,168.438080 337.562378,169.219223 345.992035,169.986862 
	C357.062744,170.994995 368.133972,171.997528 379.636444,173.027023 
	C379.642822,178.481323 379.217682,183.911026 378.684509,189.818573 
	C360.976013,189.149368 343.375610,188.002319 325.294373,186.815918 
z"/>
<path fill="#584D42" opacity="1.000000" stroke="none" 
	d="
M279.633301,163.972412 
	C279.743652,168.023743 279.430908,172.040237 278.998444,176.439941 
	C268.974030,176.048538 259.069000,175.278183 249.164749,174.498123 
	C238.405136,173.650726 227.641068,172.852814 216.890076,171.906723 
	C213.593185,171.616608 211.966827,172.497406 211.943558,176.143143 
	C211.918213,180.115784 211.333130,184.084854 210.939301,188.481873 
	C204.434158,188.580154 197.984161,188.185532 191.528305,187.953583 
	C188.557892,187.846863 188.057465,186.406586 188.277817,183.737961 
	C189.013824,174.823776 189.523209,165.890854 190.147400,156.504913 
	C203.872971,157.138977 217.576218,158.167389 231.266479,159.346344 
	C244.459976,160.482559 257.640900,161.765198 270.825348,163.004959 
	C273.624786,163.268188 276.415466,163.624252 279.633301,163.972412 
z"/>
<path fill="#A0958A" opacity="1.000000" stroke="none" 
	d="
M126.060295,110.518173 
	C126.454109,109.367554 126.844170,108.663773 127.942070,107.874687 
	C131.420395,107.871429 134.190903,107.953476 136.961395,108.035515 
	C136.642426,117.718498 136.323456,127.401474 135.988785,137.536102 
	C124.203423,138.157242 124.197014,138.156815 124.951561,126.837029 
	C125.304298,121.545311 125.687279,116.255608 126.060295,110.518173 
z"/>
<path fill="#7E7163" opacity="1.000000" stroke="none" 
	d="
M137.200012,107.692276 
	C134.190903,107.953476 131.420395,107.871429 128.182373,107.688583 
	C128.466995,98.710808 129.219162,89.833839 129.952621,80.515167 
	C132.639511,80.051010 135.345093,80.028572 138.495239,79.971619 
	C138.439392,89.074402 137.939011,98.211716 137.200012,107.692276 
z"/>
<path fill="#404040" opacity="1.000000" stroke="none" 
	d="
M213.107819,18.930431 
	C227.866257,19.442623 242.140274,19.944105 256.756226,20.457600 
	C256.841003,22.091953 256.914032,23.499887 257.016357,25.473244 
	C238.320175,24.831697 219.947052,24.201237 201.233337,23.559090 
	C201.155106,21.900761 201.088699,20.492931 201.014481,18.919722 
	C205.072098,18.919722 208.847748,18.919722 213.107819,18.930431 
z"/>
<path fill="#414141" opacity="1.000000" stroke="none" 
	d="
M248.528152,17.234982 
	C239.620117,17.220333 231.165237,17.220333 222.390610,17.220333 
	C222.193665,14.985456 222.071640,13.600868 221.941360,12.122629 
	C233.271622,12.122629 244.300690,12.122629 255.669464,12.122629 
	C255.819000,14.047120 255.927261,15.440539 256.067810,17.249628 
	C253.501709,17.249628 251.241516,17.249628 248.528152,17.234982 
z"/>
<path fill="#494949" opacity="1.000000" stroke="none" 
	d="
M200.363068,9.516935 
	C204.792465,9.307261 209.047668,9.488506 213.672150,9.834198 
	C213.974258,11.422545 213.907074,12.846446 213.834747,14.379335 
	C209.142731,14.379335 204.774353,14.379335 200.188858,14.379335 
	C200.188858,12.757252 200.188858,11.332553 200.363068,9.516935 
z"/>
<path fill="#494949" opacity="1.000000" stroke="none" 
	d="
M59.707954,403.682800 
	C62.176533,403.305542 64.780449,403.236511 67.869637,403.229309 
	C66.916374,404.851562 65.477852,406.412018 63.635643,408.410339 
	C62.136688,406.663574 60.989990,405.327301 59.707954,403.682800 
z"/>
<path fill="#714F46" opacity="1.000000" stroke="none" 
	d="
M427.555634,18.484442 
	C426.621216,13.340693 426.147980,8.265179 425.679443,3.240010 
	C436.910797,3.240010 447.146667,3.240010 457.704285,3.240010 
	C457.704285,8.853834 457.704285,13.876266 457.704285,18.552675 
	C447.548096,18.552675 437.782440,18.552675 427.555634,18.484442 
M443.463196,4.021706 
	C439.646332,3.996735 435.816132,3.789824 432.021423,4.067599 
	C431.001740,4.142241 430.089996,5.691848 429.128693,6.564382 
	C430.014832,7.342227 430.877167,8.761100 431.790955,8.795015 
	C438.255310,9.034939 444.732239,9.081387 451.199310,8.933270 
	C452.103485,8.912561 452.975555,7.491334 453.862488,6.718412 
	C452.878632,5.885898 451.997345,4.556884 450.888824,4.327879 
	C448.808868,3.898178 446.597473,4.104717 443.463196,4.021706 
z"/>
<path fill="#424242" opacity="1.000000" stroke="none" 
	d="
M403.217896,9.857698 
	C409.971100,9.868925 416.253479,9.868925 422.770233,9.868925 
	C422.770233,12.159805 422.770233,13.570364 422.770233,14.831923 
	C413.204803,14.831923 403.821777,14.831923 394.217651,14.831923 
	C394.217651,12.827326 394.217651,11.413174 394.217651,9.846472 
	C397.193451,9.846472 399.970245,9.846472 403.217896,9.857698 
z"/>
<path fill="#3F573E" opacity="1.000000" stroke="none" 
	d="
M466.031189,69.088280 
	C465.687836,73.026878 465.344513,76.965477 464.956879,81.412201 
	C453.458832,80.899765 442.219971,80.398872 430.565063,79.456451 
	C430.336761,76.562347 430.524597,74.109779 430.750854,71.155487 
	C422.515839,70.439423 414.520050,69.744164 406.112396,69.013084 
	C405.688629,72.549088 405.318787,75.634819 404.948975,78.720543 
	C403.495483,78.561859 402.042023,78.403168 400.314911,78.214607 
	C400.817413,67.666870 401.305664,57.418919 401.749481,48.102882 
	C413.814728,48.102882 425.404724,47.956654 436.988953,48.151505 
	C445.478851,48.294308 453.969543,48.769756 462.438873,49.386101 
	C463.893402,49.491959 465.242401,51.047756 466.100830,52.418106 
	C462.088776,52.930637 458.615479,52.928383 455.143372,52.992477 
	C442.529205,53.225327 444.170074,50.507954 443.978699,64.922005 
	C443.938171,67.973763 445.293060,68.993134 448.169342,68.968102 
	C454.122498,68.916275 460.077148,69.037949 466.031189,69.088280 
M416.583221,55.998207 
	C423.543701,56.000851 430.506805,56.099915 437.461975,55.909363 
	C438.594910,55.878323 439.692749,54.566750 440.806824,53.847046 
	C439.910797,52.920452 439.032959,51.209862 438.115967,51.188614 
	C429.006622,50.977562 419.889709,50.980186 410.778656,51.138844 
	C409.892548,51.154274 409.031677,52.620758 408.159088,53.413677 
	C408.988983,54.244034 409.693909,55.530113 410.677551,55.799934 
	C412.225647,56.224594 413.961395,55.965298 416.583221,55.998207 
z"/>
<path fill="#405840" opacity="1.000000" stroke="none" 
	d="
M450.078339,104.854790 
	C454.856049,105.078941 459.633789,105.303093 464.725464,105.541969 
	C464.217865,116.238106 463.732269,126.470879 463.245300,136.732574 
	C455.899231,136.732574 448.870911,136.732574 442.290710,136.732574 
	C442.290710,127.423164 442.290710,118.711189 442.584106,109.552139 
	C445.821686,108.609840 450.237152,110.607193 450.078339,104.854790 
z"/>
<path fill="#714F45" opacity="1.000000" stroke="none" 
	d="
M450.044769,104.403656 
	C450.237152,110.607193 445.821686,108.609840 442.445831,109.107475 
	C431.079803,109.109886 420.145416,109.109886 409.258026,109.109886 
	C409.258026,102.978218 409.258026,98.039085 409.258026,93.315704 
	C422.985901,93.315704 436.368652,93.315704 450.011200,93.315704 
	C450.011200,97.329750 450.011200,100.641136 450.044769,104.403656 
z"/>
<path fill="#6F4F45" opacity="1.000000" stroke="none" 
	d="
M466.498474,69.090057 
	C460.077148,69.037949 454.122498,68.916275 448.169342,68.968102 
	C445.293060,68.993134 443.938171,67.973763 443.978699,64.922005 
	C444.170074,50.507954 442.529205,53.225327 455.143372,52.992477 
	C458.615479,52.928383 462.088776,52.930637 466.066681,52.859718 
	C470.852356,53.087875 475.132843,53.358765 479.662415,53.645416 
	C479.662415,58.921597 479.662415,63.955730 479.662415,69.091827 
	C475.207703,69.091827 471.086731,69.091827 466.498474,69.090057 
z"/>
<path fill="#C5CAA5" opacity="1.000000" stroke="none" 
	d="
M404.970245,79.178185 
	C405.318787,75.634819 405.688629,72.549088 406.112396,69.013084 
	C414.520050,69.744164 422.515839,70.439423 430.750854,71.155487 
	C430.524597,74.109779 430.336761,76.562347 430.103821,79.417114 
	C429.400970,91.480759 429.397766,91.544792 418.022919,90.977203 
	C413.616699,90.757339 409.228577,90.174583 404.534180,89.728844 
	C404.698029,86.112701 404.844788,82.874260 404.970245,79.178185 
z"/>
<path fill="#424242" opacity="1.000000" stroke="none" 
	d="
M469.809967,90.040604 
	C460.394989,89.527313 451.446167,89.032593 442.252014,88.524323 
	C442.252014,86.888359 442.252014,85.479027 442.252014,83.527893 
	C454.426514,84.165878 466.469116,84.796944 478.749390,85.440468 
	C478.749390,87.136833 478.749390,88.551903 478.749390,90.059174 
	C475.831879,90.059174 473.053986,90.059174 469.809967,90.040604 
z"/>
<path fill="#414141" opacity="1.000000" stroke="none" 
	d="
M414.101379,114.908798 
	C420.875122,114.918488 427.163971,114.918488 433.757507,114.918488 
	C433.857635,117.122589 433.921783,118.535088 433.981720,119.854561 
	C422.979736,119.854561 412.257843,119.854561 401.263367,119.854561 
	C401.263367,117.859619 401.263367,116.448776 401.263367,114.899117 
	C405.401855,114.899117 409.509186,114.899117 414.101379,114.908798 
z"/>
<path fill="#424242" opacity="1.000000" stroke="none" 
	d="
M407.348145,126.598114 
	C415.721832,126.572746 423.677277,126.572746 431.782104,126.572746 
	C431.782104,129.205078 431.782104,130.627319 431.782104,131.785355 
	C423.131409,131.785355 414.731567,131.785355 405.580688,131.785355 
	C406.165466,129.548004 406.547638,128.085739 407.348145,126.598114 
z"/>
<path fill="#424242" opacity="1.000000" stroke="none" 
	d="
M455.774078,99.378479 
	C455.247620,97.808792 455.124481,96.399590 455.021027,95.215240 
	C462.864868,95.215240 470.255707,95.215240 477.740417,95.215240 
	C477.740417,97.266678 477.740417,98.680099 477.740417,99.538971 
	C470.369965,99.538971 463.273712,99.538971 455.774078,99.378479 
z"/>
<path fill="#3D563D" opacity="1.000000" stroke="none" 
	d="
M310.958099,49.030327 
	C310.958099,55.817268 310.958099,62.604214 310.958099,69.692276 
	C303.352783,69.692276 295.974030,69.692276 288.297882,69.692276 
	C288.297882,59.337730 288.297882,48.966011 288.297882,38.012760 
	C291.528870,38.012760 294.789307,38.012760 298.509003,38.473053 
	C298.968231,42.013855 298.968231,45.094368 298.968231,49.030327 
	C303.107269,49.030327 307.032684,49.030327 310.958099,49.030327 
M295.744537,51.027008 
	C293.062195,50.950676 290.789185,52.921494 292.426941,54.674587 
	C294.053741,56.415962 297.730438,56.480732 300.552582,56.694050 
	C301.231720,56.745384 302.356415,54.552212 302.716309,53.237923 
	C302.845825,52.765007 301.439087,51.494099 300.536957,51.208817 
	C299.332306,50.827862 297.936188,51.052425 295.744537,51.027008 
M293.585663,60.016903 
	C292.476288,62.937813 292.994781,65.199944 296.561035,64.841850 
	C298.412354,64.655952 301.466370,63.398762 301.668793,62.226810 
	C302.343384,58.321434 298.938721,59.151844 296.615845,59.059841 
	C295.820007,59.028320 295.011047,59.327255 293.585663,60.016903 
z"/>
<path fill="#6E4C41" opacity="1.000000" stroke="none" 
	d="
M316.412781,16.501472 
	C321.240845,16.662399 325.607422,16.833025 330.430664,17.052555 
	C330.887299,22.020239 330.887299,26.939014 330.887299,32.433395 
	C328.171753,32.433395 325.592804,32.433395 322.660248,32.086159 
	C321.574310,30.599237 320.879181,28.500311 320.103912,28.470289 
	C313.368561,28.209455 306.618866,28.319870 299.669220,28.319870 
	C299.412689,29.880634 299.200684,31.170710 298.988647,32.460785 
	C298.337402,31.894991 297.141022,31.347570 297.121246,30.760500 
	C296.965576,26.140480 297.034821,21.512875 297.034821,16.511171 
	C303.679352,16.511171 309.815308,16.511171 316.412781,16.501472 
z"/>
<path fill="#C5C9A4" opacity="1.000000" stroke="none" 
	d="
M298.990021,32.859039 
	C299.200684,31.170710 299.412689,29.880634 299.669220,28.319870 
	C306.618866,28.319870 313.368561,28.209455 320.103912,28.470289 
	C320.879181,28.500311 321.574310,30.599237 322.225555,32.043816 
	C322.056091,36.118931 321.734070,39.902042 321.941193,43.655956 
	C322.175415,47.900448 320.708099,49.824425 316.303711,49.130306 
	C314.860107,48.902798 313.357697,49.048363 311.420135,49.026821 
	C307.032684,49.030327 303.107269,49.030327 298.968231,49.030327 
	C298.968231,45.094368 298.968231,42.013855 298.969116,38.495003 
	C298.977142,36.456875 298.984253,34.857082 298.990021,32.859039 
M303.913971,29.325043 
	C299.555511,29.417139 301.095062,32.048553 301.352051,34.420097 
	C306.023102,34.420097 310.273407,34.420097 314.786560,34.420097 
	C314.786560,32.735672 314.786560,31.318344 314.786560,29.315405 
	C311.363312,29.315405 308.092529,29.315405 303.913971,29.325043 
z"/>
<path fill="#575757" opacity="1.000000" stroke="none" 
	d="
M335.051392,56.883373 
	C332.273987,57.769253 329.530273,58.406044 326.755127,58.605904 
	C323.649811,58.829540 320.515961,58.657242 317.164398,58.657242 
	C317.164398,56.791729 317.164398,55.363136 317.164398,53.361877 
	C322.494415,53.361877 327.752411,53.241436 332.991821,53.498810 
	C333.731323,53.535137 334.380310,55.414955 335.051392,56.883373 
z"/>
<path fill="#A59A72" opacity="1.000000" stroke="none" 
	d="
M230.530930,49.136086 
	C230.999832,52.133884 230.997269,55.132393 231.001160,58.130894 
	C231.010300,65.146942 231.011566,65.146942 238.646820,65.055367 
	C239.064209,67.669624 239.027679,70.319092 239.065552,73.401329 
	C236.080093,73.834099 233.020279,73.834099 229.326569,73.834099 
	C229.203613,75.882126 229.071838,78.076828 228.901489,80.713524 
	C223.037796,80.965622 217.202835,80.909378 211.395355,80.480774 
	C210.130157,80.387398 207.930847,78.988701 207.909027,78.145950 
	C207.660461,68.546547 207.751099,58.938351 207.751099,49.136795 
	C216.165359,49.136795 223.113876,49.136795 230.530930,49.136086 
z"/>
<path fill="#575757" opacity="1.000000" stroke="none" 
	d="
M238.524323,100.635712 
	C229.145554,100.643379 220.221207,100.643379 211.130127,100.643379 
	C211.130127,98.715454 211.130127,97.269913 211.130127,95.588699 
	C221.053238,95.588699 230.782227,95.588699 241.975601,95.588699 
	C240.698441,97.736298 239.838577,99.182167 238.524323,100.635712 
z"/>
<path fill="#575757" opacity="1.000000" stroke="none" 
	d="
M225.311371,86.653732 
	C225.838715,88.280968 225.967743,89.710304 226.121277,91.411026 
	C220.939758,91.411026 216.202988,91.411026 211.200012,91.411026 
	C211.200012,89.828735 211.200012,88.413948 211.200012,86.455841 
	C215.791458,86.455841 220.352249,86.455841 225.311371,86.653732 
z"/>
<path fill="#A69B74" opacity="1.000000" stroke="none" 
	d="
M364.037720,121.417358 
	C355.231659,121.867661 355.231659,121.867661 354.840698,132.724579 
	C350.763336,132.662659 345.361450,133.476105 343.111511,131.188919 
	C341.179932,129.225357 342.778900,123.714630 342.945862,119.777992 
	C343.204285,113.685669 343.572784,107.598007 343.936829,100.709442 
	C349.714478,100.967072 355.091949,101.206863 360.373718,101.802345 
	C357.783508,102.099411 355.269348,101.839775 352.804443,102.081818 
	C351.828918,102.177612 350.962952,103.388855 350.047119,104.092224 
	C350.926758,105.008957 351.694489,106.541252 352.707306,106.725357 
	C355.582947,107.248093 358.558655,107.220161 361.847168,107.431694 
	C361.847168,105.256569 361.847168,103.630547 361.847168,102.004524 
	C364.860138,101.155174 364.685699,103.124504 364.602234,105.079704 
	C364.376312,110.373199 364.180847,115.668007 364.037720,121.417358 
M351.140594,114.456665 
	C353.274780,114.533089 355.521088,115.032578 357.496277,114.509071 
	C358.497406,114.243744 359.009186,112.132172 359.742218,110.855278 
	C357.045044,110.588043 354.340271,110.130081 351.657990,110.236885 
	C351.198212,110.255203 350.834351,112.682312 351.140594,114.456665 
z"/>
<path fill="#434343" opacity="1.000000" stroke="none" 
	d="
M361.802521,94.117287 
	C361.941742,95.629631 361.878845,96.768280 361.787689,98.418442 
	C356.234314,98.142998 350.844910,97.875694 345.221527,97.596779 
	C345.221527,95.873703 345.221527,94.462990 345.221527,92.450417 
	C350.827637,92.893044 356.214020,93.318321 361.802521,94.117287 
z"/>
<path fill="#434343" opacity="1.000000" stroke="none" 
	d="
M349.237122,140.943207 
	C352.311798,141.135208 354.939667,141.306335 357.787781,141.491821 
	C357.787781,143.135315 357.787781,144.543884 357.787781,146.435394 
	C352.507416,146.136978 347.461456,145.851837 342.240021,145.556763 
	C342.240021,143.829102 342.240021,142.413208 342.240021,140.627625 
	C344.586639,140.733215 346.688477,140.827789 349.237122,140.943207 
z"/>
<path fill="#3D3C39" opacity="1.000000" stroke="none" 
	d="
M361.688354,101.956345 
	C361.847168,103.630547 361.847168,105.256569 361.847168,107.431694 
	C358.558655,107.220161 355.582947,107.248093 352.707306,106.725357 
	C351.694489,106.541252 350.926758,105.008957 350.047119,104.092224 
	C350.962952,103.388855 351.828918,102.177612 352.804443,102.081818 
	C355.269348,101.839775 357.783508,102.099411 360.738312,102.020233 
	C361.198669,101.882439 361.529572,101.908173 361.688354,101.956345 
z"/>
<path fill="#C7CCA5" opacity="1.000000" stroke="none" 
	d="
M165.144135,120.008804 
	C160.491486,120.601608 158.484985,119.166840 158.922775,114.590881 
	C159.268188,110.980499 159.134903,107.303604 158.951736,103.669487 
	C158.785004,100.361839 159.815582,98.732513 163.418991,98.945770 
	C167.214767,99.170410 171.037338,99.097664 174.841873,98.968597 
	C177.719116,98.870987 179.146072,99.832520 179.037918,102.934532 
	C178.887985,107.235077 178.861572,111.550827 179.046677,115.848679 
	C179.191788,119.217644 177.638123,120.199501 174.561020,120.038483 
	C171.588303,119.882919 168.600906,120.007462 165.144135,120.008804 
M165.026337,100.349854 
	C164.201706,101.809669 163.377090,103.269478 162.242218,105.278511 
	C168.017487,105.278511 172.379044,105.278511 177.116791,105.278511 
	C176.952103,103.442276 176.827988,102.058563 176.671432,100.312996 
	C172.839172,100.312996 169.376923,100.312996 165.026337,100.349854 
M163.276260,113.007790 
	C164.991302,113.247978 166.706345,113.488167 168.653717,113.760895 
	C168.653717,111.663910 168.653717,110.158699 168.653717,108.643684 
	C165.360703,108.177971 162.277771,107.404160 163.276260,113.007790 
z"/>
<path fill="#3F3F3D" opacity="1.000000" stroke="none" 
	d="
M275.418457,92.744247 
	C273.783203,91.612038 272.601685,90.508698 271.420166,89.405357 
	C271.753693,89.038437 272.087250,88.671509 272.420776,88.304588 
	C278.433990,88.304588 284.447174,88.304588 290.410095,88.304588 
	C291.489532,91.861992 291.052155,93.612053 287.290527,93.282677 
	C283.498627,92.950638 279.679443,92.930130 275.418457,92.744247 
z"/>
<path fill="#353735" opacity="1.000000" stroke="none" 
	d="
M286.792328,98.524368 
	C283.511017,98.937103 280.348175,98.922028 276.755310,98.928787 
	C275.928070,96.787308 275.415527,93.983856 278.802856,94.762413 
	C281.564362,95.397125 286.628632,91.366661 286.792328,98.524368 
z"/>
<path fill="#404040" opacity="1.000000" stroke="none" 
	d="
M31.226351,335.676880 
	C30.992735,326.641968 30.992054,317.262390 30.987858,307.405731 
	C31.321951,310.978394 31.896656,315.025665 31.938883,319.078491 
	C31.995308,324.494110 31.638582,329.914093 31.226351,335.676880 
z"/>
<path fill="#383636" opacity="1.000000" stroke="none" 
	d="
M443.951965,4.034177 
	C446.597473,4.104717 448.808868,3.898178 450.888824,4.327879 
	C451.997345,4.556884 452.878632,5.885898 453.862488,6.718411 
	C452.975555,7.491334 452.103485,8.912561 451.199310,8.933270 
	C444.732239,9.081387 438.255310,9.034939 431.790955,8.795015 
	C430.877167,8.761100 430.014832,7.342227 429.128693,6.564377 
	C430.089996,5.691848 431.001740,4.142241 432.021423,4.067599 
	C435.816132,3.789824 439.646332,3.996735 443.951965,4.034177 
z"/>
<path fill="#353735" opacity="1.000000" stroke="none" 
	d="
M416.100464,55.996891 
	C413.961395,55.965298 412.225647,56.224594 410.677551,55.799934 
	C409.693909,55.530113 408.988983,54.244034 408.159088,53.413681 
	C409.031677,52.620758 409.892548,51.154274 410.778656,51.138844 
	C419.889709,50.980186 429.006622,50.977562 438.115967,51.188614 
	C439.032959,51.209862 439.910797,52.920452 440.806824,53.847046 
	C439.692749,54.566750 438.594910,55.878323 437.461975,55.909363 
	C430.506805,56.099915 423.543701,56.000851 416.100464,55.996891 
z"/>
<path fill="#363A36" opacity="1.000000" stroke="none" 
	d="
M296.183411,51.021973 
	C297.936188,51.052425 299.332306,50.827862 300.536957,51.208817 
	C301.439087,51.494099 302.845825,52.765007 302.716309,53.237923 
	C302.356415,54.552212 301.231720,56.745384 300.552582,56.694050 
	C297.730438,56.480732 294.053741,56.415962 292.426941,54.674587 
	C290.789185,52.921494 293.062195,50.950676 296.183411,51.021973 
z"/>
<path fill="#363A36" opacity="1.000000" stroke="none" 
	d="
M293.896881,59.746059 
	C295.011047,59.327255 295.820007,59.028320 296.615845,59.059841 
	C298.938721,59.151844 302.343384,58.321434 301.668793,62.226810 
	C301.466370,63.398762 298.412354,64.655952 296.561035,64.841850 
	C292.994781,65.199944 292.476288,62.937813 293.896881,59.746059 
z"/>
<path fill="#4D4E48" opacity="1.000000" stroke="none" 
	d="
M304.367859,29.320225 
	C308.092529,29.315405 311.363312,29.315405 314.786560,29.315405 
	C314.786560,31.318344 314.786560,32.735672 314.786560,34.420097 
	C310.273407,34.420097 306.023102,34.420097 301.352051,34.420097 
	C301.095062,32.048553 299.555511,29.417139 304.367859,29.320225 
z"/>
<path fill="#3F3F3D" opacity="1.000000" stroke="none" 
	d="
M350.783386,114.226669 
	C350.834351,112.682312 351.198212,110.255203 351.657990,110.236885 
	C354.340271,110.130081 357.045044,110.588043 359.742218,110.855278 
	C359.009186,112.132172 358.497406,114.243744 357.496277,114.509071 
	C355.521088,115.032578 353.274780,114.533089 350.783386,114.226669 
z"/>
<path fill="#4D4E48" opacity="1.000000" stroke="none" 
	d="
M165.470505,100.331421 
	C169.376923,100.312996 172.839172,100.312996 176.671432,100.312996 
	C176.827988,102.058563 176.952103,103.442276 177.116791,105.278511 
	C172.379044,105.278511 168.017487,105.278511 162.242218,105.278511 
	C163.377090,103.269478 164.201706,101.809669 165.470505,100.331421 
z"/>
<path fill="#4D4E48" opacity="1.000000" stroke="none" 
	d="
M163.133896,112.616180 
	C162.277771,107.404160 165.360703,108.177971 168.653717,108.643684 
	C168.653717,110.158699 168.653717,111.663910 168.653717,113.760895 
	C166.706345,113.488167 164.991302,113.247978 163.133896,112.616180 
z"/>
</svg>