<svg version="1.1" id="Layer_1" xmlns="http://www.w3.org/2000/svg" xmlns:xlink="http://www.w3.org/1999/xlink" x="0px" y="0px"
	 width="100%" viewBox="0 0 768 432" enable-background="new 0 0 768 432" xml:space="preserve">
<path fill="#241604" opacity="1.000000" stroke="none" 
	d="
M1.000000,62.000000 
	C1.000000,47.312439 1.000000,32.624878 1.468353,17.469017 
	C22.119480,16.232531 42.302254,15.464342 62.485027,14.696154 
	C62.468628,14.464103 62.452229,14.232051 62.435829,14.000000 
	C41.957218,14.000000 21.478609,14.000000 1.000000,14.000000 
	C1.000000,9.670782 1.000000,5.341564 1.000000,1.006173 
	C150.020889,1.000000 299.041779,1.000000 448.531830,1.431899 
	C448.328247,6.813221 450.740356,8.420425 455.376709,8.050699 
	C457.848389,7.853596 460.367645,8.115489 462.856506,8.294580 
	C479.766388,9.511362 496.673767,10.762830 513.582214,12.000003 
	C526.180115,12.921777 538.773376,13.916413 551.379089,14.715117 
	C555.659668,14.986337 559.971924,14.758108 564.269714,14.758108 
	C562.606201,13.074389 560.824524,12.352739 558.973083,12.025114 
	C546.019714,9.732903 533.054321,7.508173 520.086731,5.297107 
	C517.503540,4.856656 515.038269,4.397236 515.000000,1.000000 
	C590.354248,1.000000 665.708435,1.000000 741.612915,1.367078 
	C743.208862,4.850302 742.759705,6.784548 738.847473,7.106070 
	C733.718506,7.527589 728.618469,8.349513 723.522278,9.108547 
	C716.120361,10.210992 708.732971,11.411100 701.339417,12.569559 
	C701.377686,12.823518 701.415955,13.077477 701.454224,13.331435 
	C723.969482,12.220957 746.484741,11.110478 769.000000,10.000000 
	C769.000000,55.354229 769.000000,100.708458 768.568726,146.537506 
	C757.723022,147.960052 747.325073,149.214203 736.889832,149.773071 
	C725.458557,150.385284 713.992493,150.333069 702.542664,150.615463 
	C697.103149,150.749619 691.514099,150.241791 686.255127,151.312637 
	C666.532837,155.328506 646.915771,159.861984 627.265747,164.230850 
	C620.465454,165.742798 613.684265,167.340439 606.894409,168.898941 
	C608.391907,169.857285 609.703613,169.944901 611.000610,169.843994 
	C627.384583,168.569382 643.769775,167.307816 660.147644,165.957947 
	C670.238831,165.126236 680.308044,164.011032 690.405334,163.273315 
	C702.325684,162.402405 714.265991,161.225327 726.197144,161.232254 
	C740.465088,161.240540 754.732422,162.361160 769.000000,163.000000 
	C769.000000,173.354233 769.000000,183.708450 768.531372,194.532074 
	C736.253601,193.189911 705.355774,200.281433 674.173706,205.000000 
	C705.782471,205.000000 737.391235,205.000000 769.000000,205.000000 
	C769.000000,217.354233 769.000000,229.708450 768.561584,242.529160 
	C761.466248,243.950989 754.809387,244.906342 748.152466,245.861694 
	C751.770386,247.033783 755.250549,246.832626 758.687317,247.131348 
	C760.091675,247.253418 762.374512,248.245544 762.584290,249.206985 
	C763.429626,253.081436 766.068970,253.108063 769.000000,253.000000 
	C769.000000,270.354218 769.000000,287.708466 768.533020,305.531342 
	C512.377380,306.000000 256.688690,306.000000 1.000000,306.000000 
	C1.000000,292.645782 1.000000,279.291534 1.461947,265.469147 
	C14.021784,265.664368 26.117670,266.367157 38.218018,266.982178 
	C58.110207,267.993286 78.004753,268.958710 97.899864,269.910675 
	C100.218742,270.021606 102.547523,269.925690 104.871712,269.925690 
	C70.701767,260.969269 36.306587,254.666931 1.000000,255.000000 
	C1.000000,230.645767 1.000000,206.291550 1.431247,181.462708 
	C47.309868,178.894028 91.766693,170.324203 136.034851,160.396225 
	C132.226242,160.246719 128.482849,160.682449 124.728088,160.968750 
	C106.168320,162.383972 87.597733,163.663635 69.045837,165.173904 
	C46.356167,167.021027 23.681280,169.049774 1.000000,171.000000 
	C1.000000,138.312439 1.000000,105.624878 1.464078,72.468117 
	C8.734021,71.667732 15.536948,71.245750 22.346397,71.025291 
	C34.479984,70.632446 46.616821,70.332207 58.753529,70.045296 
	C88.187843,69.349472 117.621468,68.613358 147.058044,68.028259 
	C169.851181,67.575218 192.647690,67.238609 215.444336,67.061157 
	C219.948502,67.026100 221.260590,65.201996 221.021851,61.021263 
	C220.776993,56.732937 217.895050,56.936981 215.015350,57.003868 
	C187.911636,57.633404 160.808533,58.289307 133.705276,58.938805 
	C119.404472,59.281509 105.104034,59.640160 90.802879,59.967785 
	C60.868774,60.653553 30.934313,61.323536 1.000000,62.000000 
M513.829529,167.168991 
	C505.213531,167.831818 496.592957,168.440979 487.982452,169.168533 
	C469.437408,170.735565 450.905151,172.466843 432.345886,173.835693 
	C430.023132,174.007019 427.591949,172.312027 425.167419,171.638718 
	C423.528290,171.183548 421.702301,170.470596 420.150177,170.791946 
	C412.977081,172.276947 405.898407,174.215714 398.729767,175.725372 
	C394.518616,176.612198 390.130035,176.696396 385.952057,177.690979 
	C380.981812,178.874191 376.152405,180.648392 371.260803,182.162842 
	C368.585144,182.991257 366.880890,182.198380 367.061890,179.206314 
	C367.325409,174.850571 365.032684,173.680313 361.207458,173.962936 
	C359.384491,174.097641 357.542358,174.042130 355.711578,173.985931 
	C352.714966,173.893967 351.041840,174.976028 350.986176,178.290512 
	C350.928253,181.738495 352.415833,183.150772 355.779205,183.045471 
	C357.123444,183.003387 358.480377,183.368774 360.904816,183.691605 
	C356.152649,186.565979 357.000336,190.032120 358.773285,192.503754 
	C359.738098,193.848816 363.069092,194.320862 365.092590,193.933029 
	C372.118439,192.586349 379.003021,190.517715 386.010834,189.057205 
	C392.026581,187.803421 398.103851,186.635422 404.213043,186.081345 
	C418.611664,184.775452 433.047943,183.889236 447.464569,182.775925 
	C463.369019,181.547714 479.270966,180.286072 495.169189,178.979889 
	C504.940308,178.177124 514.815674,177.917694 524.442444,176.249756 
	C539.684631,173.608902 554.761597,170.010147 569.900574,166.779541 
	C576.995911,165.265396 584.072815,163.664520 591.158081,162.102966 
	C591.110168,161.836243 591.062256,161.569519 591.014404,161.302811 
	C565.594482,163.227859 540.174561,165.152924 513.829529,167.168991 
M706.536865,59.997608 
	C714.030762,60.017109 721.530640,59.869717 729.015747,60.136009 
	C732.128784,60.246758 734.200073,60.212605 734.055969,56.225121 
	C733.931763,52.788280 733.923523,49.883144 729.196838,49.975311 
	C721.039856,50.134373 712.877014,50.048214 704.717285,49.982697 
	C701.668640,49.958218 699.405823,50.833416 699.111328,54.233898 
	C698.847900,57.275658 697.019470,58.195801 694.335938,57.976727 
	C691.190552,57.719955 688.054382,57.349060 684.914978,57.020702 
	C667.231506,55.171127 649.548889,53.313675 631.864746,51.470135 
	C614.346069,49.643841 596.860413,47.306591 579.297302,46.152500 
	C559.898743,44.877800 540.431519,44.585751 520.988831,44.064423 
	C502.696808,43.573952 484.397064,43.377808 466.102509,42.970711 
	C461.789581,42.874741 457.487000,42.300652 453.174286,42.214348 
	C446.524200,42.081268 439.869507,42.179306 433.216766,42.179306 
	C445.128876,45.000023 457.107819,46.866459 469.028198,49.051987 
	C476.608490,50.441788 484.048798,53.383820 491.644073,53.758026 
	C516.219238,54.968792 540.837524,55.296585 565.438232,55.998688 
	C587.542297,56.629536 609.644531,57.325512 631.748657,57.956100 
	C656.349121,58.657906 680.950745,59.318256 706.536865,59.997608 
M207.250061,98.964142 
	C201.089111,98.982941 194.924911,99.132309 188.768280,98.978409 
	C184.015167,98.859581 184.077652,101.851196 183.948364,105.258980 
	C183.795639,109.284927 185.944763,109.228127 189.017807,109.113846 
	C219.084061,107.995781 249.159683,107.124229 279.223267,105.943794 
	C289.507629,105.539978 299.787415,104.679764 310.030884,103.646896 
	C330.694702,101.563347 351.334198,99.236862 371.979889,96.975502 
	C387.617371,95.262703 403.248901,93.495544 418.883087,91.752579 
	C417.219177,91.006500 415.585602,90.947395 413.957306,91.015419 
	C391.046417,91.972565 368.137878,92.988190 345.225372,93.904350 
	C326.624573,94.648109 308.021210,95.337608 289.415436,95.942253 
	C266.484558,96.687469 243.549133,97.292969 220.617813,98.025543 
	C216.471878,98.157990 212.336243,98.611809 207.250061,98.964142 
M456.304626,95.923584 
	C443.287628,97.305214 430.270630,98.686836 417.253662,100.068466 
	C425.467865,100.835915 433.572632,100.355408 441.683258,100.015808 
	C458.116974,99.327705 474.552216,98.670906 490.989777,98.082520 
	C520.552002,97.024361 550.115234,95.988174 579.680542,95.019905 
	C593.138916,94.579155 606.603333,94.325127 620.064758,93.974686 
	C620.893005,93.953125 622.303040,94.070312 622.450928,93.712868 
	C623.431702,91.341629 624.459778,88.893372 624.735291,86.389076 
	C624.812500,85.687393 622.403503,83.964851 621.153809,83.983398 
	C611.685303,84.123924 602.223206,84.829735 592.755981,84.892799 
	C564.976013,85.077827 537.297668,86.665604 509.708557,89.968437 
	C492.224823,92.061501 474.708832,93.885223 456.304626,95.923584 
M228.568954,34.009495 
	C222.268082,34.336643 215.968994,34.897755 209.665970,34.946392 
	C191.861252,35.083767 174.054764,35.047729 156.249283,34.988697 
	C152.848694,34.977425 150.982544,35.935207 150.942520,39.776367 
	C150.901901,43.674488 152.444794,45.247189 156.277588,45.039532 
	C159.264191,44.877728 162.266708,45.028156 165.261841,45.002781 
	C204.844513,44.667435 244.426956,44.304348 284.009979,44.020977 
	C287.609222,43.995209 290.085693,43.545876 290.078369,38.965336 
	C290.071045,34.358120 287.539490,33.941513 283.967468,33.956322 
	C265.829193,34.031540 247.690506,34.001556 228.568954,34.009495 
M607.426819,157.000137 
	C617.186951,156.982803 642.353638,151.405518 645.571594,148.447357 
	C644.820740,148.299194 644.185486,148.083832 643.543152,148.060028 
	C615.816772,147.032578 588.092102,145.951874 560.361938,145.037399 
	C545.077271,144.533356 529.781921,144.357208 514.494507,143.924179 
	C511.538269,143.840439 508.819855,143.159607 508.921936,147.757645 
	C509.007172,151.598175 509.484344,154.072891 514.278564,154.075653 
	C522.744507,154.080536 531.208618,154.680786 539.676147,154.949768 
	C561.932678,155.656784 584.190674,156.319672 607.426819,157.000137 
M680.143738,267.688446 
	C698.819885,264.475159 717.496033,261.261871 736.172180,258.048584 
	C736.136353,257.563660 736.100464,257.078735 736.064636,256.593811 
	C733.637939,256.398499 731.214355,256.100098 728.784058,256.027496 
	C721.967102,255.823898 715.147949,255.645508 708.328491,255.586960 
	C702.533752,255.537186 696.618286,254.928955 690.961487,255.840836 
	C658.433655,261.084351 625.965210,266.697662 593.480774,272.209534 
	C587.724731,273.186188 581.987793,274.275757 576.242065,275.313171 
	C576.796509,276.442413 577.224365,276.780640 577.644836,276.771576 
	C588.283386,276.542480 598.921570,276.290436 609.559021,276.013611 
	C618.033447,275.793030 626.598022,276.231659 634.960815,275.139496 
	C649.801392,273.201385 664.519226,270.324219 680.143738,267.688446 
M138.500000,22.998949 
	C156.788269,22.670065 175.075409,22.224188 193.365158,22.046469 
	C210.342758,21.881500 227.323578,21.937208 244.301987,22.047495 
	C248.188583,22.072742 250.143082,21.003805 250.070114,16.688324 
	C249.996429,12.330485 247.522537,11.968783 244.180267,11.978104 
	C225.037231,12.031485 205.893906,11.982508 186.750870,12.036663 
	C183.102005,12.046986 178.911499,10.848150 177.085510,15.894242 
	C176.849777,16.545650 175.056870,16.864725 173.958832,16.937223 
	C162.856430,17.670244 151.754959,18.463560 140.640717,18.960205 
	C122.548470,19.768665 104.444466,20.311695 86.350632,21.088326 
	C80.625359,21.334068 74.916733,21.967976 69.200493,22.424244 
	C69.203850,22.615835 69.207207,22.807425 69.210564,22.999016 
	C91.973709,22.999016 114.736855,22.999016 138.500000,22.998949 
M351.083008,220.684723 
	C327.727264,222.125580 304.374756,223.622711 281.012512,224.949005 
	C277.341522,225.157410 275.003265,225.853470 274.955902,230.227386 
	C274.904144,235.004044 277.833130,235.164719 281.233093,234.997208 
	C287.698059,234.678696 294.168274,234.427612 300.624512,233.978775 
	C312.871490,233.127380 325.206360,232.818069 337.326263,231.055984 
	C350.459229,229.146652 363.393463,225.859894 376.404663,223.127609 
	C382.331543,221.882996 388.235077,220.527283 394.149231,219.221970 
	C394.083099,218.749435 394.016998,218.276901 393.950897,217.804367 
	C379.967285,218.703156 365.983704,219.601944 351.083008,220.684723 
M175.197540,263.079895 
	C157.498184,262.365051 139.798813,261.650177 122.099449,260.935303 
	C126.092308,262.900360 130.291229,263.561920 134.383972,264.630219 
	C167.100937,273.169891 200.499954,275.620087 234.143692,276.038025 
	C237.885284,276.084503 240.125473,275.300934 240.071228,270.849701 
	C240.019547,266.608459 237.785919,266.031250 234.331573,265.959839 
	C223.870544,265.743591 213.408295,265.433350 202.957245,264.934875 
	C194.009247,264.508087 185.076035,263.771332 175.197540,263.079895 
M549.002075,194.721649 
	C543.780884,194.247971 545.238892,198.177216 545.065491,200.864319 
	C544.817932,204.700272 547.486267,205.020416 550.390320,204.984421 
	C573.318420,204.700241 596.290283,206.148407 619.093506,202.041168 
	C632.945740,199.546143 646.953003,197.911438 660.890625,195.890259 
	C659.094604,194.999695 657.336060,194.999939 655.577515,194.999664 
	C624.613037,194.994720 593.648560,194.998016 562.684082,194.975189 
	C558.376831,194.972031 554.069702,194.840210 549.002075,194.721649 
M254.466202,195.998428 
	C259.601440,195.572815 264.738159,195.164078 269.871674,194.718536 
	C287.914978,193.152496 305.955475,191.554016 324.001526,190.020599 
	C326.804626,189.782425 330.027222,190.411575 329.911560,185.990082 
	C329.808533,182.050873 328.275299,179.576187 323.856598,180.004425 
	C315.256165,180.837952 306.579956,181.203079 298.068787,182.585098 
	C273.423798,186.586853 248.844131,190.991318 224.240768,195.248871 
	C215.135910,196.824432 206.036438,198.431030 196.934509,200.023468 
	C196.978790,200.325760 197.023071,200.628052 197.067337,200.930328 
	C215.890335,199.288086 234.713318,197.645844 254.466202,195.998428 
M354.591919,137.997040 
	C370.650299,138.444977 386.656189,141.490250 402.787659,138.078445 
	C411.710236,136.191330 420.847595,135.319565 429.888123,133.990112 
	C419.369202,132.234192 408.930511,131.689926 398.504608,130.962479 
	C386.406982,130.118423 374.326294,129.030502 362.227386,128.207901 
	C354.268341,127.666786 346.290344,127.402863 338.320404,127.024353 
	C334.610748,126.848183 333.976715,129.140427 333.983490,132.201767 
	C333.990051,135.175125 334.908875,136.894516 338.229065,137.009903 
	C343.374756,137.188782 348.510620,137.648514 354.591919,137.997040 
M48.645046,111.923256 
	C38.752842,110.662094 28.850641,109.473145 18.973166,108.105606 
	C14.793654,107.526962 12.701612,109.124763 12.240357,113.280540 
	C11.781172,117.417679 14.423139,117.735237 17.495901,118.114090 
	C40.756668,120.982002 64.003479,123.962852 87.259308,126.871208 
	C93.213715,127.615868 99.184769,128.227325 105.148178,128.899963 
	C105.237999,128.482208 105.327820,128.064438 105.417641,127.646683 
	C97.905396,125.141121 90.484642,122.302231 82.859146,120.209274 
	C71.830833,117.182350 60.654232,114.695686 48.645046,111.923256 
M419.610901,226.005325 
	C430.372925,225.337372 441.134155,224.656799 451.897156,224.004883 
	C463.489349,223.302719 475.081207,222.591858 486.677399,221.961670 
	C490.260132,221.766953 490.979553,219.610764 491.003021,216.578873 
	C491.027039,213.480637 489.774109,211.841324 486.572418,212.021606 
	C477.629883,212.525101 468.534576,212.183487 459.778412,213.742096 
	C441.134735,217.060699 422.666351,221.365173 404.133087,225.298538 
	C403.607513,225.410080 403.160828,225.893555 402.677338,226.203598 
	C402.761383,226.551178 402.845428,226.898743 402.929474,227.246323 
	C408.175385,226.835144 413.421326,226.423981 419.610901,226.005325 
M218.796921,153.024109 
	C192.978546,158.223602 167.160187,163.423096 141.341812,168.622589 
	C153.137085,168.514099 164.841690,167.695953 176.536896,166.760452 
	C195.904221,165.211258 215.264359,163.572296 234.630722,162.010849 
	C237.150787,161.807663 240.062668,162.133545 239.800568,158.362061 
	C239.578400,155.164948 239.190536,151.751419 234.601425,152.025040 
	C229.628647,152.321548 224.659363,152.676666 218.796921,153.024109 
M524.500244,286.981995 
	C511.265289,286.200714 498.294708,288.144806 485.350311,290.602905 
	C481.676208,291.300598 479.441132,292.533813 480.243896,296.778229 
	C481.076385,301.180023 483.847412,301.082581 487.371704,300.470947 
	C506.384491,297.171326 525.425049,294.032104 544.450439,290.804626 
	C550.227783,289.824615 555.987305,288.739777 561.755005,287.702972 
	C561.702820,287.462616 561.650696,287.222260 561.598511,286.981903 
	C549.565735,286.981903 537.532898,286.981903 524.500244,286.981995 
M188.890671,191.524277 
	C181.602661,192.114410 174.311737,192.670837 167.027222,193.301361 
	C149.151993,194.848541 131.282410,196.461670 113.403763,197.967682 
	C110.245262,198.233734 106.623207,197.527786 107.123512,202.598053 
	C107.583206,207.256622 110.520798,206.949112 114.024124,206.325546 
	C130.901123,203.321472 147.807098,200.480560 164.698822,197.558868 
	C175.137741,195.753296 185.569565,193.906738 196.004578,192.078583 
	C195.971863,191.731293 195.939148,191.384018 195.906448,191.036728 
	C193.852737,191.139801 191.799042,191.242889 188.890671,191.524277 
M471.741821,136.029907 
	C457.856476,138.058243 443.971100,140.086594 430.085754,142.114944 
	C445.854004,144.033569 461.573761,145.013062 477.292877,146.002869 
	C480.745056,146.220230 483.001801,145.447876 483.069794,141.193497 
	C483.140747,136.754608 480.928192,135.730835 477.169525,135.989731 
	C475.678375,136.092422 474.174469,136.009827 471.741821,136.029907 
M369.947021,200.646286 
	C369.873566,197.429428 367.706665,196.881134 365.159485,197.024658 
	C359.702362,197.332169 354.247803,197.696259 348.797333,198.105759 
	C345.055847,198.386856 345.039825,201.141525 345.023834,203.927902 
	C345.006561,206.945465 346.620728,208.130219 349.415161,207.968674 
	C354.374512,207.681992 359.326965,207.123215 364.287354,207.056931 
	C368.204132,207.004578 370.311859,205.640305 369.947021,200.646286 
M676.410400,4.997675 
	C668.604736,5.344444 660.786194,5.535978 653.005859,6.185936 
	C651.659424,6.298411 650.475281,8.352912 649.216187,9.510398 
	C650.674805,10.067020 652.213440,11.255259 653.579712,11.082246 
	C666.782410,9.410333 679.958069,7.523077 693.134216,5.646502 
	C694.087708,5.510704 694.984558,4.976953 695.907715,4.628225 
	C695.837646,4.323145 695.767517,4.018065 695.697449,3.712986 
	C689.586670,4.140364 683.475891,4.567743 676.410400,4.997675 
M123.391052,121.070183 
	C118.523476,120.470253 113.655899,119.870323 108.788322,119.270401 
	C110.186218,120.726128 111.846588,121.231720 113.452774,121.873024 
	C121.933968,125.259331 131.637741,125.610344 138.888168,132.114212 
	C139.297897,132.481766 140.949005,132.313202 141.032089,132.064011 
	C141.745865,129.923080 142.637238,127.696159 142.583817,125.516777 
	C142.562698,124.654999 140.375595,123.342148 139.023346,123.107712 
	C134.143066,122.261650 129.198364,121.787117 123.391052,121.070183 
M385.479553,50.439045 
	C394.300842,50.439045 403.122162,50.439045 411.943451,50.439045 
	C403.731720,48.384258 395.434052,46.970146 387.096375,45.855522 
	C383.600800,45.388214 383.690918,47.534359 385.479553,50.439045 
M73.838058,13.562069 
	C71.980392,13.373925 70.122719,13.185781 68.265053,12.997638 
	C68.256157,13.281818 68.247253,13.566000 68.238358,13.850181 
	C69.984230,13.850181 71.730103,13.850181 73.838058,13.562069 
M697.057373,13.505154 
	C697.057373,13.505154 697.013611,13.552947 697.057373,13.505154 
M137.474960,169.503281 
	C137.474960,169.503281 137.512985,169.491562 137.474960,169.503281 
z"/>
<path fill="#2E1E07" opacity="1.000000" stroke="none" 
	d="
M769.000000,319.000000 
	C769.000000,326.687592 769.000000,334.375153 768.531372,342.524963 
	C749.713440,342.989532 731.364014,342.991882 712.545044,342.989502 
	C697.717834,342.988342 683.360107,342.991882 668.534546,342.990173 
	C662.711121,342.989441 657.355530,342.993958 651.531372,342.993408 
	C638.374329,342.994019 625.685913,342.999695 612.529907,342.998840 
	C606.371277,342.996674 600.680359,343.001038 594.521973,342.999390 
	C581.015564,343.003052 567.976685,343.012726 554.473022,343.018066 
	C540.685913,343.014771 527.363586,343.015839 513.568359,343.007629 
	C484.712524,343.018311 456.329620,343.038269 427.481384,343.049408 
	C410.659851,343.024048 394.303650,343.007538 377.484161,342.985962 
	C361.670807,343.003082 346.320740,343.025330 330.503845,343.039429 
	C303.034088,343.028839 276.031158,343.026367 248.556686,343.013367 
	C220.725937,343.010895 193.366714,343.018921 165.538391,343.020782 
	C150.375519,343.021973 135.681747,343.029327 120.521767,343.025940 
	C114.707817,343.022675 109.360062,343.030121 103.542946,343.029663 
	C91.044441,343.028870 79.015305,343.036041 66.519836,343.031860 
	C60.372696,343.027374 54.691883,343.034271 48.541336,343.029510 
	C41.620518,343.044800 35.169437,343.071777 28.267651,343.079407 
	C18.877962,343.040039 9.938981,343.020020 1.000000,343.000000 
	C1.000000,335.979034 1.000000,328.958099 1.468657,321.468323 
	C62.397068,320.667969 122.856567,320.119141 183.316620,320.049622 
	C313.280487,319.900238 443.244629,320.009644 573.208679,319.951263 
	C578.471863,319.948914 583.734802,319.316589 589.464966,318.979340 
	C649.621399,318.987274 709.310730,318.993652 769.000000,319.000000 
z"/>
<path fill="#1D1D1D" opacity="1.000000" stroke="none" 
	d="
M612.000000,433.000000 
	C502.311310,433.000000 392.622650,433.000000 282.463074,432.562927 
	C281.960693,430.088806 281.929260,428.051727 282.000000,425.685028 
	C292.765472,414.347870 303.428741,403.340363 314.265350,392.153900 
	C306.942474,384.539703 299.963562,377.283173 293.347626,369.827087 
	C304.387054,369.419159 315.064911,369.259491 325.739014,368.965302 
	C328.161926,368.898560 330.571930,368.365204 333.371887,368.124573 
	C341.015076,369.797211 348.245941,372.596466 355.538513,372.767700 
	C380.502228,373.353821 405.487885,372.971283 430.464386,373.101807 
	C433.041962,373.115265 435.878601,373.562805 438.148346,374.700195 
	C459.432495,385.366394 480.630066,396.205841 501.828430,407.042603 
	C509.399109,410.912842 516.435486,414.828278 525.600098,415.841034 
	C547.561646,418.267914 569.288757,422.817505 591.109924,426.513855 
	C597.725952,427.634491 604.340027,428.766693 611.142517,430.168823 
	C611.553406,431.296051 611.776672,432.148010 612.000000,433.000000 
z"/>
<path fill="#1A1003" opacity="1.000000" stroke="none" 
	d="
M769.000000,318.537384 
	C709.310730,318.993652 649.621399,318.987274 589.099121,318.790405 
	C585.959412,318.398712 583.652588,318.021667 581.345825,318.021362 
	C387.897217,317.995453 194.448608,317.998779 1.000000,318.000000 
	C1.000000,314.306824 1.000000,310.613647 1.000000,306.460236 
	C256.688690,306.000000 512.377380,306.000000 768.533020,306.000000 
	C769.000000,310.024933 769.000000,314.049835 769.000000,318.537384 
z"/>
<path fill="#191003" opacity="1.000000" stroke="none" 
	d="
M120.987968,343.036682 
	C135.681747,343.029327 150.375519,343.021973 165.495636,343.417542 
	C164.629639,349.902954 163.337326,355.985474 161.953308,362.445526 
	C159.925735,372.526733 157.989853,382.230408 155.955444,392.315735 
	C154.629684,398.638763 153.402466,404.580170 152.061981,410.867737 
	C150.299133,418.475983 148.649567,425.737976 147.000000,433.000000 
	C138.645767,433.000000 130.291534,433.000000 121.468651,432.531342 
	C120.995987,402.387360 120.991974,372.712036 120.987968,343.036682 
z"/>
<path fill="#A38A72" opacity="1.000000" stroke="none" 
	d="
M292.984680,370.026642 
	C299.963562,377.283173 306.942474,384.539703 314.265350,392.153900 
	C303.428741,403.340363 292.765472,414.347870 281.675842,425.769348 
	C279.166290,428.455536 277.083160,430.727783 275.000000,433.000000 
	C259.645782,433.000000 244.291550,433.000000 228.381042,432.672089 
	C223.517105,428.072449 224.720078,424.594269 229.134552,421.222534 
	C230.452362,420.215973 231.082947,418.309692 232.330139,416.678894 
	C234.065018,415.454620 235.639481,414.510101 236.908218,413.256195 
	C244.808304,405.448792 252.673431,397.605225 260.471558,389.696136 
	C262.534698,387.603638 264.321411,385.238617 266.544617,382.899780 
	C270.235565,379.221405 273.616943,375.641998 277.321136,371.949188 
	C280.567963,369.337463 283.491974,366.839142 286.398285,364.355927 
	C288.792816,366.417572 290.888733,368.222107 292.984680,370.026642 
z"/>
<path fill="#191003" opacity="1.000000" stroke="none" 
	d="
M669.002441,342.995453 
	C683.360107,342.991882 697.717834,342.988342 712.500977,343.389313 
	C711.957520,348.542328 710.988525,353.290833 709.929138,358.421143 
	C708.560425,365.853271 707.282104,372.903595 705.806763,380.272552 
	C705.063660,383.386475 704.517578,386.181763 703.780640,389.297699 
	C702.062622,396.760742 700.535522,403.903107 698.920532,411.420380 
	C697.562073,418.184448 696.291687,424.573608 694.850830,431.194489 
	C694.453613,431.950775 694.226807,432.475372 694.000000,433.000000 
	C686.645752,433.000000 679.291504,433.000000 671.468628,432.531342 
	C670.672791,422.617279 670.234375,413.174164 670.041321,403.726013 
	C669.627808,383.483856 669.341064,363.239136 669.002441,342.995453 
z"/>
<path fill="#191003" opacity="1.000000" stroke="none" 
	d="
M612.997559,343.005341 
	C625.685913,342.999695 638.374329,342.994019 651.531372,343.462158 
	C652.327271,352.052032 652.796204,360.165344 652.954346,368.284698 
	C653.374512,389.855072 653.660583,411.428070 654.000000,433.000000 
	C645.979065,433.000000 637.958191,433.000000 629.463501,432.577698 
	C626.170166,416.814484 623.301208,401.482452 620.545410,386.130127 
	C617.967102,371.766357 615.508728,357.381134 612.997559,343.005341 
z"/>
<path fill="#191003" opacity="1.000000" stroke="none" 
	d="
M66.986160,343.043213 
	C79.015305,343.036041 91.044441,343.028870 103.539612,343.494141 
	C104.003761,373.644409 104.001877,403.322205 104.000000,433.000000 
	C97.312355,433.000000 90.624710,433.000000 83.380798,432.609680 
	C78.885834,410.506683 74.918411,388.799164 71.023476,367.078613 
	C69.589630,359.082611 68.326927,351.055908 66.986160,343.043213 
z"/>
<path fill="#362206" opacity="1.000000" stroke="none" 
	d="
M1.000000,62.454113 
	C30.934313,61.323536 60.868774,60.653553 90.802879,59.967785 
	C105.104034,59.640160 119.404472,59.281509 133.705276,58.938805 
	C160.808533,58.289307 187.911636,57.633404 215.015350,57.003868 
	C217.895050,56.936981 220.776993,56.732937 221.021851,61.021263 
	C221.260590,65.201996 219.948502,67.026100 215.444336,67.061157 
	C192.647690,67.238609 169.851181,67.575218 147.058044,68.028259 
	C117.621468,68.613358 88.187843,69.349472 58.753529,70.045296 
	C46.616821,70.332207 34.479984,70.632446 22.346397,71.025291 
	C15.536948,71.245750 8.734021,71.667732 1.464078,71.999458 
	C1.000000,68.969406 1.000000,65.938812 1.000000,62.454113 
z"/>
<path fill="#B19578" opacity="1.000000" stroke="none" 
	d="
M65.000000,433.000000 
	C43.762348,433.000000 22.524698,433.000000 1.000000,433.000000 
	C1.000000,421.980774 1.000000,410.959045 1.357215,399.483948 
	C2.427934,399.046143 3.141437,399.061707 4.283323,399.143219 
	C12.145690,399.756195 19.579674,400.303192 27.446770,400.932343 
	C33.247364,401.323608 38.614845,401.632721 44.372925,402.074341 
	C49.848103,402.724152 54.932678,403.241486 60.108055,404.158875 
	C61.799236,414.039307 63.399620,423.519653 65.000000,433.000000 
z"/>
<path fill="#362206" opacity="1.000000" stroke="none" 
	d="
M769.000000,162.533142 
	C754.732422,162.361160 740.465088,161.240540 726.197144,161.232254 
	C714.265991,161.225327 702.325684,162.402405 690.405334,163.273315 
	C680.308044,164.011032 670.238831,165.126236 660.147644,165.957947 
	C643.769775,167.307816 627.384583,168.569382 611.000610,169.843994 
	C609.703613,169.944901 608.391907,169.857285 606.894409,168.898941 
	C613.684265,167.340439 620.465454,165.742798 627.265747,164.230850 
	C646.915771,159.861984 666.532837,155.328506 686.255127,151.312637 
	C691.514099,150.241791 697.103149,150.749619 702.542664,150.615463 
	C713.992493,150.333069 725.458557,150.385284 736.889832,149.773071 
	C747.325073,149.214203 757.723022,147.960052 768.568726,147.006165 
	C769.000000,152.022095 769.000000,157.044189 769.000000,162.533142 
z"/>
<path fill="#130B02" opacity="1.000000" stroke="none" 
	d="
M65.467941,433.000000 
	C63.399620,423.519653 61.799236,414.039307 60.094501,403.763092 
	C58.962891,397.343414 57.935631,391.719574 56.843056,385.696899 
	C55.789574,379.841797 54.801399,374.385590 53.751900,368.560303 
	C53.164162,365.823547 52.637753,363.455811 52.113327,360.684143 
	C51.726433,358.215057 51.337551,356.149933 50.920616,353.679413 
	C50.265400,349.863068 49.638237,346.452118 49.011074,343.041168 
	C54.691883,343.034271 60.372696,343.027374 66.519836,343.031860 
	C68.326927,351.055908 69.589630,359.082611 71.023476,367.078613 
	C74.918411,388.799164 78.885834,410.506683 82.912262,432.609680 
	C77.311958,433.000000 71.623917,433.000000 65.467941,433.000000 
z"/>
<path fill="#130B02" opacity="1.000000" stroke="none" 
	d="
M612.529907,342.998840 
	C615.508728,357.381134 617.967102,371.766357 620.545410,386.130127 
	C623.301208,401.482452 626.170166,416.814484 628.994873,432.577698 
	C623.645081,433.000000 618.290100,433.000000 612.467590,433.000000 
	C611.776672,432.148010 611.553406,431.296051 611.152100,429.750122 
	C609.321777,421.704254 607.669434,414.352325 606.184326,406.719391 
	C606.233582,404.958527 606.115601,403.478668 605.916138,401.599182 
	C603.879272,391.510712 601.923950,381.821869 599.975891,371.688660 
	C598.667908,364.850494 597.352661,358.456726 596.032593,351.634521 
	C595.681702,348.472534 595.335571,345.738983 594.989441,343.005402 
	C600.680359,343.001038 606.371277,342.996674 612.529907,342.998840 
z"/>
<path fill="#B19578" opacity="1.000000" stroke="none" 
	d="
M232.028412,416.815643 
	C231.082947,418.309692 230.452362,420.215973 229.134552,421.222534 
	C224.720078,424.594269 223.517105,428.072449 227.912384,432.672089 
	C201.312439,433.000000 174.624878,433.000000 147.468658,433.000000 
	C148.649567,425.737976 150.299133,418.475983 152.458054,410.902374 
	C156.976212,410.747253 160.985031,410.903687 165.371994,411.226135 
	C170.149673,411.665558 174.549179,411.938934 179.334991,412.363708 
	C188.450638,413.079742 197.179993,413.644318 206.285461,414.377563 
	C215.117172,415.302704 223.572784,416.059174 232.028412,416.815643 
z"/>
<path fill="#130B02" opacity="1.000000" stroke="none" 
	d="
M654.467529,433.000000 
	C653.660583,411.428070 653.374512,389.855072 652.954346,368.284698 
	C652.796204,360.165344 652.327271,352.052032 652.000000,343.467224 
	C657.355530,342.993958 662.711121,342.989441 668.534546,342.990173 
	C669.341064,363.239136 669.627808,383.483856 670.041321,403.726013 
	C670.234375,413.174164 670.672791,422.617279 671.000000,432.531342 
	C665.645081,433.000000 660.290100,433.000000 654.467529,433.000000 
z"/>
<path fill="#130B02" opacity="1.000000" stroke="none" 
	d="
M104.467606,433.000000 
	C104.001877,403.322205 104.003761,373.644409 104.008972,343.502106 
	C109.360062,343.030121 114.707817,343.022675 120.521767,343.025940 
	C120.991974,372.712036 120.995987,402.387360 121.000000,432.531342 
	C115.645073,433.000000 110.290138,433.000000 104.467606,433.000000 
z"/>
<path fill="#222222" opacity="1.000000" stroke="none" 
	d="
M699.008484,411.045502 
	C700.535522,403.903107 702.062622,396.760742 704.169189,389.451233 
	C708.694153,389.600677 712.637756,389.943298 716.585388,390.229279 
	C734.056274,391.495087 751.528381,392.744598 769.000000,394.000000 
	C769.000000,401.020966 769.000000,408.041901 768.535034,415.552185 
	C751.159424,414.932526 734.246033,413.863953 717.339722,412.693329 
	C711.220642,412.269653 705.118408,411.601898 699.008484,411.045502 
z"/>
<path fill="#020202" opacity="1.000000" stroke="none" 
	d="
M706.003845,379.953918 
	C707.282104,372.903595 708.560425,365.853271 710.319336,358.500580 
	C730.199890,361.132141 749.599976,364.066071 769.000000,367.000000 
	C769.000000,374.020966 769.000000,381.041901 768.573059,388.530884 
	C747.432007,385.983887 726.717957,382.968903 706.003845,379.953918 
z"/>
<path fill="#241604" opacity="1.000000" stroke="none" 
	d="
M1.000000,318.375000 
	C194.448608,317.998779 387.897217,317.995453 581.345825,318.021362 
	C583.652588,318.021667 585.959412,318.398712 588.632019,318.788818 
	C583.734802,319.316589 578.471863,319.948914 573.208679,319.951263 
	C443.244629,320.009644 313.280487,319.900238 183.316620,320.049622 
	C122.856567,320.119141 62.397068,320.667969 1.468657,320.999756 
	C1.000000,320.250000 1.000000,319.500000 1.000000,318.375000 
z"/>
<path fill="#020202" opacity="1.000000" stroke="none" 
	d="
M698.920532,411.420380 
	C705.118408,411.601898 711.220642,412.269653 717.339722,412.693329 
	C734.246033,413.863953 751.159424,414.932526 768.535034,416.020752 
	C769.000000,421.022095 769.000000,426.044189 768.531372,431.535339 
	C743.715515,431.657166 719.368408,431.309998 695.021240,430.962799 
	C696.291687,424.573608 697.562073,418.184448 698.920532,411.420380 
z"/>
<path fill="#141413" opacity="1.000000" stroke="none" 
	d="
M769.000000,366.531372 
	C749.599976,364.066071 730.199890,361.132141 710.409668,358.118774 
	C710.988525,353.290833 711.957520,348.542328 712.970581,343.394043 
	C731.364014,342.991882 749.713440,342.989532 768.531372,342.993591 
	C769.000000,350.687592 769.000000,358.375153 769.000000,366.531372 
z"/>
<path fill="#A38A72" opacity="1.000000" stroke="none" 
	d="
M1.000000,343.468658 
	C9.938981,343.020020 18.877962,343.040039 28.440914,343.372437 
	C32.349800,346.893036 35.634720,350.101196 38.902878,353.651245 
	C37.723450,355.724304 36.812958,357.711975 35.356319,359.144135 
	C27.231037,367.132751 18.986198,375.000122 10.754941,382.880463 
	C7.539837,385.958466 4.253738,388.962341 0.999996,392.000000 
	C1.000000,375.979095 1.000000,359.958221 1.000000,343.468658 
z"/>
<path fill="#362206" opacity="1.000000" stroke="none" 
	d="
M1.000000,171.454102 
	C23.681280,169.049774 46.356167,167.021027 69.045837,165.173904 
	C87.597733,163.663635 106.168320,162.383972 124.728088,160.968750 
	C128.482849,160.682449 132.226242,160.246719 136.034851,160.396225 
	C91.766693,170.324203 47.309868,178.894028 1.431247,180.994049 
	C1.000000,177.969406 1.000000,174.938812 1.000000,171.454102 
z"/>
<path fill="#362206" opacity="1.000000" stroke="none" 
	d="
M514.531372,1.000000 
	C515.038269,4.397236 517.503540,4.856656 520.086731,5.297107 
	C533.054321,7.508173 546.019714,9.732903 558.973083,12.025114 
	C560.824524,12.352739 562.606201,13.074389 564.269714,14.758108 
	C559.971924,14.758108 555.659668,14.986337 551.379089,14.715117 
	C538.773376,13.916413 526.180115,12.921777 513.582214,12.000003 
	C496.673767,10.762830 479.766388,9.511362 462.856506,8.294580 
	C460.367645,8.115489 457.848389,7.853596 455.376709,8.050699 
	C450.740356,8.420425 448.328247,6.813221 449.000488,1.431899 
	C470.687561,1.000000 492.375122,1.000000 514.531372,1.000000 
z"/>
<path fill="#362206" opacity="1.000000" stroke="none" 
	d="
M1.000000,255.454102 
	C36.306587,254.666931 70.701767,260.969269 104.871712,269.925690 
	C102.547523,269.925690 100.218742,270.021606 97.899864,269.910675 
	C78.004753,268.958710 58.110207,267.993286 38.218018,266.982178 
	C26.117670,266.367157 14.021784,265.664368 1.461947,265.000488 
	C1.000000,261.969421 1.000000,258.938812 1.000000,255.454102 
z"/>
<path fill="#362206" opacity="1.000000" stroke="none" 
	d="
M769.000000,204.545898 
	C737.391235,205.000000 705.782471,205.000000 674.173706,205.000000 
	C705.355774,200.281433 736.253601,193.189911 768.531372,195.000732 
	C769.000000,198.030594 769.000000,201.061188 769.000000,204.545898 
z"/>
<path fill="#1D1D1D" opacity="1.000000" stroke="none" 
	d="
M705.806763,380.272583 
	C726.717957,382.968903 747.432007,385.983887 768.573059,388.999451 
	C769.000000,390.388885 769.000000,391.777802 769.000000,393.583344 
	C751.528381,392.744598 734.056274,391.495087 716.585388,390.229279 
	C712.637756,389.943298 708.694153,389.600677 704.360107,389.130615 
	C704.517578,386.181763 705.063660,383.386475 705.806763,380.272583 
z"/>
<path fill="#362206" opacity="1.000000" stroke="none" 
	d="
M769.000000,9.508951 
	C746.484741,11.110478 723.969482,12.220957 701.454224,13.331435 
	C701.415955,13.077477 701.377686,12.823518 701.339417,12.569559 
	C708.732971,11.411100 716.120361,10.210992 723.522278,9.108547 
	C728.618469,8.349513 733.718506,7.527589 738.847473,7.106070 
	C742.759705,6.784548 743.208862,4.850302 742.081543,1.367078 
	C750.877747,1.000000 759.755554,1.000000 769.000000,1.000000 
	C769.000000,3.661458 769.000000,6.339681 769.000000,9.508951 
z"/>
<path fill="#77695D" opacity="1.000000" stroke="none" 
	d="
M0.999996,392.437500 
	C4.253738,388.962341 7.539837,385.958466 10.754941,382.880463 
	C18.986198,375.000122 27.231037,367.132751 35.356319,359.144135 
	C36.812958,357.711975 37.723450,355.724304 39.339821,353.620667 
	C43.511906,353.527100 47.230289,353.805939 50.948669,354.084808 
	C51.337551,356.149933 51.726433,358.215057 51.813057,360.515137 
	C48.851532,358.569397 46.192261,356.388672 43.246544,353.973022 
	C40.504566,357.036102 37.944607,359.827881 35.459042,362.684326 
	C24.912321,374.804871 14.387659,386.944580 3.854945,399.077271 
	C3.141437,399.061707 2.427934,399.046143 1.357215,399.015289 
	C1.000000,396.958344 1.000000,394.916656 0.999996,392.437500 
z"/>
<path fill="#362206" opacity="1.000000" stroke="none" 
	d="
M1.000000,14.375000 
	C21.478609,14.000000 41.957218,14.000000 62.435829,14.000000 
	C62.452229,14.232051 62.468628,14.464103 62.485027,14.696154 
	C42.302254,15.464342 22.119480,16.232531 1.468353,17.000359 
	C1.000000,16.250000 1.000000,15.500000 1.000000,14.375000 
z"/>
<path fill="#1D1D1D" opacity="1.000000" stroke="none" 
	d="
M694.850830,431.194489 
	C719.368408,431.309998 743.715515,431.657166 768.531372,432.002167 
	C767.676331,432.333313 766.353394,432.953949 765.028870,432.957306 
	C741.665161,433.016296 718.301208,433.000000 694.468628,433.000000 
	C694.226807,432.475372 694.453613,431.950775 694.850830,431.194489 
z"/>
<path fill="#362206" opacity="1.000000" stroke="none" 
	d="
M769.000000,252.545898 
	C766.068970,253.108063 763.429626,253.081436 762.584290,249.206985 
	C762.374512,248.245544 760.091675,247.253418 758.687317,247.131348 
	C755.250549,246.832626 751.770386,247.033783 748.152466,245.861694 
	C754.809387,244.906342 761.466248,243.950989 768.561584,242.997818 
	C769.000000,246.030594 769.000000,249.061188 769.000000,252.545898 
z"/>
<path fill="#B19578" opacity="1.000000" stroke="none" 
	d="
M275.437500,433.000000 
	C277.083160,430.727783 279.166290,428.455536 281.573639,426.098999 
	C281.929260,428.051727 281.960693,430.088806 281.996094,432.562927 
	C279.958344,433.000000 277.916656,433.000000 275.437500,433.000000 
z"/>
<path fill="#362206" opacity="1.000000" stroke="none" 
	d="
M514.292114,167.123474 
	C540.174561,165.152924 565.594482,163.227859 591.014404,161.302811 
	C591.062256,161.569519 591.110168,161.836243 591.158081,162.102966 
	C584.072815,163.664520 576.995911,165.265396 569.900574,166.779541 
	C554.761597,170.010147 539.684631,173.608902 524.442444,176.249756 
	C514.815674,177.917694 504.940308,178.177124 495.169189,178.979889 
	C479.270966,180.286072 463.369019,181.547714 447.464569,182.775925 
	C433.047943,183.889236 418.611664,184.775452 404.213043,186.081345 
	C398.103851,186.635422 392.026581,187.803421 386.010834,189.057205 
	C379.003021,190.517715 372.118439,192.586349 365.092590,193.933029 
	C363.069092,194.320862 359.738098,193.848816 358.773285,192.503754 
	C357.000336,190.032120 356.152649,186.565979 360.904816,183.691605 
	C358.480377,183.368774 357.123444,183.003387 355.779205,183.045471 
	C352.415833,183.150772 350.928253,181.738495 350.986176,178.290512 
	C351.041840,174.976028 352.714966,173.893967 355.711578,173.985931 
	C357.542358,174.042130 359.384491,174.097641 361.207458,173.962936 
	C365.032684,173.680313 367.325409,174.850571 367.061890,179.206314 
	C366.880890,182.198380 368.585144,182.991257 371.260803,182.162842 
	C376.152405,180.648392 380.981812,178.874191 385.952057,177.690979 
	C390.130035,176.696396 394.518616,176.612198 398.729767,175.725372 
	C405.898407,174.215714 412.977081,172.276947 420.150177,170.791946 
	C421.702301,170.470596 423.528290,171.183548 425.167419,171.638718 
	C427.591949,172.312027 430.023132,174.007019 432.345886,173.835693 
	C450.905151,172.466843 469.437408,170.735565 487.982452,169.168533 
	C496.592957,168.440979 505.213531,167.831818 514.292114,167.123474 
z"/>
<path fill="#362206" opacity="1.000000" stroke="none" 
	d="
M706.044373,59.997131 
	C680.950745,59.318256 656.349121,58.657906 631.748657,57.956100 
	C609.644531,57.325512 587.542297,56.629536 565.438232,55.998688 
	C540.837524,55.296585 516.219238,54.968792 491.644073,53.758026 
	C484.048798,53.383820 476.608490,50.441788 469.028198,49.051987 
	C457.107819,46.866459 445.128876,45.000023 433.216766,42.179306 
	C439.869507,42.179306 446.524200,42.081268 453.174286,42.214348 
	C457.487000,42.300652 461.789581,42.874741 466.102509,42.970711 
	C484.397064,43.377808 502.696808,43.573952 520.988831,44.064423 
	C540.431519,44.585751 559.898743,44.877800 579.297302,46.152500 
	C596.860413,47.306591 614.346069,49.643841 631.864746,51.470135 
	C649.548889,53.313675 667.231506,55.171127 684.914978,57.020702 
	C688.054382,57.349060 691.190552,57.719955 694.335938,57.976727 
	C697.019470,58.195801 698.847900,57.275658 699.111328,54.233898 
	C699.405823,50.833416 701.668640,49.958218 704.717285,49.982697 
	C712.877014,50.048214 721.039856,50.134373 729.196838,49.975311 
	C733.923523,49.883144 733.931763,52.788280 734.055969,56.225121 
	C734.200073,60.212605 732.128784,60.246758 729.015747,60.136009 
	C721.530640,59.869717 714.030762,60.017109 706.044373,59.997131 
z"/>
<path fill="#362206" opacity="1.000000" stroke="none" 
	d="
M207.722961,98.940704 
	C212.336243,98.611809 216.471878,98.157990 220.617813,98.025543 
	C243.549133,97.292969 266.484558,96.687469 289.415436,95.942253 
	C308.021210,95.337608 326.624573,94.648109 345.225372,93.904350 
	C368.137878,92.988190 391.046417,91.972565 413.957306,91.015419 
	C415.585602,90.947395 417.219177,91.006500 418.883087,91.752579 
	C403.248901,93.495544 387.617371,95.262703 371.979889,96.975502 
	C351.334198,99.236862 330.694702,101.563347 310.030884,103.646896 
	C299.787415,104.679764 289.507629,105.539978 279.223267,105.943794 
	C249.159683,107.124229 219.084061,107.995781 189.017807,109.113846 
	C185.944763,109.228127 183.795639,109.284927 183.948364,105.258980 
	C184.077652,101.851196 184.015167,98.859581 188.768280,98.978409 
	C194.924911,99.132309 201.089111,98.982941 207.722961,98.940704 
z"/>
<path fill="#362206" opacity="1.000000" stroke="none" 
	d="
M456.755981,95.876663 
	C474.708832,93.885223 492.224823,92.061501 509.708557,89.968437 
	C537.297668,86.665604 564.976013,85.077827 592.755981,84.892799 
	C602.223206,84.829735 611.685303,84.123924 621.153809,83.983398 
	C622.403503,83.964851 624.812500,85.687393 624.735291,86.389076 
	C624.459778,88.893372 623.431702,91.341629 622.450928,93.712868 
	C622.303040,94.070312 620.893005,93.953125 620.064758,93.974686 
	C606.603333,94.325127 593.138916,94.579155 579.680542,95.019905 
	C550.115234,95.988174 520.552002,97.024361 490.989777,98.082520 
	C474.552216,98.670906 458.116974,99.327705 441.683258,100.015808 
	C433.572632,100.355408 425.467865,100.835915 417.253662,100.068466 
	C430.270630,98.686836 443.287628,97.305214 456.755981,95.876663 
z"/>
<path fill="#362206" opacity="1.000000" stroke="none" 
	d="
M229.060455,34.008957 
	C247.690506,34.001556 265.829193,34.031540 283.967468,33.956322 
	C287.539490,33.941513 290.071045,34.358120 290.078369,38.965336 
	C290.085693,43.545876 287.609222,43.995209 284.009979,44.020977 
	C244.426956,44.304348 204.844513,44.667435 165.261841,45.002781 
	C162.266708,45.028156 159.264191,44.877728 156.277588,45.039532 
	C152.444794,45.247189 150.901901,43.674488 150.942520,39.776367 
	C150.982544,35.935207 152.848694,34.977425 156.249283,34.988697 
	C174.054764,35.047729 191.861252,35.083767 209.665970,34.946392 
	C215.968994,34.897755 222.268082,34.336643 229.060455,34.008957 
z"/>
<path fill="#362206" opacity="1.000000" stroke="none" 
	d="
M606.937439,157.000137 
	C584.190674,156.319672 561.932678,155.656784 539.676147,154.949768 
	C531.208618,154.680786 522.744507,154.080536 514.278564,154.075653 
	C509.484344,154.072891 509.007172,151.598175 508.921936,147.757645 
	C508.819855,143.159607 511.538269,143.840439 514.494507,143.924179 
	C529.781921,144.357208 545.077271,144.533356 560.361938,145.037399 
	C588.092102,145.951874 615.816772,147.032578 643.543152,148.060028 
	C644.185486,148.083832 644.820740,148.299194 645.571594,148.447357 
	C642.353638,151.405518 617.186951,156.982803 606.937439,157.000137 
z"/>
<path fill="#362206" opacity="1.000000" stroke="none" 
	d="
M679.716064,267.764221 
	C664.519226,270.324219 649.801392,273.201385 634.960815,275.139496 
	C626.598022,276.231659 618.033447,275.793030 609.559021,276.013611 
	C598.921570,276.290436 588.283386,276.542480 577.644836,276.771576 
	C577.224365,276.780640 576.796509,276.442413 576.242065,275.313171 
	C581.987793,274.275757 587.724731,273.186188 593.480774,272.209534 
	C625.965210,266.697662 658.433655,261.084351 690.961487,255.840836 
	C696.618286,254.928955 702.533752,255.537186 708.328491,255.586960 
	C715.147949,255.645508 721.967102,255.823898 728.784058,256.027496 
	C731.214355,256.100098 733.637939,256.398499 736.064636,256.593811 
	C736.100464,257.078735 736.136353,257.563660 736.172180,258.048584 
	C717.496033,261.261871 698.819885,264.475159 679.716064,267.764221 
z"/>
<path fill="#362206" opacity="1.000000" stroke="none" 
	d="
M138.000000,22.998981 
	C114.736855,22.999016 91.973709,22.999016 69.210564,22.999016 
	C69.207207,22.807425 69.203850,22.615835 69.200493,22.424244 
	C74.916733,21.967976 80.625359,21.334068 86.350632,21.088326 
	C104.444466,20.311695 122.548470,19.768665 140.640717,18.960205 
	C151.754959,18.463560 162.856430,17.670244 173.958832,16.937223 
	C175.056870,16.864725 176.849777,16.545650 177.085510,15.894242 
	C178.911499,10.848150 183.102005,12.046986 186.750870,12.036663 
	C205.893906,11.982508 225.037231,12.031485 244.180267,11.978104 
	C247.522537,11.968783 249.996429,12.330485 250.070114,16.688324 
	C250.143082,21.003805 248.188583,22.072742 244.301987,22.047495 
	C227.323578,21.937208 210.342758,21.881500 193.365158,22.046469 
	C175.075409,22.224188 156.788269,22.670065 138.000000,22.998981 
z"/>
<path fill="#362206" opacity="1.000000" stroke="none" 
	d="
M351.541565,220.592728 
	C365.983704,219.601944 379.967285,218.703156 393.950897,217.804367 
	C394.016998,218.276901 394.083099,218.749435 394.149231,219.221970 
	C388.235077,220.527283 382.331543,221.882996 376.404663,223.127609 
	C363.393463,225.859894 350.459229,229.146652 337.326263,231.055984 
	C325.206360,232.818069 312.871490,233.127380 300.624512,233.978775 
	C294.168274,234.427612 287.698059,234.678696 281.233093,234.997208 
	C277.833130,235.164719 274.904144,235.004044 274.955902,230.227386 
	C275.003265,225.853470 277.341522,225.157410 281.012512,224.949005 
	C304.374756,223.622711 327.727264,222.125580 351.541565,220.592728 
z"/>
<path fill="#362206" opacity="1.000000" stroke="none" 
	d="
M175.666901,263.125793 
	C185.076035,263.771332 194.009247,264.508087 202.957245,264.934875 
	C213.408295,265.433350 223.870544,265.743591 234.331573,265.959839 
	C237.785919,266.031250 240.019547,266.608459 240.071228,270.849701 
	C240.125473,275.300934 237.885284,276.084503 234.143692,276.038025 
	C200.499954,275.620087 167.100937,273.169891 134.383972,264.630219 
	C130.291229,263.561920 126.092308,262.900360 122.099449,260.935303 
	C139.798813,261.650177 157.498184,262.365051 175.666901,263.125793 
z"/>
<path fill="#362206" opacity="1.000000" stroke="none" 
	d="
M549.382324,194.744797 
	C554.069702,194.840210 558.376831,194.972031 562.684082,194.975189 
	C593.648560,194.998016 624.613037,194.994720 655.577515,194.999664 
	C657.336060,194.999939 659.094604,194.999695 660.890625,195.890259 
	C646.953003,197.911438 632.945740,199.546143 619.093506,202.041168 
	C596.290283,206.148407 573.318420,204.700241 550.390320,204.984421 
	C547.486267,205.020416 544.817932,204.700272 545.065491,200.864319 
	C545.238892,198.177216 543.780884,194.247971 549.382324,194.744797 
z"/>
<path fill="#362206" opacity="1.000000" stroke="none" 
	d="
M254.001251,196.001007 
	C234.713318,197.645844 215.890335,199.288086 197.067337,200.930328 
	C197.023071,200.628052 196.978790,200.325760 196.934509,200.023468 
	C206.036438,198.431030 215.135910,196.824432 224.240768,195.248871 
	C248.844131,190.991318 273.423798,186.586853 298.068787,182.585098 
	C306.579956,181.203079 315.256165,180.837952 323.856598,180.004425 
	C328.275299,179.576187 329.808533,182.050873 329.911560,185.990082 
	C330.027222,190.411575 326.804626,189.782425 324.001526,190.020599 
	C305.955475,191.554016 287.914978,193.152496 269.871674,194.718536 
	C264.738159,195.164078 259.601440,195.572815 254.001251,196.001007 
z"/>
<path fill="#362206" opacity="1.000000" stroke="none" 
	d="
M354.121277,137.993103 
	C348.510620,137.648514 343.374756,137.188782 338.229065,137.009903 
	C334.908875,136.894516 333.990051,135.175125 333.983490,132.201767 
	C333.976715,129.140427 334.610748,126.848183 338.320404,127.024353 
	C346.290344,127.402863 354.268341,127.666786 362.227386,128.207901 
	C374.326294,129.030502 386.406982,130.118423 398.504608,130.962479 
	C408.930511,131.689926 419.369202,132.234192 429.888123,133.990112 
	C420.847595,135.319565 411.710236,136.191330 402.787659,138.078445 
	C386.656189,141.490250 370.650299,138.444977 354.121277,137.993103 
z"/>
<path fill="#362206" opacity="1.000000" stroke="none" 
	d="
M49.092972,111.950897 
	C60.654232,114.695686 71.830833,117.182350 82.859146,120.209274 
	C90.484642,122.302231 97.905396,125.141121 105.417641,127.646683 
	C105.327820,128.064438 105.237999,128.482208 105.148178,128.899963 
	C99.184769,128.227325 93.213715,127.615868 87.259308,126.871208 
	C64.003479,123.962852 40.756668,120.982002 17.495901,118.114090 
	C14.423139,117.735237 11.781172,117.417679 12.240357,113.280540 
	C12.701612,109.124763 14.793654,107.526962 18.973166,108.105606 
	C28.850641,109.473145 38.752842,110.662094 49.092972,111.950897 
z"/>
<path fill="#362206" opacity="1.000000" stroke="none" 
	d="
M419.139099,226.009064 
	C413.421326,226.423981 408.175385,226.835144 402.929474,227.246323 
	C402.845428,226.898743 402.761383,226.551178 402.677338,226.203598 
	C403.160828,225.893555 403.607513,225.410080 404.133087,225.298538 
	C422.666351,221.365173 441.134735,217.060699 459.778412,213.742096 
	C468.534576,212.183487 477.629883,212.525101 486.572418,212.021606 
	C489.774109,211.841324 491.027039,213.480637 491.003021,216.578873 
	C490.979553,219.610764 490.260132,221.766953 486.677399,221.961670 
	C475.081207,222.591858 463.489349,223.302719 451.897156,224.004883 
	C441.134155,224.656799 430.372925,225.337372 419.139099,226.009064 
z"/>
<path fill="#362206" opacity="1.000000" stroke="none" 
	d="
M219.242737,153.015167 
	C224.659363,152.676666 229.628647,152.321548 234.601425,152.025040 
	C239.190536,151.751419 239.578400,155.164948 239.800568,158.362061 
	C240.062668,162.133545 237.150787,161.807663 234.630722,162.010849 
	C215.264359,163.572296 195.904221,165.211258 176.536896,166.760452 
	C164.841690,167.695953 153.137085,168.514099 141.341812,168.622589 
	C167.160187,163.423096 192.978546,158.223602 219.242737,153.015167 
z"/>
<path fill="#362206" opacity="1.000000" stroke="none" 
	d="
M525.000183,286.981934 
	C537.532898,286.981903 549.565735,286.981903 561.598511,286.981903 
	C561.650696,287.222260 561.702820,287.462616 561.755005,287.702972 
	C555.987305,288.739777 550.227783,289.824615 544.450439,290.804626 
	C525.425049,294.032104 506.384491,297.171326 487.371704,300.470947 
	C483.847412,301.082581 481.076385,301.180023 480.243896,296.778229 
	C479.441132,292.533813 481.676208,291.300598 485.350311,290.602905 
	C498.294708,288.144806 511.265289,286.200714 525.000183,286.981934 
z"/>
<path fill="#362206" opacity="1.000000" stroke="none" 
	d="
M189.318008,191.435120 
	C191.799042,191.242889 193.852737,191.139801 195.906448,191.036728 
	C195.939148,191.384018 195.971863,191.731293 196.004578,192.078583 
	C185.569565,193.906738 175.137741,195.753296 164.698822,197.558868 
	C147.807098,200.480560 130.901123,203.321472 114.024124,206.325546 
	C110.520798,206.949112 107.583206,207.256622 107.123512,202.598053 
	C106.623207,197.527786 110.245262,198.233734 113.403763,197.967682 
	C131.282410,196.461670 149.151993,194.848541 167.027222,193.301361 
	C174.311737,192.670837 181.602661,192.114410 189.318008,191.435120 
z"/>
<path fill="#362206" opacity="1.000000" stroke="none" 
	d="
M472.209106,136.020752 
	C474.174469,136.009827 475.678375,136.092422 477.169525,135.989731 
	C480.928192,135.730835 483.140747,136.754608 483.069794,141.193497 
	C483.001801,145.447876 480.745056,146.220230 477.292877,146.002869 
	C461.573761,145.013062 445.854004,144.033569 430.085754,142.114944 
	C443.971100,140.086594 457.856476,138.058243 472.209106,136.020752 
z"/>
<path fill="#362206" opacity="1.000000" stroke="none" 
	d="
M369.960876,201.071655 
	C370.311859,205.640305 368.204132,207.004578 364.287354,207.056931 
	C359.326965,207.123215 354.374512,207.681992 349.415161,207.968674 
	C346.620728,208.130219 345.006561,206.945465 345.023834,203.927902 
	C345.039825,201.141525 345.055847,198.386856 348.797333,198.105759 
	C354.247803,197.696259 359.702362,197.332169 365.159485,197.024658 
	C367.706665,196.881134 369.873566,197.429428 369.960876,201.071655 
z"/>
<path fill="#362206" opacity="1.000000" stroke="none" 
	d="
M676.887756,4.996398 
	C683.475891,4.567743 689.586670,4.140364 695.697449,3.712986 
	C695.767517,4.018065 695.837646,4.323145 695.907715,4.628225 
	C694.984558,4.976953 694.087708,5.510704 693.134216,5.646502 
	C679.958069,7.523077 666.782410,9.410333 653.579712,11.082246 
	C652.213440,11.255259 650.674805,10.067020 649.216187,9.510391 
	C650.475281,8.352912 651.659424,6.298411 653.005859,6.185936 
	C660.786194,5.535978 668.604736,5.344444 676.887756,4.996398 
z"/>
<path fill="#362206" opacity="1.000000" stroke="none" 
	d="
M123.834518,121.121231 
	C129.198364,121.787117 134.143066,122.261650 139.023346,123.107712 
	C140.375595,123.342148 142.562698,124.654999 142.583817,125.516777 
	C142.637238,127.696159 141.745865,129.923080 141.032089,132.064011 
	C140.949005,132.313202 139.297897,132.481766 138.888168,132.114212 
	C131.637741,125.610344 121.933968,125.259331 113.452774,121.873024 
	C111.846588,121.231720 110.186218,120.726128 108.788322,119.270401 
	C113.655899,119.870323 118.523476,120.470253 123.834518,121.121231 
z"/>
<path fill="#362206" opacity="1.000000" stroke="none" 
	d="
M385.171326,50.196815 
	C383.690918,47.534359 383.600800,45.388214 387.096375,45.855522 
	C395.434052,46.970146 403.731720,48.384258 411.943451,50.439045 
	C403.122162,50.439045 394.300842,50.439045 385.171326,50.196815 
z"/>
<path fill="#362206" opacity="1.000000" stroke="none" 
	d="
M73.657013,13.706125 
	C71.730103,13.850181 69.984230,13.850181 68.238358,13.850181 
	C68.247253,13.566000 68.256157,13.281818 68.265053,12.997638 
	C70.122719,13.185781 71.980392,13.373925 73.657013,13.706125 
z"/>
<path fill="#362206" opacity="1.000000" stroke="none" 
	d="
M697.035522,13.529051 
	C697.013611,13.552947 697.057373,13.505154 697.035522,13.529051 
z"/>
<path fill="#362206" opacity="1.000000" stroke="none" 
	d="
M137.493973,169.497421 
	C137.512985,169.491562 137.474960,169.503281 137.493973,169.497421 
z"/>
<path fill="#020202" opacity="1.000000" stroke="none" 
	d="
M606.017090,407.000366 
	C607.669434,414.352325 609.321777,421.704254 610.964478,429.474884 
	C604.340027,428.766693 597.725952,427.634491 591.109924,426.513855 
	C569.288757,422.817505 547.561646,418.267914 525.600098,415.841034 
	C516.435486,414.828278 509.399109,410.912842 501.828430,407.042603 
	C480.630066,396.205841 459.432495,385.366394 438.148346,374.700195 
	C435.878601,373.562805 433.041962,373.115265 430.464386,373.101807 
	C405.487885,372.971283 380.502228,373.353821 355.538513,372.767700 
	C348.245941,372.596466 341.015076,369.797211 333.081726,367.906738 
	C319.223236,363.732422 306.036926,359.860870 292.855286,355.973511 
	C278.244019,351.664490 263.637054,347.341064 249.028198,343.023926 
	C276.031158,343.026367 303.034088,343.028839 330.739868,343.302917 
	C332.470459,344.083801 333.466888,344.672760 334.530609,345.090454 
	C352.060455,351.974243 370.376373,351.457550 388.703003,350.779907 
	C388.890747,350.772919 389.062012,350.319855 389.221283,350.101990 
	C385.463470,347.731750 381.705444,345.361389 377.947418,342.991028 
	C394.303650,343.007538 410.659851,343.024048 427.618286,343.354370 
	C432.981628,346.102020 437.674316,350.477325 442.515228,350.648041 
	C469.685974,351.606079 496.892487,351.550598 524.454224,351.888855 
	C536.596375,359.300262 548.371094,366.663879 559.662659,374.029358 
	C535.360657,374.031189 511.541901,374.031189 487.723145,374.031189 
	C493.795166,378.368958 500.283600,381.090851 506.175415,384.768524 
	C515.734619,390.735443 526.136292,393.458069 537.110107,395.208130 
	C560.120789,398.877869 583.052795,403.040283 606.017090,407.000366 
z"/>
<path fill="#141413" opacity="1.000000" stroke="none" 
	d="
M248.556686,343.013367 
	C263.637054,347.341064 278.244019,351.664490 292.855286,355.973511 
	C306.036926,359.860870 319.223236,363.732422 332.697693,367.828766 
	C330.571930,368.365204 328.161926,368.898560 325.739014,368.965302 
	C315.064911,369.259491 304.387054,369.419159 293.347626,369.827087 
	C290.888733,368.222107 288.792816,366.417572 286.398285,364.355927 
	C283.491974,366.839142 280.567963,369.337463 276.949402,371.787170 
	C268.149994,371.086334 260.045105,370.434082 251.654938,369.603149 
	C248.936157,369.288757 246.502686,369.153046 243.630676,369.008911 
	C237.723114,368.650940 232.254120,368.301331 226.502228,367.792358 
	C222.853165,365.354736 219.579056,361.282166 215.403595,367.050537 
	C211.456512,366.973297 207.903488,366.943787 204.046997,366.899261 
	C203.339645,366.910187 202.935745,366.936127 202.253754,366.653625 
	C197.433487,365.942810 192.891312,365.540466 188.051132,364.956909 
	C185.056747,362.308472 182.341904,360.048035 178.636627,364.000793 
	C173.533264,363.778076 168.866318,363.556549 163.967667,363.117798 
	C163.172302,362.623016 162.608643,362.345490 162.044998,362.067993 
	C163.337326,355.985474 164.629639,349.902954 165.964722,343.423706 
	C193.366714,343.018921 220.725937,343.010895 248.556686,343.013367 
z"/>
<path fill="#222222" opacity="1.000000" stroke="none" 
	d="
M560.145874,374.027496 
	C548.371094,366.663879 536.596375,359.300262 524.331177,351.582642 
	C520.574219,348.491394 517.307678,345.754120 514.041199,343.016876 
	C527.363586,343.015839 540.685913,343.014771 554.673340,343.292267 
	C559.915955,346.703979 564.493591,349.837097 569.346619,353.158691 
	C579.737549,359.609131 589.853088,365.871094 599.968628,372.133057 
	C601.923950,381.821869 603.879272,391.510712 605.580933,401.505493 
	C595.492981,395.660858 585.681580,389.472992 575.814819,383.374878 
	C570.642029,380.177856 565.372009,377.138214 560.145874,374.027496 
z"/>
<path fill="#141413" opacity="1.000000" stroke="none" 
	d="
M513.568359,343.007629 
	C517.307678,345.754120 520.574219,348.491394 523.963745,351.534851 
	C496.892487,351.550598 469.685974,351.606079 442.515228,350.648041 
	C437.674316,350.477325 432.981628,346.102020 428.083618,343.363220 
	C456.329620,343.038269 484.712524,343.018311 513.568359,343.007629 
z"/>
<path fill="#141413" opacity="1.000000" stroke="none" 
	d="
M377.484161,342.985962 
	C381.705444,345.361389 385.463470,347.731750 389.221283,350.101990 
	C389.062012,350.319855 388.890747,350.772919 388.703003,350.779907 
	C370.376373,351.457550 352.060455,351.974243 334.530609,345.090454 
	C333.466888,344.672760 332.470459,344.083801 331.206665,343.311035 
	C346.320740,343.025330 361.670807,343.003082 377.484161,342.985962 
z"/>
<path fill="#141413" opacity="1.000000" stroke="none" 
	d="
M569.071167,352.970215 
	C564.493591,349.837097 559.915955,346.703979 555.138062,343.296631 
	C567.976685,343.012726 581.015564,343.003052 594.521973,342.999390 
	C595.335571,345.738983 595.681702,348.472534 595.560181,351.626160 
	C593.116089,352.041077 591.136719,351.962189 589.163940,352.044098 
	C582.465088,352.322174 575.768555,352.657074 569.071167,352.970215 
z"/>
<path fill="#141413" opacity="1.000000" stroke="none" 
	d="
M50.920620,353.679413 
	C47.230289,353.805939 43.511906,353.527100 39.356579,353.278809 
	C35.634720,350.101196 32.349800,346.893036 28.891621,343.391815 
	C35.169437,343.071777 41.620518,343.044800 48.541336,343.029510 
	C49.638237,346.452118 50.265400,349.863068 50.920620,353.679413 
z"/>
<path fill="#141524" opacity="1.000000" stroke="none" 
	d="
M179.073059,364.001923 
	C182.341904,360.048035 185.056747,362.308472 188.225800,365.205261 
	C191.127884,367.801666 193.557327,369.968567 195.904266,372.469299 
	C195.117935,374.100861 194.624817,375.583252 193.675842,376.666107 
	C187.794113,383.377808 181.670090,389.881378 175.908783,396.692841 
	C172.030014,401.278534 168.615845,406.257233 164.993835,411.060120 
	C160.985031,410.903687 156.976212,410.747253 152.571320,410.556152 
	C153.402466,404.580170 154.629684,398.638763 156.226273,392.136261 
	C162.071030,384.816650 167.546417,378.058197 173.353653,371.187927 
	C175.481354,368.718109 177.277206,366.360016 179.073059,364.001923 
z"/>
<path fill="#1E1F33" opacity="1.000000" stroke="none" 
	d="
M173.021805,371.299713 
	C167.546417,378.058197 162.071030,384.816650 156.324799,391.754578 
	C157.989853,382.230408 159.925735,372.526733 161.953308,362.445557 
	C162.608643,362.345490 163.172302,362.623016 164.195648,363.318848 
	C167.444183,366.258026 170.232986,368.778870 173.021805,371.299713 
z"/>
<path fill="#1E1F33" opacity="1.000000" stroke="none" 
	d="
M244.069214,369.017334 
	C246.502686,369.153046 248.936157,369.288757 251.759827,369.939606 
	C256.845032,374.636047 261.540039,378.817383 266.235046,382.998718 
	C264.321411,385.238617 262.534698,387.603638 260.471558,389.696136 
	C252.673431,397.605225 244.808304,405.448792 236.908218,413.256195 
	C235.639481,414.510101 234.065018,415.454620 232.330139,416.678894 
	C223.572784,416.059174 215.117172,415.302704 206.466187,414.079773 
	C213.765564,404.990601 221.373306,396.462311 228.697678,387.697205 
	C231.499695,384.343964 233.653671,380.449219 236.452576,376.840515 
	C239.224548,374.258972 241.646881,371.638153 244.069214,369.017334 
z"/>
<path fill="#77695D" opacity="1.000000" stroke="none" 
	d="
M266.544617,382.899780 
	C261.540039,378.817383 256.845032,374.636047 252.045135,370.118286 
	C260.045105,370.434082 268.149994,371.086334 276.626587,371.900574 
	C273.616943,375.641998 270.235565,379.221405 266.544617,382.899780 
z"/>
<path fill="#1E1F33" opacity="1.000000" stroke="none" 
	d="
M4.283328,399.143219 
	C14.387659,386.944580 24.912321,374.804871 35.459042,362.684326 
	C37.944607,359.827881 40.504566,357.036102 43.246544,353.973022 
	C46.192261,356.388672 48.851532,358.569397 51.811073,360.919128 
	C52.637753,363.455811 53.164162,365.823547 53.453125,368.682404 
	C49.436005,373.332336 45.474277,377.342133 41.919971,381.685364 
	C36.796009,387.946625 31.967976,394.450104 27.013653,400.850220 
	C19.579674,400.303192 12.145690,399.756195 4.283328,399.143219 
z"/>
<path fill="#141524" opacity="1.000000" stroke="none" 
	d="
M27.446766,400.932343 
	C31.967976,394.450104 36.796009,387.946625 41.919971,381.685364 
	C45.474277,377.342133 49.436005,373.332336 53.514450,369.051453 
	C54.801399,374.385590 55.789574,379.841797 56.573029,385.868103 
	C52.239651,391.606049 48.110985,396.773956 43.982323,401.941864 
	C38.614845,401.632721 33.247364,401.323608 27.446766,400.932343 
z"/>
<path fill="#1E1F33" opacity="1.000000" stroke="none" 
	d="
M44.372925,402.074341 
	C48.110985,396.773956 52.239651,391.606049 56.638344,386.266968 
	C57.935631,391.719574 58.962891,397.343414 60.003700,403.363037 
	C54.932678,403.241486 49.848103,402.724152 44.372925,402.074341 
z"/>
<path fill="#1D1D1D" opacity="1.000000" stroke="none" 
	d="
M559.662659,374.029358 
	C565.372009,377.138214 570.642029,380.177856 575.814819,383.374878 
	C585.681580,389.472992 595.492981,395.660858 605.662476,401.905090 
	C606.115601,403.478668 606.233582,404.958527 606.184326,406.719421 
	C583.052795,403.040283 560.120789,398.877869 537.110107,395.208130 
	C526.136292,393.458069 515.734619,390.735443 506.175415,384.768524 
	C500.283600,381.090851 493.795166,378.368958 487.723145,374.031189 
	C511.541901,374.031189 535.360657,374.031189 559.662659,374.029358 
z"/>
<path fill="#020202" opacity="1.000000" stroke="none" 
	d="
M569.346619,353.158691 
	C575.768555,352.657074 582.465088,352.322174 589.163940,352.044098 
	C591.136719,351.962189 593.116089,352.041077 595.564941,352.054565 
	C597.352661,358.456726 598.667908,364.850494 599.975830,371.688660 
	C589.853088,365.871094 579.737549,359.609131 569.346619,353.158691 
z"/>
<path fill="#141524" opacity="1.000000" stroke="none" 
	d="
M236.102936,376.801208 
	C233.653671,380.449219 231.499695,384.343964 228.697678,387.697205 
	C221.373306,396.462311 213.765564,404.990601 206.090088,413.911102 
	C197.179993,413.644318 188.450638,413.079742 179.426819,412.018555 
	C181.889191,408.046631 184.597900,404.531769 187.411972,401.103455 
	C195.256241,391.546875 203.144226,382.026184 211.322113,372.331909 
	C213.018753,370.481079 214.408188,368.789673 215.797607,367.098267 
	C219.579056,361.282166 222.853165,365.354736 226.630386,368.112915 
	C230.061935,371.328979 233.082428,374.065094 236.102936,376.801208 
z"/>
<path fill="#1E1F33" opacity="1.000000" stroke="none" 
	d="
M211.014923,372.491302 
	C203.144226,382.026184 195.256241,391.546875 187.411972,401.103455 
	C184.597900,404.531769 181.889191,408.046631 179.040543,411.867126 
	C174.549179,411.938934 170.149673,411.665558 165.371979,411.226135 
	C168.615845,406.257233 172.030014,401.278534 175.908783,396.692841 
	C181.670090,389.881378 187.794113,383.377808 193.675842,376.666107 
	C194.624817,375.583252 195.117935,374.100861 196.252319,372.417816 
	C198.632553,370.342346 200.582199,368.652222 202.531845,366.962067 
	C202.935745,366.936127 203.339645,366.910187 204.329605,367.043091 
	C206.948746,368.965057 208.981827,370.728180 211.014923,372.491302 
z"/>
<path fill="#77695D" opacity="1.000000" stroke="none" 
	d="
M236.452576,376.840515 
	C233.082428,374.065094 230.061935,371.328979 226.913269,368.272308 
	C232.254120,368.301331 237.723114,368.650940 243.630676,369.008911 
	C241.646881,371.638153 239.224548,374.258972 236.452576,376.840515 
z"/>
<path fill="#77695D" opacity="1.000000" stroke="none" 
	d="
M173.353653,371.187927 
	C170.232986,368.778870 167.444183,366.258026 164.427368,363.536102 
	C168.866318,363.556549 173.533264,363.778076 178.636627,364.000793 
	C177.277206,366.360016 175.481354,368.718109 173.353653,371.187927 
z"/>
<path fill="#77695D" opacity="1.000000" stroke="none" 
	d="
M202.253754,366.653625 
	C200.582199,368.652222 198.632553,370.342346 196.334839,372.083984 
	C193.557327,369.968567 191.127884,367.801666 188.523773,365.386414 
	C192.891312,365.540466 197.433487,365.942810 202.253754,366.653625 
z"/>
<path fill="#77695D" opacity="1.000000" stroke="none" 
	d="
M211.322113,372.331909 
	C208.981827,370.728180 206.948746,368.965057 204.633057,367.058105 
	C207.903488,366.943787 211.456512,366.973297 215.403580,367.050537 
	C214.408188,368.789673 213.018753,370.481079 211.322113,372.331909 
z"/>
</svg>