<svg xmlns="http://www.w3.org/2000/svg" width="768" height="432" viewBox="0 0 768 432" version="1.1"><path d="M 153.565 72.126 C 152.564 79.494, 149 114.960, 149 117.557 C 149 119.668, 149.462 120, 152.392 120 L 155.784 120 156.497 110.035 C 156.903 104.368, 157.727 99.642, 158.408 99.076 C 159.176 98.439, 163.353 98.381, 170.052 98.914 C 182.012 99.865, 190.505 98.996, 194.956 96.367 C 199.103 93.917, 202.420 86.978, 201.666 82.330 C 200.074 72.517, 193.609 69.976, 166.330 68.438 L 154.160 67.753 153.565 72.126 M 213.125 94.750 C 211.884 107.263, 210.634 118.906, 210.347 120.624 C 209.868 123.492, 210.076 123.784, 212.900 124.199 C 216.594 124.741, 216.158 126.645, 219.010 97.500 C 220.141 85.950, 221.284 75.487, 221.552 74.250 C 221.980 72.270, 221.639 72, 218.710 72 L 215.382 72 213.125 94.750 M 160.260 82.750 C 159.720 87.563, 159.614 91.877, 160.026 92.337 C 160.437 92.797, 166.931 93.247, 174.458 93.337 L 188.142 93.500 191.071 90.234 C 194.742 86.141, 194.781 82.905, 191.205 78.903 C 188.693 76.092, 187.602 75.690, 180.455 74.941 C 176.080 74.483, 169.967 74.084, 166.872 74.054 L 161.243 74 160.260 82.750 M 387.562 84.250 C 387.356 84.938, 386.235 95.175, 385.070 107 C 383.905 118.825, 382.699 130.188, 382.388 132.250 C 381.841 135.891, 381.913 136, 384.893 136 C 388.469 136, 388.472 135.992, 389.893 121.833 C 390.427 116.516, 391.577 110.786, 392.449 109.100 C 394.486 105.159, 399.234 102.731, 404.686 102.840 C 409.795 102.943, 412.420 104.185, 414.619 107.541 C 416.055 109.733, 416.105 111.337, 415.066 121.756 C 414.422 128.215, 413.685 134.512, 413.428 135.750 C 413.019 137.725, 413.367 138, 416.282 138 L 419.603 138 420.810 125.750 C 422.795 105.602, 422.589 104.361, 416.627 100.480 C 412.301 97.663, 401.684 97.800, 396.714 100.738 C 391.978 103.536, 391.693 102.930, 392.833 92.480 C 393.738 84.174, 393.367 83.047, 389.719 83.015 C 388.739 83.007, 387.769 83.563, 387.562 84.250 M 240.500 89.579 C 236.805 90.907, 233 94.162, 233 95.994 C 233 96.419, 234.238 97.009, 235.750 97.306 C 237.739 97.696, 239.192 97.211, 241 95.551 C 244.225 92.593, 247.857 91.780, 254.131 92.612 C 262.263 93.691, 267.601 99.597, 263.511 102.991 C 262.690 103.673, 257.068 104.594, 250.987 105.044 C 244.918 105.493, 238.395 106.374, 236.492 107.003 C 230.226 109.071, 227.195 115.759, 230.081 121.151 C 231.797 124.358, 238.732 126.959, 245.500 126.934 C 250.809 126.915, 254.008 126.176, 260.236 123.533 C 261.538 122.981, 262.220 123.447, 262.961 125.398 C 263.728 127.414, 264.636 128, 266.994 128 C 269.747 128, 269.978 127.759, 269.407 125.485 C 269.060 124.101, 269.342 116.922, 270.034 109.532 C 271.168 97.413, 271.130 95.848, 269.649 93.587 C 266.382 88.601, 249.628 86.298, 240.500 89.579 M 489.120 113.171 C 487.832 126.002, 486.544 137.963, 486.258 139.750 C 485.765 142.835, 485.897 143, 488.869 143 C 490.591 143, 492.028 142.887, 492.062 142.750 C 492.332 141.656, 497.662 91.445, 497.528 91.260 C 497.432 91.129, 496.028 90.756, 494.408 90.432 L 491.462 89.842 489.120 113.171 M 296.849 92.388 C 287.885 94.802, 284.785 98.387, 282.916 108.498 C 280.414 122.030, 288.715 131.045, 303.616 130.978 C 311.707 130.942, 322.185 124.531, 320.658 120.551 C 319.699 118.052, 316.070 118.763, 313.362 121.981 C 308.253 128.053, 297.574 127.967, 291.820 121.807 C 289.359 119.173, 289 118.006, 289.004 112.644 C 289.008 105.486, 291.187 101.076, 296.241 97.995 C 302.526 94.163, 313.741 96.457, 315.478 101.931 C 315.971 103.485, 316.975 104, 319.515 104 C 322.805 104, 322.869 103.923, 321.893 101.123 C 320.502 97.134, 317.333 94.480, 311.715 92.601 C 306.105 90.724, 303.182 90.682, 296.849 92.388 M 542.465 101.750 C 541.540 111.921, 540.904 112.626, 535.736 109.207 C 530.175 105.527, 521.470 105.420, 515.247 108.956 C 507.430 113.396, 503.581 126.275, 507.364 135.329 C 511.315 144.785, 526.583 149.049, 534.420 142.884 C 537.317 140.605, 539.383 141.217, 538.473 144.084 C 537.964 145.688, 538.365 146, 540.933 146 C 542.620 146, 544 145.801, 544 145.559 C 544 145.316, 545.125 134.628, 546.500 121.809 C 549.665 92.291, 549.691 94, 546.085 94 C 543.177 94, 543.169 94.017, 542.465 101.750 M 339.240 97.110 C 332.632 100.381, 329 106.968, 329 115.681 C 329 127.128, 337.218 134.008, 350.876 133.994 C 358.681 133.987, 363.810 132.348, 367.421 128.709 L 370.500 125.607 367.044 124.888 C 364.227 124.301, 363.071 124.604, 360.790 126.524 C 357.360 129.409, 350.354 130.602, 345.753 129.083 C 340.789 127.445, 335.854 121.957, 335.659 117.859 C 335.501 114.516, 335.521 114.500, 340 114.538 C 342.475 114.560, 350.688 114.951, 358.250 115.409 L 372 116.241 371.994 113.371 C 371.972 101.777, 363.960 94.999, 350.282 95.001 C 345.398 95.001, 342.308 95.592, 339.240 97.110 M 343.149 101.696 C 340.108 103.195, 337.018 107.351, 338.123 108.456 C 338.369 108.702, 344.547 109.219, 351.851 109.605 L 365.131 110.306 363.784 107.005 C 361.202 100.678, 350.700 97.976, 343.149 101.696 M 449.326 102.060 C 438.442 104.172, 433.150 110.745, 433.044 122.282 C 432.930 134.742, 441.848 141.786, 456.484 140.796 C 467.865 140.026, 474.176 134.827, 476.053 124.673 C 477.302 117.915, 476.118 112.482, 472.445 108.117 C 468.307 103.200, 457.733 100.429, 449.326 102.060 M 447 109.181 C 440.666 113.450, 438.408 121.254, 441.421 128.466 C 443.714 133.953, 452.648 137.261, 459.270 135.076 C 465.004 133.184, 468.262 128.889, 468.789 122.527 C 469.609 112.644, 465.646 107.881, 456.045 107.211 C 451.473 106.891, 449.886 107.237, 447 109.181 M 250.785 110.434 C 238.902 111.616, 236.272 112.964, 237.364 117.315 C 238.854 123.249, 254.337 123.551, 259.750 117.752 C 262.072 115.263, 263.631 110.458, 262.331 109.794 C 261.874 109.560, 256.678 109.848, 250.785 110.434 M 570.500 111.502 C 560.015 115.209, 554.910 128.985, 560.070 139.645 C 563.047 145.794, 570.271 149.227, 580.244 149.233 C 584.235 149.236, 588.850 148.706, 590.500 148.055 C 594.093 146.639, 599.141 142.036, 598.405 140.847 C 597.434 139.276, 592.830 139.985, 589.746 142.181 C 587.868 143.518, 584.652 144.530, 581.434 144.797 C 572.717 145.520, 565 139.796, 565 132.609 C 565 131.239, 565.337 129.940, 565.750 129.721 C 566.476 129.338, 583.517 130.323, 595.250 131.428 L 601 131.969 601 127.953 C 601 116.845, 592.717 109.948, 579.500 110.049 C 576.750 110.071, 572.700 110.724, 570.500 111.502 M 518.514 114.168 C 511.053 120.037, 511.205 134.534, 518.767 138.343 C 523.976 140.966, 526.887 141.144, 531.469 139.117 C 537.105 136.624, 539.386 132.482, 539.432 124.658 C 539.465 119.175, 539.238 118.606, 535.748 115.408 C 532.481 112.414, 531.376 112, 526.650 112 C 522.645 112, 520.565 112.554, 518.514 114.168 M 613.565 130.250 C 612.617 139.738, 611.622 148.287, 611.354 149.250 C 610.958 150.669, 611.508 151, 614.264 151 L 617.663 151 618.845 138.925 C 620.533 121.668, 623.475 117.230, 632.548 118.253 C 636.268 118.672, 637.235 118.429, 638.072 116.866 C 639.330 114.515, 637.391 113.554, 631.331 113.522 C 628.308 113.506, 626.472 114.148, 624.655 115.855 C 621.895 118.448, 619.573 117.920, 620.527 114.916 C 621.031 113.326, 620.637 113, 618.211 113 L 615.287 113 613.565 130.250 M 574.619 116.034 C 571.332 117.019, 567 120.745, 567 122.589 C 567 123.418, 569.572 124.029, 574.750 124.431 C 579.013 124.762, 584.835 125.252, 587.690 125.518 C 593.529 126.064, 594.545 125.291, 592.859 121.590 C 590.604 116.640, 581.677 113.921, 574.619 116.034 M 275.391 163.425 C 275.040 164.339, 274.992 165.325, 275.284 165.618 C 275.577 165.910, 280.132 166.407, 285.407 166.722 C 291.169 167.065, 295.410 167.789, 296.029 168.535 C 296.942 169.635, 294.397 201.087, 292.451 212.750 C 291.926 215.899, 292.018 216, 295.393 216 C 299.476 216, 298.948 218.180, 302.001 188.696 C 303.072 178.354, 304.167 169.539, 304.433 169.108 C 304.699 168.677, 309.591 168.532, 315.304 168.786 C 324.565 169.198, 325.764 169.057, 326.369 167.481 C 326.742 166.509, 326.924 165.596, 326.774 165.452 C 326.484 165.175, 304.805 163.535, 286.764 162.424 C 277.300 161.841, 275.953 161.960, 275.391 163.425 M 378 170.897 C 378 171.941, 376.875 183.507, 375.500 196.599 C 374.125 209.692, 373 220.538, 373 220.702 C 373 220.866, 374.350 221, 376 221 C 378.303 221, 379 220.549, 379 219.059 C 379 216.156, 380.499 215.784, 382.616 218.162 C 388.970 225.294, 403.429 224.222, 410.253 216.111 C 415.288 210.128, 416.472 199.671, 412.940 192.376 C 409.075 184.393, 397.030 181.176, 388.212 185.772 C 385.837 187.010, 383.824 187.524, 383.486 186.977 C 382.920 186.062, 383.625 175.900, 384.577 171.250 C 384.986 169.256, 384.638 169, 381.519 169 C 378.730 169, 378 169.394, 378 170.897 M 427.798 197.706 C 426.334 211.845, 425.358 223.770, 425.628 224.206 C 425.897 224.643, 427.196 225, 428.514 225 C 431.411 225, 431.293 225.575, 433.987 198.500 C 435.081 187.500, 436.179 177.037, 436.426 175.250 C 436.851 172.166, 436.711 172, 433.667 172 L 430.459 172 427.798 197.706 M 331.500 181.102 C 327.803 182.238, 325.673 183.850, 324.188 186.638 C 323.172 188.546, 323.343 188.834, 325.775 189.311 C 327.754 189.699, 329.184 189.203, 331 187.501 C 332.375 186.211, 335.156 184.852, 337.179 184.480 C 341.666 183.655, 350.764 185.477, 353.209 187.689 C 355.138 189.435, 355.642 194.485, 353.990 195.506 C 353.434 195.850, 347.599 196.539, 341.023 197.038 C 334.446 197.537, 327.506 198.597, 325.599 199.394 C 322.213 200.809, 319 205.243, 319 208.500 C 319 211.957, 322.014 215.788, 325.982 217.376 C 332.713 220.070, 341.039 219.438, 350.227 215.537 C 351.502 214.995, 352.263 215.483, 353.137 217.402 C 353.982 219.255, 355.087 220, 356.991 220 C 359.551 220, 359.660 219.783, 359.621 214.750 C 359.599 211.863, 359.965 204.482, 360.435 198.349 C 361.284 187.253, 361.276 187.185, 358.772 184.681 C 357.388 183.297, 354.510 181.680, 352.378 181.088 C 347.748 179.802, 335.704 179.810, 331.500 181.102 M 460.358 188.895 C 455.012 190.270, 450.033 194.017, 447.794 198.351 C 444.838 204.070, 444.710 214.154, 447.531 218.956 C 453.341 228.847, 474.482 231.043, 483.298 222.673 L 486.500 219.632 483.299 218.685 C 480.534 217.868, 479.674 218.097, 476.973 220.370 C 474.334 222.590, 472.884 222.999, 467.673 222.996 C 463.316 222.994, 460.558 222.418, 458.299 221.040 C 454.636 218.808, 451.733 213.885, 452.189 210.682 C 452.552 208.138, 455.005 207.989, 475.874 209.249 L 488.247 209.996 487.788 204.457 C 487.243 197.880, 484.999 194.436, 479.118 191.151 C 474.540 188.594, 465.676 187.528, 460.358 188.895 M 389.418 189.969 C 383.783 192.249, 379.868 201.569, 381.474 208.881 C 382.319 212.730, 386.769 216.546, 391.431 217.421 C 395.834 218.247, 403.090 215.318, 405.409 211.779 C 407.679 208.315, 408.459 200.920, 407.016 196.548 C 404.965 190.335, 396.415 187.139, 389.418 189.969 M 458.775 195.504 C 456.029 197.049, 453.397 200.731, 454.354 201.688 C 454.850 202.184, 472.573 203.866, 478.250 203.956 C 481.857 204.014, 481.812 201.941, 478.117 197.805 C 475.473 194.846, 474.666 194.553, 468.367 194.274 C 463.571 194.062, 460.678 194.432, 458.775 195.504 M 340.900 202.374 C 330.188 203.512, 327 204.795, 327 207.967 C 327 211.574, 330.795 213.501, 337.858 213.480 C 345.271 213.457, 350.066 211.345, 351.915 207.288 C 353.161 204.553, 353.357 200.941, 352.250 201.124 C 351.837 201.192, 346.730 201.755, 340.900 202.374" stroke="none" fill="#ff0000" fill-rule="evenodd"/><path d="M -0 379.751 L 0 432.003 384.250 431.751 L 768.500 431.500 768.740 378.500 C 768.872 349.350, 768.620 326.064, 768.179 326.753 C 767.540 327.753, 690.190 327.954, 383.689 327.753 L -0 327.500 -0 379.751 M 0.466 379.500 C 0.466 408.650, 0.593 420.431, 0.749 405.680 C 0.905 390.928, 0.905 367.078, 0.749 352.680 C 0.593 338.281, 0.465 350.350, 0.466 379.500" stroke="none" fill="#d4cccc" fill-rule="evenodd"/><path d="M 0.247 163.750 L 0.500 327.500 383.940 327.751 C 690.033 327.952, 767.541 327.750, 768.175 326.751 C 768.612 326.063, 768.976 252.263, 768.985 162.750 L 769 0 384.497 0 L -0.006 0 0.247 163.750 M 0.488 164 C 0.488 253.925, 0.606 290.712, 0.750 245.750 C 0.894 200.787, 0.894 127.212, 0.750 82.250 C 0.606 37.287, 0.488 74.075, 0.488 164 M 153.565 72.126 C 152.564 79.494, 149 114.960, 149 117.557 C 149 119.668, 149.462 120, 152.392 120 L 155.784 120 156.497 110.035 C 156.903 104.368, 157.727 99.642, 158.408 99.076 C 159.176 98.439, 163.353 98.381, 170.052 98.914 C 182.012 99.865, 190.505 98.996, 194.956 96.367 C 199.103 93.917, 202.420 86.978, 201.666 82.330 C 200.074 72.517, 193.609 69.976, 166.330 68.438 L 154.160 67.753 153.565 72.126 M 213.125 94.750 C 211.884 107.263, 210.634 118.906, 210.347 120.624 C 209.868 123.492, 210.076 123.784, 212.900 124.199 C 216.594 124.741, 216.158 126.645, 219.010 97.500 C 220.141 85.950, 221.284 75.487, 221.552 74.250 C 221.980 72.270, 221.639 72, 218.710 72 L 215.382 72 213.125 94.750 M 160.260 82.750 C 159.720 87.563, 159.614 91.877, 160.026 92.337 C 160.437 92.797, 166.931 93.247, 174.458 93.337 L 188.142 93.500 191.071 90.234 C 194.742 86.141, 194.781 82.905, 191.205 78.903 C 188.693 76.092, 187.602 75.690, 180.455 74.941 C 176.080 74.483, 169.967 74.084, 166.872 74.054 L 161.243 74 160.260 82.750 M 387.562 84.250 C 387.356 84.938, 386.235 95.175, 385.070 107 C 383.905 118.825, 382.699 130.188, 382.388 132.250 C 381.841 135.891, 381.913 136, 384.893 136 C 388.469 136, 388.472 135.992, 389.893 121.833 C 390.427 116.516, 391.577 110.786, 392.449 109.100 C 394.486 105.159, 399.234 102.731, 404.686 102.840 C 409.795 102.943, 412.420 104.185, 414.619 107.541 C 416.055 109.733, 416.105 111.337, 415.066 121.756 C 414.422 128.215, 413.685 134.512, 413.428 135.750 C 413.019 137.725, 413.367 138, 416.282 138 L 419.603 138 420.810 125.750 C 422.795 105.602, 422.589 104.361, 416.627 100.480 C 412.301 97.663, 401.684 97.800, 396.714 100.738 C 391.978 103.536, 391.693 102.930, 392.833 92.480 C 393.738 84.174, 393.367 83.047, 389.719 83.015 C 388.739 83.007, 387.769 83.563, 387.562 84.250 M 240.500 89.579 C 236.805 90.907, 233 94.162, 233 95.994 C 233 96.419, 234.238 97.009, 235.750 97.306 C 237.739 97.696, 239.192 97.211, 241 95.551 C 244.225 92.593, 247.857 91.780, 254.131 92.612 C 262.263 93.691, 267.601 99.597, 263.511 102.991 C 262.690 103.673, 257.068 104.594, 250.987 105.044 C 244.918 105.493, 238.395 106.374, 236.492 107.003 C 230.226 109.071, 227.195 115.759, 230.081 121.151 C 231.797 124.358, 238.732 126.959, 245.500 126.934 C 250.809 126.915, 254.008 126.176, 260.236 123.533 C 261.538 122.981, 262.220 123.447, 262.961 125.398 C 263.728 127.414, 264.636 128, 266.994 128 C 269.747 128, 269.978 127.759, 269.407 125.485 C 269.060 124.101, 269.342 116.922, 270.034 109.532 C 271.168 97.413, 271.130 95.848, 269.649 93.587 C 266.382 88.601, 249.628 86.298, 240.500 89.579 M 489.120 113.171 C 487.832 126.002, 486.544 137.963, 486.258 139.750 C 485.765 142.835, 485.897 143, 488.869 143 C 490.591 143, 492.028 142.887, 492.062 142.750 C 492.332 141.656, 497.662 91.445, 497.528 91.260 C 497.432 91.129, 496.028 90.756, 494.408 90.432 L 491.462 89.842 489.120 113.171 M 296.849 92.388 C 287.885 94.802, 284.785 98.387, 282.916 108.498 C 280.414 122.030, 288.715 131.045, 303.616 130.978 C 311.707 130.942, 322.185 124.531, 320.658 120.551 C 319.699 118.052, 316.070 118.763, 313.362 121.981 C 308.253 128.053, 297.574 127.967, 291.820 121.807 C 289.359 119.173, 289 118.006, 289.004 112.644 C 289.008 105.486, 291.187 101.076, 296.241 97.995 C 302.526 94.163, 313.741 96.457, 315.478 101.931 C 315.971 103.485, 316.975 104, 319.515 104 C 322.805 104, 322.869 103.923, 321.893 101.123 C 320.502 97.134, 317.333 94.480, 311.715 92.601 C 306.105 90.724, 303.182 90.682, 296.849 92.388 M 542.465 101.750 C 541.540 111.921, 540.904 112.626, 535.736 109.207 C 530.175 105.527, 521.470 105.420, 515.247 108.956 C 507.430 113.396, 503.581 126.275, 507.364 135.329 C 511.315 144.785, 526.583 149.049, 534.420 142.884 C 537.317 140.605, 539.383 141.217, 538.473 144.084 C 537.964 145.688, 538.365 146, 540.933 146 C 542.620 146, 544 145.801, 544 145.559 C 544 145.316, 545.125 134.628, 546.500 121.809 C 549.665 92.291, 549.691 94, 546.085 94 C 543.177 94, 543.169 94.017, 542.465 101.750 M 339.240 97.110 C 332.632 100.381, 329 106.968, 329 115.681 C 329 127.128, 337.218 134.008, 350.876 133.994 C 358.681 133.987, 363.810 132.348, 367.421 128.709 L 370.500 125.607 367.044 124.888 C 364.227 124.301, 363.071 124.604, 360.790 126.524 C 357.360 129.409, 350.354 130.602, 345.753 129.083 C 340.789 127.445, 335.854 121.957, 335.659 117.859 C 335.501 114.516, 335.521 114.500, 340 114.538 C 342.475 114.560, 350.688 114.951, 358.250 115.409 L 372 116.241 371.994 113.371 C 371.972 101.777, 363.960 94.999, 350.282 95.001 C 345.398 95.001, 342.308 95.592, 339.240 97.110 M 343.149 101.696 C 340.108 103.195, 337.018 107.351, 338.123 108.456 C 338.369 108.702, 344.547 109.219, 351.851 109.605 L 365.131 110.306 363.784 107.005 C 361.202 100.678, 350.700 97.976, 343.149 101.696 M 449.326 102.060 C 438.442 104.172, 433.150 110.745, 433.044 122.282 C 432.930 134.742, 441.848 141.786, 456.484 140.796 C 467.865 140.026, 474.176 134.827, 476.053 124.673 C 477.302 117.915, 476.118 112.482, 472.445 108.117 C 468.307 103.200, 457.733 100.429, 449.326 102.060 M 447 109.181 C 440.666 113.450, 438.408 121.254, 441.421 128.466 C 443.714 133.953, 452.648 137.261, 459.270 135.076 C 465.004 133.184, 468.262 128.889, 468.789 122.527 C 469.609 112.644, 465.646 107.881, 456.045 107.211 C 451.473 106.891, 449.886 107.237, 447 109.181 M 250.785 110.434 C 238.902 111.616, 236.272 112.964, 237.364 117.315 C 238.854 123.249, 254.337 123.551, 259.750 117.752 C 262.072 115.263, 263.631 110.458, 262.331 109.794 C 261.874 109.560, 256.678 109.848, 250.785 110.434 M 570.500 111.502 C 560.015 115.209, 554.910 128.985, 560.070 139.645 C 563.047 145.794, 570.271 149.227, 580.244 149.233 C 584.235 149.236, 588.850 148.706, 590.500 148.055 C 594.093 146.639, 599.141 142.036, 598.405 140.847 C 597.434 139.276, 592.830 139.985, 589.746 142.181 C 587.868 143.518, 584.652 144.530, 581.434 144.797 C 572.717 145.520, 565 139.796, 565 132.609 C 565 131.239, 565.337 129.940, 565.750 129.721 C 566.476 129.338, 583.517 130.323, 595.250 131.428 L 601 131.969 601 127.953 C 601 116.845, 592.717 109.948, 579.500 110.049 C 576.750 110.071, 572.700 110.724, 570.500 111.502 M 518.514 114.168 C 511.053 120.037, 511.205 134.534, 518.767 138.343 C 523.976 140.966, 526.887 141.144, 531.469 139.117 C 537.105 136.624, 539.386 132.482, 539.432 124.658 C 539.465 119.175, 539.238 118.606, 535.748 115.408 C 532.481 112.414, 531.376 112, 526.650 112 C 522.645 112, 520.565 112.554, 518.514 114.168 M 613.565 130.250 C 612.617 139.738, 611.622 148.287, 611.354 149.250 C 610.958 150.669, 611.508 151, 614.264 151 L 617.663 151 618.845 138.925 C 620.533 121.668, 623.475 117.230, 632.548 118.253 C 636.268 118.672, 637.235 118.429, 638.072 116.866 C 639.330 114.515, 637.391 113.554, 631.331 113.522 C 628.308 113.506, 626.472 114.148, 624.655 115.855 C 621.895 118.448, 619.573 117.920, 620.527 114.916 C 621.031 113.326, 620.637 113, 618.211 113 L 615.287 113 613.565 130.250 M 574.619 116.034 C 571.332 117.019, 567 120.745, 567 122.589 C 567 123.418, 569.572 124.029, 574.750 124.431 C 579.013 124.762, 584.835 125.252, 587.690 125.518 C 593.529 126.064, 594.545 125.291, 592.859 121.590 C 590.604 116.640, 581.677 113.921, 574.619 116.034 M 275.391 163.425 C 275.040 164.339, 274.992 165.325, 275.284 165.618 C 275.577 165.910, 280.132 166.407, 285.407 166.722 C 291.169 167.065, 295.410 167.789, 296.029 168.535 C 296.942 169.635, 294.397 201.087, 292.451 212.750 C 291.926 215.899, 292.018 216, 295.393 216 C 299.476 216, 298.948 218.180, 302.001 188.696 C 303.072 178.354, 304.167 169.539, 304.433 169.108 C 304.699 168.677, 309.591 168.532, 315.304 168.786 C 324.565 169.198, 325.764 169.057, 326.369 167.481 C 326.742 166.509, 326.924 165.596, 326.774 165.452 C 326.484 165.175, 304.805 163.535, 286.764 162.424 C 277.300 161.841, 275.953 161.960, 275.391 163.425 M 378 170.897 C 378 171.941, 376.875 183.507, 375.500 196.599 C 374.125 209.692, 373 220.538, 373 220.702 C 373 220.866, 374.350 221, 376 221 C 378.303 221, 379 220.549, 379 219.059 C 379 216.156, 380.499 215.784, 382.616 218.162 C 388.970 225.294, 403.429 224.222, 410.253 216.111 C 415.288 210.128, 416.472 199.671, 412.940 192.376 C 409.075 184.393, 397.030 181.176, 388.212 185.772 C 385.837 187.010, 383.824 187.524, 383.486 186.977 C 382.920 186.062, 383.625 175.900, 384.577 171.250 C 384.986 169.256, 384.638 169, 381.519 169 C 378.730 169, 378 169.394, 378 170.897 M 427.798 197.706 C 426.334 211.845, 425.358 223.770, 425.628 224.206 C 425.897 224.643, 427.196 225, 428.514 225 C 431.411 225, 431.293 225.575, 433.987 198.500 C 435.081 187.500, 436.179 177.037, 436.426 175.250 C 436.851 172.166, 436.711 172, 433.667 172 L 430.459 172 427.798 197.706 M 331.500 181.102 C 327.803 182.238, 325.673 183.850, 324.188 186.638 C 323.172 188.546, 323.343 188.834, 325.775 189.311 C 327.754 189.699, 329.184 189.203, 331 187.501 C 332.375 186.211, 335.156 184.852, 337.179 184.480 C 341.666 183.655, 350.764 185.477, 353.209 187.689 C 355.138 189.435, 355.642 194.485, 353.990 195.506 C 353.434 195.850, 347.599 196.539, 341.023 197.038 C 334.446 197.537, 327.506 198.597, 325.599 199.394 C 322.213 200.809, 319 205.243, 319 208.500 C 319 211.957, 322.014 215.788, 325.982 217.376 C 332.713 220.070, 341.039 219.438, 350.227 215.537 C 351.502 214.995, 352.263 215.483, 353.137 217.402 C 353.982 219.255, 355.087 220, 356.991 220 C 359.551 220, 359.660 219.783, 359.621 214.750 C 359.599 211.863, 359.965 204.482, 360.435 198.349 C 361.284 187.253, 361.276 187.185, 358.772 184.681 C 357.388 183.297, 354.510 181.680, 352.378 181.088 C 347.748 179.802, 335.704 179.810, 331.500 181.102 M 460.358 188.895 C 455.012 190.270, 450.033 194.017, 447.794 198.351 C 444.838 204.070, 444.710 214.154, 447.531 218.956 C 453.341 228.847, 474.482 231.043, 483.298 222.673 L 486.500 219.632 483.299 218.685 C 480.534 217.868, 479.674 218.097, 476.973 220.370 C 474.334 222.590, 472.884 222.999, 467.673 222.996 C 463.316 222.994, 460.558 222.418, 458.299 221.040 C 454.636 218.808, 451.733 213.885, 452.189 210.682 C 452.552 208.138, 455.005 207.989, 475.874 209.249 L 488.247 209.996 487.788 204.457 C 487.243 197.880, 484.999 194.436, 479.118 191.151 C 474.540 188.594, 465.676 187.528, 460.358 188.895 M 389.418 189.969 C 383.783 192.249, 379.868 201.569, 381.474 208.881 C 382.319 212.730, 386.769 216.546, 391.431 217.421 C 395.834 218.247, 403.090 215.318, 405.409 211.779 C 407.679 208.315, 408.459 200.920, 407.016 196.548 C 404.965 190.335, 396.415 187.139, 389.418 189.969 M 458.775 195.504 C 456.029 197.049, 453.397 200.731, 454.354 201.688 C 454.850 202.184, 472.573 203.866, 478.250 203.956 C 481.857 204.014, 481.812 201.941, 478.117 197.805 C 475.473 194.846, 474.666 194.553, 468.367 194.274 C 463.571 194.062, 460.678 194.432, 458.775 195.504 M 340.900 202.374 C 330.188 203.512, 327 204.795, 327 207.967 C 327 211.574, 330.795 213.501, 337.858 213.480 C 345.271 213.457, 350.066 211.345, 351.915 207.288 C 353.161 204.553, 353.357 200.941, 352.250 201.124 C 351.837 201.192, 346.730 201.755, 340.900 202.374" stroke="none" fill="#8c734b" fill-rule="evenodd"/></svg>