<svg xmlns="http://www.w3.org/2000/svg" width="410" height="128" viewBox="0 0 410 128" version="1.1"><path d="M 0.102 5.250 L 0.205 10.500 0.995 7.157 C 1.430 5.319, 2.242 3.358, 2.800 2.800 C 3.358 2.242, 5.319 1.430, 7.157 0.995 L 10.500 0.205 5.250 0.102 L 0 0 0.102 5.250 M 196.750 0.706 L 199 1.139 199 64 L 199 126.861 196.750 127.294 C 195.512 127.533, 199.225 127.728, 205 127.728 C 210.775 127.728, 214.488 127.533, 213.250 127.294 L 211 126.861 211 64 L 211 1.139 213.250 0.706 C 214.488 0.467, 210.775 0.272, 205 0.272 C 199.225 0.272, 195.512 0.467, 196.750 0.706 M 402.843 0.995 C 407.030 1.985, 408.015 2.970, 409.005 7.157 L 409.795 10.500 409.898 5.250 L 410 0 404.750 0.102 L 399.500 0.205 402.843 0.995 M 0.102 122.750 L 0 128 5.250 127.898 L 10.500 127.795 7.157 127.005 C 2.970 126.015, 1.985 125.030, 0.995 120.843 L 0.205 117.500 0.102 122.750 M 409 120.309 C 409 123.700, 406.858 126.063, 402.951 126.983 L 399.500 127.795 404.750 127.898 L 410 128 410 123 C 410 120.250, 409.775 118, 409.500 118 C 409.225 118, 409 119.039, 409 120.309" stroke="none" fill="#010541" fill-rule="evenodd"/><path d="" stroke="none" fill="#000000" fill-rule="evenodd"/><path d="" stroke="none" fill="#b8afff" fill-rule="evenodd"/><path d="M 124.250 9.749 C 136.213 9.908, 155.788 9.908, 167.750 9.749 C 179.713 9.589, 169.925 9.459, 146 9.459 C 122.075 9.459, 112.288 9.589, 124.250 9.749 M 124.250 14.749 C 136.213 14.908, 155.788 14.908, 167.750 14.749 C 179.713 14.589, 169.925 14.459, 146 14.459 C 122.075 14.459, 112.288 14.589, 124.250 14.749 M 124.250 19.749 C 136.213 19.908, 155.788 19.908, 167.750 19.749 C 179.713 19.589, 169.925 19.459, 146 19.459 C 122.075 19.459, 112.288 19.589, 124.250 19.749 M 124.250 24.749 C 136.213 24.908, 155.788 24.908, 167.750 24.749 C 179.713 24.589, 169.925 24.459, 146 24.459 C 122.075 24.459, 112.288 24.589, 124.250 24.749 M 124.250 29.749 C 136.213 29.908, 155.788 29.908, 167.750 29.749 C 179.713 29.589, 169.925 29.459, 146 29.459 C 122.075 29.459, 112.288 29.589, 124.250 29.749 M 264.731 34.602 C 264.400 34.933, 264.853 36.721, 265.737 38.575 L 267.345 41.947 266.156 44.724 L 264.967 47.500 266.484 45.559 C 268.279 43.261, 268.387 41.591, 266.919 38.849 C 265.484 36.168, 266.185 35.672, 269.362 37.119 L 271.983 38.313 274.241 37.183 L 276.500 36.053 273.743 36.637 L 270.985 37.220 268.528 35.610 C 265.775 33.807, 265.579 33.754, 264.731 34.602 M 257.162 38.543 C 255.629 41.908, 255.696 43.228, 257.516 45.559 L 259.033 47.500 257.856 44.750 L 256.679 42 257.877 39.371 C 258.536 37.925, 258.906 36.573, 258.700 36.367 C 258.494 36.160, 257.802 37.140, 257.162 38.543 M 277.162 38.543 C 275.629 41.908, 275.696 43.228, 277.516 45.559 L 279.033 47.500 277.856 44.750 L 276.679 42 277.877 39.371 C 278.536 37.925, 278.906 36.573, 278.700 36.367 C 278.494 36.160, 277.802 37.140, 277.162 38.543 M 260.581 39.649 C 259.754 41.804, 260.206 42.118, 261.740 40.452 L 262.980 39.106 262.095 38.559 C 261.608 38.258, 260.927 38.748, 260.581 39.649 M 280.519 39.810 C 279.709 41.922, 280.243 41.993, 282.249 40.038 L 283.999 38.333 282.542 38.333 C 281.741 38.333, 280.831 38.998, 280.519 39.810 M 263.364 42.494 C 263.048 43.316, 262.393 43.743, 261.907 43.442 L 261.023 42.896 261.635 44.491 C 262.328 46.297, 262.309 46.307, 263.900 43.250 C 264.544 42.013, 264.815 41, 264.504 41 C 264.192 41, 263.679 41.672, 263.364 42.494 M 283.364 42.494 C 283.048 43.316, 282.393 43.743, 281.907 43.442 L 281.023 42.896 281.635 44.491 C 282.328 46.297, 282.309 46.307, 283.900 43.250 C 284.544 42.013, 284.815 41, 284.504 41 C 284.192 41, 283.679 41.672, 283.364 42.494 M 286.144 44.750 L 284.967 47.500 286.484 45.559 C 287.318 44.491, 288 43.254, 288 42.809 C 288 41.289, 287.322 41.999, 286.144 44.750 M 249.926 57.380 L 252 58.306 254.074 57.380 L 256.148 56.455 252 56.455 L 247.852 56.455 249.926 57.380 M 269.926 57.380 L 272 58.306 274.074 57.380 L 276.148 56.455 272 56.455 L 267.852 56.455 269.926 57.380 M 289 56.954 C 289.825 57.513, 291.363 57.976, 292.417 57.985 C 294.975 58.005, 294.177 57.433, 290.500 56.610 L 287.500 55.939 289 56.954 M 79.731 73.602 C 79.400 73.933, 79.859 75.733, 80.750 77.602 L 82.370 81 80.750 84.398 C 78.710 88.676, 79.324 89.290, 83.602 87.250 L 87 85.630 90.398 87.250 C 94.671 89.287, 95.290 88.676, 93.263 84.425 L 91.655 81.053 92.865 78.397 C 93.530 76.937, 93.894 75.560, 93.672 75.339 C 93.450 75.117, 92.696 76.321, 91.995 78.013 L 90.720 81.090 91.897 83.674 C 93.383 86.934, 92.925 87.379, 89.629 85.877 L 87 84.679 84.371 85.877 C 82.925 86.536, 81.558 86.891, 81.333 86.667 C 81.109 86.442, 81.464 85.075, 82.123 83.629 L 83.321 81 82.123 78.371 C 80.618 75.067, 81.065 74.617, 84.362 76.119 L 86.983 77.313 89.241 76.183 L 91.500 75.053 88.743 75.637 L 85.985 76.220 83.528 74.610 C 80.775 72.807, 80.579 72.754, 79.731 73.602 M 71.995 78.013 L 70.720 81.090 71.897 83.674 C 73.378 86.925, 72.925 87.378, 69.674 85.897 L 67.090 84.720 64.013 85.995 C 62.321 86.696, 61.117 87.450, 61.339 87.672 C 61.560 87.894, 62.937 87.530, 64.397 86.865 L 67.053 85.655 70.425 87.263 C 74.670 89.287, 75.287 88.670, 73.263 84.425 L 71.655 81.053 72.865 78.397 C 73.530 76.937, 73.894 75.560, 73.672 75.339 C 73.450 75.117, 72.696 76.321, 71.995 78.013 M 269.926 77.380 L 272 78.306 274.074 77.380 L 276.148 76.455 272 76.455 L 267.852 76.455 269.926 77.380 M 75.581 78.649 C 74.754 80.804, 75.206 81.118, 76.740 79.452 L 77.980 78.106 77.095 77.559 C 76.608 77.258, 75.927 77.748, 75.581 78.649 M 95.519 78.810 C 94.709 80.922, 95.243 80.993, 97.249 79.038 L 98.999 77.333 97.542 77.333 C 96.741 77.333, 95.831 77.998, 95.519 78.810 M 78.364 81.494 C 78.048 82.316, 77.393 82.743, 76.907 82.442 L 76.023 81.896 76.635 83.491 C 77.328 85.297, 77.309 85.307, 78.900 82.250 C 79.544 81.013, 79.815 80, 79.504 80 C 79.192 80, 78.679 80.672, 78.364 81.494 M 98.364 81.494 C 98.048 82.316, 97.393 82.743, 96.907 82.442 L 96.023 81.896 96.635 83.491 C 97.328 85.297, 97.309 85.307, 98.900 82.250 C 99.544 81.013, 99.815 80, 99.504 80 C 99.192 80, 98.679 80.672, 98.364 81.494 M 100.744 84.411 C 99.856 86.273, 99.382 88.049, 99.692 88.358 C 100.286 88.953, 106 86.309, 106 85.439 C 106 85.159, 105.061 85.432, 103.914 86.046 C 101.232 87.481, 100.535 86.737, 102 84 C 102.639 82.806, 102.981 81.648, 102.760 81.427 C 102.539 81.206, 101.632 82.549, 100.744 84.411 M 66 89.059 C 66 89.641, 65.505 89.812, 64.900 89.438 L 63.800 88.759 64.906 90.824 C 65.513 91.959, 66.571 93.225, 67.255 93.636 L 68.500 94.384 67.233 92.819 C 66.536 91.958, 66.246 90.521, 66.590 89.627 C 66.933 88.732, 66.941 88, 66.607 88 C 66.273 88, 66 88.477, 66 89.059 M 86 89.059 C 86 89.641, 85.505 89.812, 84.900 89.438 L 83.800 88.759 84.906 90.824 C 85.513 91.959, 86.571 93.225, 87.255 93.636 L 88.500 94.384 87.233 92.819 C 86.536 91.958, 86.246 90.521, 86.590 89.627 C 86.933 88.732, 86.941 88, 86.607 88 C 86.273 88, 86 88.477, 86 89.059 M 106 89 C 106 89.615, 105.505 89.812, 104.900 89.438 L 103.800 88.759 104.906 90.824 C 106.371 93.561, 107.699 94.296, 108.585 92.862 L 109.309 91.691 108.224 92.362 C 107.627 92.731, 106.824 92.525, 106.441 91.905 C 106.058 91.284, 106.299 90.433, 106.979 90.013 L 108.214 89.250 107.107 88.566 L 106 87.882 106 89 M 59.512 94.063 C 59.704 95.057, 60.380 96.841, 61.015 98.028 C 61.650 99.215, 61.919 101.382, 61.612 102.843 L 61.053 105.500 62.183 103.241 L 63.313 100.983 62.119 98.362 C 60.617 95.065, 61.067 94.618, 64.371 96.123 L 67 97.321 69.629 96.123 C 72.935 94.617, 73.383 95.065, 71.877 98.371 L 70.679 101 71.877 103.629 C 73.328 106.815, 72.834 107.517, 70.151 106.081 C 67.409 104.613, 65.739 104.721, 63.441 106.516 L 61.500 108.033 64.276 106.844 L 67.053 105.655 70.425 107.263 C 74.676 109.290, 75.287 108.671, 73.250 104.398 L 71.630 101 73.250 97.602 C 74.141 95.733, 74.629 93.962, 74.333 93.667 C 74.038 93.371, 72.228 93.877, 70.311 94.791 L 66.827 96.453 62.995 94.355 L 59.164 92.256 59.512 94.063 M 79.667 93.667 C 79.371 93.962, 79.859 95.733, 80.750 97.602 L 82.370 101 80.750 104.398 C 78.710 108.676, 79.324 109.290, 83.602 107.250 L 87 105.630 90.398 107.250 C 92.267 108.141, 94.038 108.629, 94.333 108.333 C 94.629 108.038, 94.141 106.267, 93.250 104.398 L 91.630 101 93.250 97.602 C 95.290 93.324, 94.676 92.710, 90.398 94.750 L 87 96.370 83.602 94.750 C 81.733 93.859, 79.962 93.371, 79.667 93.667 M 99.696 93.637 C 99.385 93.949, 99.859 95.733, 100.750 97.602 L 102.370 101 100.719 104.462 C 98.668 108.763, 99.504 109.370, 104 106.843 C 107.207 105.042, 106.547 104.975, 102.326 106.674 L 100.653 107.347 101.505 105.424 C 102.595 102.963, 102.595 99.037, 101.505 96.576 L 100.653 94.653 102.576 95.455 C 103.634 95.896, 105.625 96.423, 107 96.625 L 109.500 96.992 106.942 96.134 C 105.534 95.662, 103.456 94.779, 102.323 94.173 C 101.190 93.567, 100.008 93.325, 99.696 93.637 M 81.716 97.531 L 83.370 101 81.716 104.469 L 80.062 107.938 83.531 106.284 L 87 104.630 90.469 106.284 L 93.938 107.938 92.284 104.469 L 90.630 101 92.284 97.531 L 93.938 94.062 90.469 95.716 L 87 97.370 83.531 95.716 L 80.062 94.062 81.716 97.531 M 75.581 98.649 C 74.754 100.804, 75.206 101.118, 76.740 99.452 L 77.980 98.106 77.095 97.559 C 76.608 97.258, 75.927 97.748, 75.581 98.649 M 95.581 98.649 C 94.754 100.804, 95.206 101.118, 96.740 99.452 L 97.980 98.106 97.095 97.559 C 96.608 97.258, 95.927 97.748, 95.581 98.649 M 78.364 101.494 C 78.048 102.316, 77.393 102.743, 76.907 102.442 L 76.023 101.896 76.635 103.491 C 77.328 105.297, 77.309 105.307, 78.900 102.250 C 79.544 101.013, 79.815 100, 79.504 100 C 79.192 100, 78.679 100.672, 78.364 101.494 M 98.364 101.494 C 98.048 102.316, 97.393 102.743, 96.907 102.442 L 96.023 101.896 96.635 103.491 C 97.328 105.297, 97.309 105.307, 98.900 102.250 C 99.544 101.013, 99.815 100, 99.504 100 C 99.192 100, 98.679 100.672, 98.364 101.494 M 66 109.059 C 66 109.641, 65.505 109.812, 64.900 109.438 L 63.800 108.759 64.906 110.824 C 65.513 111.959, 66.571 113.225, 67.255 113.636 L 68.500 114.384 67.233 112.819 C 66.536 111.958, 66.246 110.521, 66.590 109.627 C 66.933 108.732, 66.941 108, 66.607 108 C 66.273 108, 66 108.477, 66 109.059 M 86 109.059 C 86 109.641, 85.505 109.812, 84.900 109.438 L 83.800 108.759 84.906 110.824 C 85.513 111.959, 86.571 113.225, 87.255 113.636 L 88.500 114.384 87.233 112.819 C 86.536 111.958, 86.246 110.521, 86.590 109.627 C 86.933 108.732, 86.941 108, 86.607 108 C 86.273 108, 86 108.477, 86 109.059 M 71.397 114.606 C 70.354 115.454, 70.113 115.832, 70.862 115.446 L 72.224 114.744 72.973 115.956 L 73.722 117.168 74.317 115.616 C 75.181 113.365, 73.598 112.818, 71.397 114.606 M 79.642 113.692 C 79.047 114.286, 81.691 120, 82.561 120 C 82.841 120, 82.568 119.061, 81.954 117.914 C 80.484 115.167, 81.165 114.662, 84.371 116.123 L 87 117.321 89.547 116.161 C 92.941 114.614, 93.323 114.688, 92.605 116.750 L 91.995 118.500 93.466 116.603 C 95.694 113.728, 94.332 112.874, 90.462 114.719 L 87 116.370 83.602 114.750 C 81.733 113.859, 79.951 113.382, 79.642 113.692" stroke="none" fill="#b0a5ff" fill-rule="evenodd"/><path d="M 101 18 L 101 32 146 32 L 191 32 191 18 L 191 4 146 4 L 101 4 101 18 M 103 18 L 103 30 146 30 L 189 30 189 18 L 189 6 146 6 L 103 6 103 18" stroke="none" fill="#0303f5" fill-rule="evenodd"/><path d="M 7.049 1.017 C 2.629 2.058, 1.263 4.006, 0.495 10.362 C 0.154 13.188, 0.015 39.350, 0.187 68.500 L 0.500 121.500 1.722 123.632 C 2.394 124.805, 3.744 126.155, 4.722 126.632 L 6.500 127.500 98.500 127.800 C 149.100 127.966, 192.412 127.826, 194.750 127.489 L 199 126.877 199 64.064 L 199 1.250 195.875 0.625 C 191.231 -0.304, 11.070 0.070, 7.049 1.017 M 213.250 0.693 L 211 1.139 211 64.008 L 211 126.877 215.250 127.489 C 217.588 127.826, 260.900 127.966, 311.500 127.800 L 403.500 127.500 405.738 126.221 C 406.969 125.518, 408.319 123.718, 408.738 122.221 C 409.733 118.669, 409.733 9.331, 408.738 5.779 C 408.319 4.282, 406.969 2.482, 405.738 1.779 L 403.500 0.500 309.500 0.374 C 257.800 0.305, 214.488 0.448, 213.250 0.693 M 101 18 L 101 32 146 32 L 191 32 191 18 L 191 4 146 4 L 101 4 101 18 M 103 7 L 103 8 146 8 L 189 8 189 7 L 189 6 146 6 L 103 6 103 7 M 103 11.500 L 103 13 146 13 L 189 13 189 11.500 L 189 10 146 10 L 103 10 103 11.500 M 11 63 L 11 111 35.834 111 L 60.667 111 64.936 114.941 C 72.299 121.738, 84.044 123.908, 94.392 120.382 L 99.141 118.764 104.023 113.882 L 108.905 109 150.952 109 L 193 109 193 100 L 193 91 151.975 91 L 110.950 91 109.975 88.435 C 109.439 87.024, 109 85.674, 109 85.435 C 109 85.196, 127.900 85, 151 85 L 193 85 193 76 L 193 67 150.500 67 L 108 67 108 75 L 108 83 104.129 79.129 C 102.001 77.001, 98.401 74.439, 96.129 73.437 L 92 71.615 92 43.308 L 92 15 51.500 15 L 11 15 11 63 M 103 16.500 L 103 18 146 18 L 189 18 189 16.500 L 189 15 146 15 L 103 15 103 16.500 M 103 21.500 L 103 23 146 23 L 189 23 189 21.500 L 189 20 146 20 L 103 20 103 21.500 M 273 26 L 273 32 268.149 32 C 259.451 32, 250.114 36.844, 246.009 43.486 L 243.837 47 236.168 47.199 L 228.500 47.397 235.750 47.743 L 243 48.088 243 49.044 L 243 50 236 50 L 229 50 229 51 L 229 52 235.500 52 L 242 52 242 53 L 242 54 235.500 54 L 229 54 229 55 L 229 56 235.500 56 L 242 56 242 57 L 242 58 235.500 58 L 229 58 229 59 L 229 60 235.500 60 L 242 60 242 61 L 242 62 235.500 62 L 229 62 229 63 L 229 64 236 64 L 243 64 243 65.456 L 243 66.912 235.750 67.257 L 228.500 67.603 236.191 67.801 C 240.421 67.911, 244.160 68.450, 244.500 69 L 245.118 70 237.059 70 L 229 70 229 71 L 229 72 238 72 L 247 72 247 73 L 247 74 238 74 L 229 74 229 75 L 229 76 239.250 76.015 C 244.887 76.024, 250.175 76.467, 251 77 L 252.500 77.969 240.750 77.985 L 229 78 229 79 L 229 80 242.250 80.070 C 249.537 80.109, 256.400 80.527, 257.500 81 L 259.500 81.859 244.250 81.930 L 229 82 229 83 L 229 84 311.500 84 L 394 84 394 83 L 394 82 336.250 81.930 L 278.500 81.859 280.500 81 L 282.500 80.141 338.250 80.070 L 394 80 394 79 L 394 78 339.750 77.985 L 285.500 77.969 287 77 L 288.500 76.031 341.250 76.015 L 394 76 394 75 L 394 74 342.500 74 L 291 74 291 73 L 291 72 342.500 72 L 394 72 394 71 L 394 70 343.441 70 L 292.882 70 293.500 69 L 294.118 68 344.309 67.760 L 394.500 67.519 344.750 67.250 L 295 66.981 295 65.491 L 295 64 344.500 64 L 394 64 394 63 L 394 62 345 62 L 296 62 296 61 L 296 60 345 60 L 394 60 394 59 L 394 58 345 58 L 296 58 296 57 L 296 56 345 56 L 394 56 394 55 L 394 54 345 54 L 296 54 296 53 L 296 52 345 52 L 394 52 394 51 L 394 50 344.500 50 L 295 50 295 49.009 L 295 48.019 344.750 47.750 L 394.500 47.481 344.443 47.240 L 294.385 47 291.213 42.500 L 288.041 38 323.021 38 L 358 38 358 29 L 358 20 315.500 20 L 273 20 273 26 M 103 27 L 103 29 146 29 L 189 29 189 27 L 189 25 146 25 L 103 25 103 27 M 269.575 41.059 L 267.650 43 269.242 43 C 270.117 43, 271.019 43.558, 271.247 44.241 L 271.661 45.482 273.402 43.741 L 275.143 42 273.643 40.500 C 271.825 38.682, 271.951 38.664, 269.575 41.059 M 251.130 41.343 L 250.114 42.567 250.966 43.946 L 251.818 45.324 253.409 43.734 C 255.365 41.778, 255.387 41.362, 253.573 40.666 C 252.788 40.365, 251.689 40.670, 251.130 41.343 M 108 52 L 108 61 150.500 61 L 193 61 193 52 L 193 43 150.500 43 L 108 43 108 52 M 250 61 L 248.500 61.969 252 61.969 L 255.500 61.969 254 61 C 253.175 60.467, 252.275 60.031, 252 60.031 C 251.725 60.031, 250.825 60.467, 250 61 M 270 61 L 268.500 61.969 272 61.969 L 275.500 61.969 274 61 C 273.175 60.467, 272.275 60.031, 272 60.031 C 271.725 60.031, 270.825 60.467, 270 61 M 290 61 L 288.500 61.969 290.750 61.985 C 291.988 61.993, 293 61.550, 293 61 C 293 59.747, 291.939 59.747, 290 61 M 84.575 80.059 L 82.650 82 84.242 82 C 85.117 82, 86.019 82.558, 86.247 83.241 L 86.661 84.482 88.402 82.741 L 90.143 81 88.643 79.500 C 86.825 77.682, 86.951 77.664, 84.575 80.059 M 66.130 80.343 L 65.114 81.567 65.966 82.946 L 66.818 84.324 68.409 82.734 C 70.365 80.778, 70.387 80.362, 68.573 79.666 C 67.788 79.365, 66.689 79.670, 66.130 80.343 M 270.325 87.750 C 293.328 87.900, 330.678 87.899, 353.325 87.750 C 375.971 87.600, 357.150 87.477, 311.500 87.477 C 265.850 87.477, 247.321 87.600, 270.325 87.750 M 229 91 L 229 92 311.500 92 L 394 92 394 91 L 394 90 311.500 90 L 229 90 229 91 M 229 95 L 229 96 311.500 96 L 394 96 394 95 L 394 94 311.500 94 L 229 94 229 95 M 64.575 100.059 L 62.650 102 64.242 102 C 65.117 102, 66.019 102.558, 66.247 103.241 L 66.661 104.482 68.402 102.741 L 70.143 101 68.643 99.500 C 66.825 97.682, 66.951 97.664, 64.575 100.059 M 84.575 100.059 L 82.650 102 84.242 102 C 85.117 102, 86.019 102.558, 86.247 103.241 L 86.661 104.482 88.402 102.741 L 90.143 101 88.643 99.500 C 86.825 97.682, 86.951 97.664, 84.575 100.059 M 104.575 100.059 L 102.650 102 104.325 102 C 105.246 102, 106 102.477, 106 103.059 C 106 103.641, 106.450 103.840, 107 103.500 C 108.154 102.787, 108.375 97.970, 107.250 98.059 C 106.838 98.092, 105.634 98.992, 104.575 100.059 M 229 99 L 229 100 311.500 100 L 394 100 394 99 L 394 98 311.500 98 L 229 98 229 99 M 229 103 L 229 104 311.500 104 L 394 104 394 103 L 394 102 311.500 102 L 229 102 229 103 M 270.325 107.750 C 293.328 107.900, 330.678 107.899, 353.325 107.750 C 375.971 107.600, 357.150 107.477, 311.500 107.477 C 265.850 107.477, 247.321 107.600, 270.325 107.750 M 229 111 L 229 112 311.500 112 L 394 112 394 111 L 394 110 311.500 110 L 229 110 229 111 M 229 115 L 229 116 311.500 116 L 394 116 394 115 L 394 114 311.500 114 L 229 114 229 115" stroke="none" fill="#ffffff" fill-rule="evenodd"/><path d="" stroke="none" fill="#e2e2e2" fill-rule="evenodd"/><path d="M 273 25.961 L 273 31.923 276.750 32.949 C 278.813 33.514, 281.973 34.881, 283.774 35.988 L 287.048 38 322.524 38 L 358 38 358 29 L 358 20 315.500 20 L 273 20 273 25.961 M 108 52 L 108 61 150.500 61 L 193 61 193 52 L 193 43 150.500 43 L 108 43 108 52 M 108 76 L 108 85 150.500 85 L 193 85 193 76 L 193 67 150.500 67 L 108 67 108 76 M 111 95.874 C 111 98.555, 110.345 102.605, 109.544 104.874 L 108.089 109 150.544 109 L 193 109 193 100 L 193 91 152 91 L 111 91 111 95.874" stroke="none" fill="#a3a3a3" fill-rule="evenodd"/><path d="M 271 35.500 C 271 36.325, 271.375 37, 271.833 37 C 272.292 37, 272.667 36.325, 272.667 35.500 C 272.667 34.675, 272.292 34, 271.833 34 C 271.375 34, 271 34.675, 271 35.500 M 285.138 41.333 L 284.032 42.667 285.516 42.667 C 286.332 42.667, 287 42.067, 287 41.333 C 287 40.600, 286.830 40, 286.622 40 C 286.415 40, 285.747 40.600, 285.138 41.333 M 258.980 49.524 C 257.142 51.739, 258.188 51.994, 260.250 49.833 C 261.212 48.825, 261.605 48, 261.122 48 C 260.640 48, 259.676 48.686, 258.980 49.524 M 278.980 49.524 C 277.142 51.739, 278.188 51.994, 280.250 49.833 C 281.212 48.825, 281.605 48, 281.122 48 C 280.640 48, 279.676 48.686, 278.980 49.524 M 260.446 51.087 C 260.077 51.685, 260.275 52.675, 260.887 53.287 L 262 54.400 263.113 53.287 C 264.267 52.133, 263.545 50, 262 50 C 261.515 50, 260.816 50.489, 260.446 51.087 M 280.446 51.087 C 280.077 51.685, 280.275 52.675, 280.887 53.287 L 282 54.400 283.113 53.287 C 284.267 52.133, 283.545 50, 282 50 C 281.515 50, 280.816 50.489, 280.446 51.087 M 257 61.883 C 257 62.369, 256.100 63.002, 255 63.290 C 253.900 63.577, 253.007 64.417, 253.015 65.156 L 253.031 66.500 253.765 65.427 C 254.169 64.837, 255.287 64.064, 256.250 63.708 C 257.802 63.136, 258.788 61, 257.500 61 C 257.225 61, 257 61.398, 257 61.883 M 277 61.883 C 277 62.369, 276.100 63.002, 275 63.290 C 273.900 63.577, 273.007 64.417, 273.015 65.156 L 273.031 66.500 273.765 65.427 C 274.169 64.837, 275.288 64.064, 276.250 63.708 C 277.802 63.136, 278.788 61, 277.500 61 C 277.225 61, 277 61.398, 277 61.883 M 258.980 69.524 C 257.142 71.739, 258.188 71.994, 260.250 69.833 C 261.212 68.825, 261.605 68, 261.122 68 C 260.640 68, 259.676 68.686, 258.980 69.524 M 278.980 69.524 C 277.142 71.739, 278.188 71.994, 280.250 69.833 C 281.212 68.825, 281.605 68, 281.122 68 C 280.640 68, 279.676 68.686, 278.980 69.524 M 260.446 71.087 C 260.077 71.685, 260.275 72.675, 260.887 73.287 L 262 74.400 263.113 73.287 C 264.267 72.133, 263.545 70, 262 70 C 261.515 70, 260.816 70.489, 260.446 71.087 M 280.446 71.087 C 280.077 71.685, 280.275 72.675, 280.887 73.287 L 282 74.400 283.113 73.287 C 284.267 72.133, 283.545 70, 282 70 C 281.515 70, 280.816 70.489, 280.446 71.087 M 86 74.500 C 86 75.325, 86.375 76, 86.833 76 C 87.292 76, 87.667 75.325, 87.667 74.500 C 87.667 73.675, 87.292 73, 86.833 73 C 86.375 73, 86 73.675, 86 74.500 M 284.087 74.396 L 282.888 75.839 284.194 75.648 C 285.576 75.445, 286.467 74.133, 285.726 73.393 C 285.483 73.150, 284.746 73.601, 284.087 74.396 M 100.138 80.333 L 99.032 81.667 100.516 81.667 C 101.332 81.667, 102 81.067, 102 80.333 C 102 79.600, 101.830 79, 101.622 79 C 101.415 79, 100.747 79.600, 100.138 80.333 M 73.980 88.524 C 72.142 90.739, 73.188 90.994, 75.250 88.833 C 76.213 87.825, 76.605 87, 76.122 87 C 75.640 87, 74.676 87.686, 73.980 88.524 M 93.980 88.524 C 92.142 90.739, 93.188 90.994, 95.250 88.833 C 96.213 87.825, 96.605 87, 96.122 87 C 95.640 87, 94.676 87.686, 93.980 88.524 M 75.446 90.087 C 75.077 90.685, 75.275 91.675, 75.887 92.287 L 77 93.400 78.113 92.287 C 79.267 91.133, 78.545 89, 77 89 C 76.515 89, 75.816 89.489, 75.446 90.087 M 95.446 90.087 C 95.077 90.685, 95.275 91.675, 95.887 92.287 L 97 93.400 98.113 92.287 C 99.267 91.133, 98.545 89, 97 89 C 96.515 89, 95.816 89.489, 95.446 90.087 M 73.980 108.524 C 72.142 110.739, 73.188 110.994, 75.250 108.833 C 76.213 107.825, 76.605 107, 76.122 107 C 75.640 107, 74.676 107.686, 73.980 108.524 M 93.980 108.524 C 92.142 110.739, 93.188 110.994, 95.250 108.833 C 96.213 107.825, 96.605 107, 96.122 107 C 95.640 107, 94.676 107.686, 93.980 108.524 M 75.446 110.087 C 75.077 110.685, 75.275 111.675, 75.887 112.287 L 77 113.400 78.113 112.287 C 79.267 111.133, 78.545 109, 77 109 C 76.515 109, 75.816 109.489, 75.446 110.087 M 95.446 110.087 C 95.077 110.685, 95.275 111.675, 95.887 112.287 L 97 113.400 98.113 112.287 C 99.267 111.133, 98.545 109, 97 109 C 96.515 109, 95.816 109.489, 95.446 110.087" stroke="none" fill="#4750ff" fill-rule="evenodd"/><path d="M 64.250 89.662 C 62.631 90.316, 62.649 91.651, 64.286 92.279 L 65.571 92.773 65.571 90.886 C 65.571 89.849, 65.555 89.036, 65.536 89.079 C 65.516 89.122, 64.938 89.385, 64.250 89.662 M 84.250 89.662 C 82.631 90.316, 82.649 91.651, 84.286 92.279 L 85.571 92.773 85.571 90.886 C 85.571 89.849, 85.555 89.036, 85.536 89.079 C 85.516 89.122, 84.938 89.385, 84.250 89.662 M 104.250 89.662 C 102.631 90.316, 102.649 91.651, 104.286 92.279 L 105.571 92.773 105.571 90.886 C 105.571 89.849, 105.555 89.036, 105.536 89.079 C 105.516 89.122, 104.938 89.385, 104.250 89.662 M 68.557 91.582 C 67.491 92.362, 67.041 92.993, 67.559 92.985 C 68.941 92.962, 71.520 91.186, 70.969 90.636 C 70.710 90.376, 69.624 90.802, 68.557 91.582 M 88.557 91.582 C 87.491 92.362, 87.041 92.993, 87.559 92.985 C 88.941 92.962, 91.520 91.186, 90.969 90.636 C 90.710 90.376, 89.624 90.802, 88.557 91.582 M 84.250 109.662 C 82.631 110.316, 82.649 111.651, 84.286 112.279 L 85.571 112.773 85.571 110.886 C 85.571 109.849, 85.555 109.036, 85.536 109.079 C 85.516 109.122, 84.938 109.385, 84.250 109.662 M 68.557 111.582 C 67.491 112.362, 67.041 112.993, 67.559 112.985 C 68.941 112.962, 71.520 111.186, 70.969 110.636 C 70.710 110.376, 69.624 110.802, 68.557 111.582 M 88.557 111.582 C 87.491 112.362, 87.041 112.993, 87.559 112.985 C 88.941 112.962, 91.520 111.186, 90.969 110.636 C 90.710 110.376, 89.624 110.802, 88.557 111.582" stroke="none" fill="#b6b7fe" fill-rule="evenodd"/><path d="M 245.980 47.250 L 244.890 49.500 246.294 47.766 C 247.066 46.812, 248.063 46.362, 248.509 46.766 C 248.955 47.169, 248.997 46.938, 248.601 46.250 C 247.606 44.521, 247.234 44.663, 245.980 47.250" stroke="none" fill="#3435fc" fill-rule="evenodd"/><path d="" stroke="none" fill="#2816f5" fill-rule="evenodd"/><path d="M 264.500 33.043 C 262.300 33.407, 259.286 34.201, 257.802 34.808 C 254.537 36.143, 247.311 42.531, 245.805 45.414 C 245.206 46.561, 246.701 45.387, 249.127 42.804 C 251.553 40.222, 255.555 37.194, 258.019 36.076 L 262.500 34.044 269 34.044 L 275.500 34.044 280 36.035 L 284.500 38.026 288.823 42.763 C 291.201 45.368, 292.688 46.561, 292.126 45.414 C 290.661 42.420, 283.322 36.026, 279.640 34.534 C 275.438 32.831, 269.383 32.235, 264.500 33.043 M 294 57.559 L 294 59.118 295 58.500 C 295.550 58.160, 296 57.459, 296 56.941 C 296 56.423, 295.550 56, 295 56 C 294.450 56, 294 56.702, 294 57.559 M 290.638 69.500 C 290.322 70.325, 290.451 71, 290.924 71 C 291.398 71, 292.045 70.325, 292.362 69.500 C 292.678 68.675, 292.549 68, 292.076 68 C 291.602 68, 290.955 68.675, 290.638 69.500 M 74.316 72.326 C 72.565 72.972, 69.146 74.904, 66.720 76.621 L 62.307 79.742 59.654 85.067 L 57 90.393 57.026 96.446 L 57.052 102.500 58.776 106.157 C 59.724 108.168, 62.888 111.829, 65.807 114.293 L 71.113 118.772 75.550 120.014 C 81.515 121.684, 86.534 121.701, 92.303 120.069 L 97.106 118.710 101.941 114.363 L 106.777 110.015 108.508 105.758 C 109.460 103.416, 110.249 99.235, 110.262 96.467 L 110.286 91.434 108.269 86.967 C 105.845 81.598, 101.221 77.070, 94.601 73.581 L 89.702 71 83.601 71.076 C 80.245 71.118, 76.067 71.680, 74.316 72.326 M 73.500 74.867 C 67.707 77.508, 63.450 81.440, 61.078 86.339 L 59 90.631 59 96.500 L 59 102.369 61.079 106.663 C 63.450 111.560, 68.689 116.092, 74.816 118.543 L 79.019 120.225 85.879 119.837 L 92.739 119.449 97.603 116.442 L 102.467 113.435 105.451 108.993 L 108.434 104.551 108.834 98.265 L 109.234 91.980 107.939 88.740 C 107.226 86.958, 105.288 83.752, 103.631 81.616 L 100.619 77.732 95.560 75.376 L 90.500 73.020 84 73.032 L 77.500 73.044 73.500 74.867 M 253.441 77.532 C 254.509 78.339, 255.832 79, 256.382 79 C 256.932 79, 256.509 78.339, 255.441 77.532 C 254.374 76.724, 253.050 76.064, 252.500 76.064 C 251.950 76.064, 252.374 76.724, 253.441 77.532 M 282.559 77.532 C 281.491 78.339, 281.068 79, 281.618 79 C 282.168 79, 283.491 78.339, 284.559 77.532 C 285.626 76.724, 286.050 76.064, 285.500 76.064 C 284.950 76.064, 283.626 76.724, 282.559 77.532 M 260.787 81.180 C 261.729 81.554, 265.425 81.859, 269 81.859 C 272.575 81.859, 276.271 81.554, 277.213 81.180 C 278.155 80.806, 274.459 80.500, 269 80.500 C 263.541 80.500, 259.845 80.806, 260.787 81.180" stroke="none" fill="#2b0df0" fill-rule="evenodd"/><path d="M 256 79.393 C 256 80.342, 258.993 80.820, 259.527 79.956 L 260.118 79 258.059 79 C 256.927 79, 256 79.177, 256 79.393" stroke="none" fill="#2f12f0" fill-rule="evenodd"/><path d="M 232.776 47.733 C 235.128 47.945, 238.728 47.942, 240.776 47.727 C 242.824 47.512, 240.900 47.339, 236.500 47.343 C 232.100 47.346, 230.424 47.522, 232.776 47.733 M 318.750 47.749 C 332.638 47.906, 355.363 47.906, 369.250 47.749 C 383.138 47.592, 371.775 47.464, 344 47.464 C 316.225 47.464, 304.863 47.592, 318.750 47.749 M 231.728 51.722 C 233.503 51.943, 236.653 51.946, 238.728 51.730 C 240.802 51.513, 239.350 51.333, 235.500 51.328 C 231.650 51.324, 229.952 51.501, 231.728 51.722 M 320.250 51.749 C 333.863 51.906, 356.137 51.906, 369.750 51.749 C 383.363 51.592, 372.225 51.463, 345 51.463 C 317.775 51.463, 306.637 51.592, 320.250 51.749 M 231.728 55.722 C 233.503 55.943, 236.653 55.946, 238.728 55.730 C 240.802 55.513, 239.350 55.333, 235.500 55.328 C 231.650 55.324, 229.952 55.501, 231.728 55.722 M 320.250 55.749 C 333.863 55.906, 356.137 55.906, 369.750 55.749 C 383.363 55.592, 372.225 55.463, 345 55.463 C 317.775 55.463, 306.637 55.592, 320.250 55.749 M 231.728 59.722 C 233.503 59.943, 236.653 59.946, 238.728 59.730 C 240.802 59.513, 239.350 59.333, 235.500 59.328 C 231.650 59.324, 229.952 59.501, 231.728 59.722 M 320.250 59.749 C 333.863 59.906, 356.137 59.906, 369.750 59.749 C 383.363 59.592, 372.225 59.463, 345 59.463 C 317.775 59.463, 306.637 59.592, 320.250 59.749 M 231.728 63.722 C 233.503 63.943, 236.653 63.946, 238.728 63.730 C 240.802 63.513, 239.350 63.333, 235.500 63.328 C 231.650 63.324, 229.952 63.501, 231.728 63.722 M 320.250 63.749 C 333.863 63.906, 356.137 63.906, 369.750 63.749 C 383.363 63.592, 372.225 63.463, 345 63.463 C 317.775 63.463, 306.637 63.592, 320.250 63.749 M 294 67.250 C 294 67.662, 316.613 67.899, 344.250 67.775 C 371.887 67.651, 386.625 67.427, 377 67.277 C 332.203 66.581, 293.999 66.569, 294 67.250 M 232.776 67.733 C 235.128 67.945, 238.728 67.942, 240.776 67.727 C 242.824 67.512, 240.900 67.339, 236.500 67.343 C 232.100 67.346, 230.424 67.522, 232.776 67.733 M 233.280 71.736 C 235.909 71.943, 239.959 71.940, 242.280 71.731 C 244.601 71.521, 242.450 71.352, 237.500 71.355 C 232.550 71.358, 230.651 71.530, 233.280 71.736 M 317.250 71.749 C 331.413 71.906, 354.588 71.906, 368.750 71.749 C 382.913 71.593, 371.325 71.465, 343 71.465 C 314.675 71.465, 303.088 71.593, 317.250 71.749 M 233.750 75.737 C 236.637 75.939, 241.363 75.939, 244.250 75.737 C 247.137 75.535, 244.775 75.370, 239 75.370 C 233.225 75.370, 230.863 75.535, 233.750 75.737 M 315.320 75.749 C 330.072 75.905, 353.922 75.905, 368.320 75.749 C 382.719 75.593, 370.650 75.465, 341.500 75.466 C 312.350 75.466, 300.569 75.593, 315.320 75.749 M 235.250 79.742 C 238.963 79.934, 245.037 79.934, 248.750 79.742 C 252.463 79.549, 249.425 79.392, 242 79.392 C 234.575 79.392, 231.537 79.549, 235.250 79.742 M 311.250 79.749 C 326.512 79.905, 351.487 79.905, 366.750 79.749 C 382.012 79.594, 369.525 79.467, 339 79.467 C 308.475 79.467, 295.987 79.594, 311.250 79.749 M 270.325 83.750 C 293.328 83.900, 330.678 83.899, 353.325 83.750 C 375.971 83.600, 357.150 83.477, 311.500 83.477 C 265.850 83.477, 247.321 83.600, 270.325 83.750 M 270.325 87.750 C 293.328 87.900, 330.678 87.899, 353.325 87.750 C 375.971 87.600, 357.150 87.477, 311.500 87.477 C 265.850 87.477, 247.321 87.600, 270.325 87.750 M 270.325 91.750 C 293.328 91.900, 330.678 91.899, 353.325 91.750 C 375.971 91.600, 357.150 91.477, 311.500 91.477 C 265.850 91.477, 247.321 91.600, 270.325 91.750 M 270.325 95.750 C 293.328 95.900, 330.678 95.899, 353.325 95.750 C 375.971 95.600, 357.150 95.477, 311.500 95.477 C 265.850 95.477, 247.321 95.600, 270.325 95.750 M 270.325 99.750 C 293.328 99.900, 330.678 99.899, 353.325 99.750 C 375.971 99.600, 357.150 99.477, 311.500 99.477 C 265.850 99.477, 247.321 99.600, 270.325 99.750 M 270.325 103.750 C 293.328 103.900, 330.678 103.899, 353.325 103.750 C 375.971 103.600, 357.150 103.477, 311.500 103.477 C 265.850 103.477, 247.321 103.600, 270.325 103.750 M 270.325 107.750 C 293.328 107.900, 330.678 107.899, 353.325 107.750 C 375.971 107.600, 357.150 107.477, 311.500 107.477 C 265.850 107.477, 247.321 107.600, 270.325 107.750 M 270.325 111.750 C 293.328 111.900, 330.678 111.899, 353.325 111.750 C 375.971 111.600, 357.150 111.477, 311.500 111.477 C 265.850 111.477, 247.321 111.600, 270.325 111.750 M 270.325 115.750 C 293.328 115.900, 330.678 115.899, 353.325 115.750 C 375.971 115.600, 357.150 115.477, 311.500 115.477 C 265.850 115.477, 247.321 115.600, 270.325 115.750" stroke="none" fill="#d5cffc" fill-rule="evenodd"/><path d="M 0.102 5.250 L 0.205 10.500 0.995 7.157 C 1.430 5.319, 2.242 3.358, 2.800 2.800 C 3.358 2.242, 5.319 1.430, 7.157 0.995 L 10.500 0.205 5.250 0.102 L 0 0 0.102 5.250 M 196.750 0.706 L 199 1.139 199 64 L 199 126.861 196.750 127.294 C 195.512 127.533, 199.225 127.728, 205 127.728 C 210.775 127.728, 214.488 127.533, 213.250 127.294 L 211 126.861 211 64 L 211 1.139 213.250 0.706 C 214.488 0.467, 210.775 0.272, 205 0.272 C 199.225 0.272, 195.512 0.467, 196.750 0.706 M 402.843 0.995 C 407.030 1.985, 408.015 2.970, 409.005 7.157 L 409.795 10.500 409.898 5.250 L 410 0 404.750 0.102 L 399.500 0.205 402.843 0.995 M 0.102 122.750 L 0 128 5.250 127.898 L 10.500 127.795 7.157 127.005 C 2.970 126.015, 1.985 125.030, 0.995 120.843 L 0.205 117.500 0.102 122.750 M 409 120.309 C 409 123.700, 406.858 126.063, 402.951 126.983 L 399.500 127.795 404.750 127.898 L 410 128 410 123 C 410 120.250, 409.775 118, 409.500 118 C 409.225 118, 409 119.039, 409 120.309" stroke="none" fill="#010541" fill-rule="evenodd"/><path d="" stroke="none" fill="#181795" fill-rule="evenodd"/><path d="M 124.250 8.749 C 136.213 8.908, 155.788 8.908, 167.750 8.749 C 179.713 8.589, 169.925 8.459, 146 8.459 C 122.075 8.459, 112.288 8.589, 124.250 8.749 M 124.250 13.749 C 136.213 13.908, 155.788 13.908, 167.750 13.749 C 179.713 13.589, 169.925 13.459, 146 13.459 C 122.075 13.459, 112.288 13.589, 124.250 13.749 M 124.250 18.749 C 136.213 18.908, 155.788 18.908, 167.750 18.749 C 179.713 18.589, 169.925 18.459, 146 18.459 C 122.075 18.459, 112.288 18.589, 124.250 18.749 M 124.250 23.749 C 136.213 23.908, 155.788 23.908, 167.750 23.749 C 179.713 23.589, 169.925 23.459, 146 23.459 C 122.075 23.459, 112.288 23.589, 124.250 23.749 M 232.250 50.728 C 234.313 50.944, 237.688 50.944, 239.750 50.728 C 241.813 50.513, 240.125 50.336, 236 50.336 C 231.875 50.336, 230.188 50.513, 232.250 50.728 M 319.820 50.749 C 333.745 50.906, 356.245 50.906, 369.820 50.749 C 383.394 50.592, 372 50.464, 344.500 50.464 C 317 50.464, 305.894 50.592, 319.820 50.749 M 231.728 54.722 C 233.503 54.943, 236.653 54.946, 238.728 54.730 C 240.802 54.513, 239.350 54.333, 235.500 54.328 C 231.650 54.324, 229.952 54.501, 231.728 54.722 M 320.250 54.749 C 333.863 54.906, 356.137 54.906, 369.750 54.749 C 383.363 54.592, 372.225 54.463, 345 54.463 C 317.775 54.463, 306.637 54.592, 320.250 54.749 M 257.174 57.603 C 258.070 58.499, 259.283 59.067, 259.869 58.866 C 260.455 58.665, 259.722 57.931, 258.240 57.237 L 255.545 55.973 257.174 57.603 M 277.174 57.603 C 278.070 58.499, 279.283 59.067, 279.869 58.866 C 280.455 58.665, 279.722 57.931, 278.240 57.237 L 275.545 55.973 277.174 57.603 M 231.728 58.722 C 233.503 58.943, 236.653 58.946, 238.728 58.730 C 240.802 58.513, 239.350 58.333, 235.500 58.328 C 231.650 58.324, 229.952 58.501, 231.728 58.722 M 320.250 58.749 C 333.863 58.906, 356.137 58.906, 369.750 58.749 C 383.363 58.592, 372.225 58.463, 345 58.463 C 317.775 58.463, 306.637 58.592, 320.250 58.749 M 251.500 62 L 247.500 62.716 251.191 62.858 C 253.221 62.936, 255.160 62.550, 255.500 62 C 255.840 61.450, 255.979 61.064, 255.809 61.142 C 255.639 61.220, 253.700 61.606, 251.500 62 M 271.500 62 L 267.500 62.716 271.191 62.858 C 273.221 62.936, 275.160 62.550, 275.500 62 C 275.840 61.450, 275.979 61.064, 275.809 61.142 C 275.639 61.220, 273.700 61.606, 271.500 62 M 231.728 62.722 C 233.503 62.943, 236.653 62.946, 238.728 62.730 C 240.802 62.513, 239.350 62.333, 235.500 62.328 C 231.650 62.324, 229.952 62.501, 231.728 62.722 M 289.269 62.693 C 290.242 62.947, 291.592 62.930, 292.269 62.656 C 292.946 62.382, 292.150 62.175, 290.500 62.195 L 287.500 62.232 289.269 62.693 M 320.250 62.749 C 333.863 62.906, 356.137 62.906, 369.750 62.749 C 383.363 62.592, 372.225 62.463, 345 62.463 C 317.775 62.463, 306.637 62.592, 320.250 62.749 M 232.750 70.732 C 235.088 70.943, 238.912 70.943, 241.250 70.732 C 243.588 70.522, 241.675 70.349, 237 70.349 C 232.325 70.349, 230.412 70.522, 232.750 70.732 M 318.320 70.749 C 332.521 70.906, 355.471 70.906, 369.320 70.749 C 383.169 70.592, 371.550 70.464, 343.500 70.464 C 315.450 70.465, 304.119 70.593, 318.320 70.749 M 238 74 L 228.500 74.617 238.250 74.809 L 248 75 248 74 C 248 73.450, 247.887 73.086, 247.750 73.191 C 247.613 73.297, 243.225 73.661, 238 74 M 290 74.250 C 290 74.662, 313.512 74.898, 342.250 74.773 C 370.988 74.649, 386.175 74.425, 376 74.276 C 328.441 73.580, 289.999 73.569, 290 74.250 M 234.750 78.740 C 238.188 78.936, 243.813 78.936, 247.250 78.740 C 250.688 78.545, 247.875 78.385, 241 78.385 C 234.125 78.385, 231.313 78.545, 234.750 78.740 M 312.321 78.749 C 327.622 78.905, 352.372 78.905, 367.321 78.749 C 382.269 78.594, 369.750 78.467, 339.500 78.467 C 309.250 78.467, 297.019 78.594, 312.321 78.749 M 237.299 82.745 C 242.139 82.929, 249.789 82.928, 254.299 82.743 C 258.810 82.558, 254.850 82.408, 245.500 82.409 C 236.150 82.410, 232.460 82.562, 237.299 82.745 M 305.250 82.749 C 321.612 82.904, 348.387 82.904, 364.750 82.749 C 381.113 82.595, 367.725 82.469, 335 82.469 C 302.275 82.469, 288.887 82.595, 305.250 82.749 M 270.325 90.750 C 293.328 90.900, 330.678 90.899, 353.325 90.750 C 375.971 90.600, 357.150 90.477, 311.500 90.477 C 265.850 90.477, 247.321 90.600, 270.325 90.750 M 270.325 94.750 C 293.328 94.900, 330.678 94.899, 353.325 94.750 C 375.971 94.600, 357.150 94.477, 311.500 94.477 C 265.850 94.477, 247.321 94.600, 270.325 94.750 M 270.325 98.750 C 293.328 98.900, 330.678 98.899, 353.325 98.750 C 375.971 98.600, 357.150 98.477, 311.500 98.477 C 265.850 98.477, 247.321 98.600, 270.325 98.750 M 270.325 102.750 C 293.328 102.900, 330.678 102.899, 353.325 102.750 C 375.971 102.600, 357.150 102.477, 311.500 102.477 C 265.850 102.477, 247.321 102.600, 270.325 102.750 M 270.325 110.750 C 293.328 110.900, 330.678 110.899, 353.325 110.750 C 375.971 110.600, 357.150 110.477, 311.500 110.477 C 265.850 110.477, 247.321 110.600, 270.325 110.750 M 270.325 114.750 C 293.328 114.900, 330.678 114.899, 353.325 114.750 C 375.971 114.600, 357.150 114.477, 311.500 114.477 C 265.850 114.477, 247.321 114.600, 270.325 114.750" stroke="none" fill="#e6e6ea" fill-rule="evenodd"/></svg>